<?xml version="1.0" standalone="no"?>
<!DOCTYPE svg PUBLIC "-//W3C//DTD SVG 1.1//EN" "http://www.w3.org/Graphics/SVG/1.1/DTD/svg11.dtd" >
<svg xmlns="http://www.w3.org/2000/svg" xmlns:xlink="http://www.w3.org/1999/xlink" version="1.1">
<metadata>
Created by FontForge 20170731 at Sun Oct 30 11:30:17 2016
 By Aleksey,,,
Copyright
</metadata>
<defs>
<font id="NYJGothicM" horiz-adv-x="920" >
  <font-face 
    font-family="NYJ Gothic M"
    font-weight="400"
    font-stretch="normal"
    units-per-em="1000"
    panose-1="2 2 6 3 2 1 1 2 1 1"
    ascent="800"
    descent="-200"
    x-height="469"
    cap-height="685"
    bbox="-28 -265 970 825"
    underline-thickness="25"
    underline-position="-236"
    unicode-range="U+0020-D7A3"
  />
<missing-glyph horiz-adv-x="1000" 
d="M100 -100v800h800v-800h-800zM150 -50h700v700h-700v-700z" />
    <glyph glyph-name=".notdef" horiz-adv-x="1000" 
d="M100 -100v800h800v-800h-800zM150 -50h700v700h-700v-700z" />
    <glyph glyph-name="glyph1" horiz-adv-x="0" 
 />
    <glyph glyph-name="glyph2" horiz-adv-x="1000" 
 />
    <glyph glyph-name="space" unicode=" " horiz-adv-x="312" 
d="M0 -5z" />
    <glyph glyph-name="exclam" unicode="!" horiz-adv-x="389" 
d="M214 161h-80l54 494h106zM110 73h107l-16 -108h-107z" />
    <glyph glyph-name="quotedbl" unicode="&#x22;" horiz-adv-x="515" 
d="M135 745h96l-17 -255h-62zM285 745h96l-17 -255h-62z" />
    <glyph glyph-name="numbersign" unicode="#" horiz-adv-x="556" 
d="M127 173h-96v70h106l19 136h-97v70h107l28 206h70l-29 -206h125l28 206h70l-29 -206h96v-70h-106l-19 -136h96v-70h-106l-29 -208h-70l30 208h-125l-29 -208h-70zM350 379h-125l-19 -136h125z" />
    <glyph glyph-name="dollar" unicode="$" horiz-adv-x="556" 
d="M240 -45q-18 -3 -37 -2.5t-37 5.5q-20 3 -42.5 8.5t-47.5 14.5l10 80q12 -6 28.5 -11t37.5 -9q19 -6 41 -8.5t47 -2.5v260q-15 6 -29.5 13.5t-29.5 16.5q-15 7 -29 17t-26 22q-14 10 -24.5 23.5t-17.5 28.5q-9 15 -12.5 32.5t-3.5 38.5q0 39 12 70t37 55q24 22 54.5 37
t68.5 22v99h72v-96q17 -1 35 -2.5t37 -3.5q18 -3 35.5 -7.5t35.5 -10.5l-14 -80q-5 1 -9 2.5t-8 2.5t-7.5 2.5t-6.5 3.5q-8 2 -15.5 4t-14.5 5q-4 0 -8 0.5t-8 1.5t-8 1.5t-7 1.5q-9 0 -18 1t-19 1v-222q15 -8 30 -15.5t32 -16.5q15 -10 29.5 -21t28.5 -23
q12 -14 22.5 -28.5t19.5 -30.5q7 -17 11.5 -36.5t4.5 -40.5q0 -23 -3.5 -42.5t-9.5 -35.5q-8 -18 -17 -32t-21 -26q-12 -13 -26.5 -23t-29.5 -17q-17 -8 -35 -13.5t-36 -8.5v-101h-72v96zM398 152q0 18 -7 34t-19 30q-14 13 -29 24.5t-31 22.5v-221q17 6 32 16.5t29 24.5
q12 12 18.5 29.5t6.5 39.5zM160 491q0 -15 6 -28.5t18 -23.5q11 -12 25 -22t31 -19v186q-17 -6 -30.5 -14.5t-25.5 -18.5q-12 -12 -18 -27t-6 -33z" />
    <glyph glyph-name="percent" unicode="%" horiz-adv-x="899" 
d="M592 667h84l-420 -714h-84zM90 505q0 33 9 59t29 47q18 19 44.5 29t62.5 10q34 0 60.5 -10t46.5 -29q18 -21 28 -47t10 -59q0 -15 -3 -29.5t-7 -26.5q-6 -14 -13 -25.5t-16 -20.5q-10 -11 -21.5 -18.5t-23.5 -12.5q-14 -6 -29.5 -9t-31.5 -3q-18 0 -33 3t-28 9
q-14 5 -25 12.5t-20 18.5q-10 9 -17.5 20.5t-11.5 25.5q-6 12 -8 26.5t-2 29.5zM163 505q0 -8 0.5 -15.5t3.5 -14.5q1 -8 4 -14.5t8 -11.5q3 -6 8.5 -11t13.5 -8q6 -4 14.5 -5.5t19.5 -1.5q9 0 17.5 1.5t16.5 5.5q6 3 11.5 8t10.5 11q3 5 6 11.5t6 14.5q1 7 2.5 14.5
t1.5 15.5q0 15 -4.5 29.5t-12.5 27.5q-9 12 -23 18t-32 6q-19 0 -32.5 -6t-21.5 -18q-9 -13 -13.5 -27.5t-4.5 -29.5zM470 115q0 33 9 59t29 47q18 19 44.5 29t62.5 10q34 0 60.5 -10t46.5 -29q18 -21 28 -47t10 -59q0 -15 -3 -29.5t-7 -26.5q-6 -14 -13 -25.5t-16 -20.5
q-10 -11 -21.5 -18.5t-23.5 -12.5q-14 -6 -29.5 -9t-31.5 -3q-18 0 -33 3t-28 9q-14 5 -25 12.5t-20 18.5q-10 9 -17.5 20.5t-11.5 25.5q-6 12 -8 26.5t-2 29.5zM543 115q0 -8 0.5 -15.5t3.5 -14.5q1 -8 4 -14.5t8 -11.5q3 -6 8.5 -11t13.5 -8q6 -4 14.5 -5.5t19.5 -1.5
q9 0 17.5 1.5t16.5 5.5q6 3 11.5 8t10.5 11q3 5 6 11.5t6 14.5q1 7 2.5 14.5t1.5 15.5q0 15 -4.5 29.5t-12.5 27.5q-9 12 -23 18t-32 6q-19 0 -32.5 -6t-21.5 -18q-9 -13 -13.5 -27.5t-4.5 -29.5z" />
    <glyph glyph-name="ampersand" unicode="&#x26;" horiz-adv-x="722" 
d="M645 335q-3 -21 -6 -40t-6 -35q-5 -18 -9.5 -33.5t-9.5 -29.5q-3 -8 -6.5 -15l-6.5 -13q-3 -7 -6 -13l-6 -12q-7 -13 -14 -25t-13 -22q12 -17 25.5 -32.5t27.5 -30.5q12 -16 27 -33.5t33 -35.5h-107l-58 70q-20 -20 -42 -35t-46 -25q-26 -12 -54.5 -17t-59.5 -5
q-27 0 -50 3t-43 11q-21 6 -38.5 15.5t-30.5 23.5q-15 12 -26 27t-18 33q-9 17 -12.5 36.5t-3.5 42.5q0 37 11 68.5t34 55.5q22 24 51.5 43.5t65.5 34.5q-8 8 -15 17t-13 18q-8 9 -14 18t-11 20q-6 9 -10.5 19.5t-7.5 22.5q-4 10 -5.5 21.5t-1.5 24.5q0 20 3 38t11 34
q6 15 16 27t23 23q12 9 26 16.5t31 13.5q15 4 32.5 6.5t36.5 2.5q16 0 32.5 -2.5t32.5 -6.5q15 -6 28.5 -13t25.5 -16q11 -10 20 -22t17 -26q6 -15 9.5 -32t3.5 -36q0 -16 -3.5 -30.5t-9.5 -27.5q-8 -15 -17 -27.5t-19 -23.5q-12 -12 -25 -22t-26 -19q-15 -9 -29 -16.5
t-27 -13.5l148 -180q11 16 19.5 36t14.5 43q4 21 7.5 46.5t6.5 54.5h87zM174 151q0 -30 10 -53.5t31 -41.5q19 -19 46.5 -28t62.5 -9q12 0 23 1.5t23 5.5q10 3 20.5 7t19.5 10q9 4 16.5 10t14.5 13q6 6 11 12t10 13l-172 206q-6 -3 -11.5 -6.5t-10.5 -6.5t-10.5 -6t-9.5 -6
q-11 -8 -20.5 -15.5t-16.5 -15.5q-9 -9 -16 -19.5t-11 -20.5q-6 -12 -8 -24.5t-2 -25.5zM252 508q0 -9 1.5 -18t5.5 -16q3 -9 7 -17t10 -15q4 -9 10 -16.5t13 -13.5q6 -8 12 -14.5t12 -12.5q3 1 7.5 3t8.5 5q5 2 9.5 5t10.5 6q9 6 18.5 13t18.5 16q8 7 15.5 16t13.5 20
q5 9 8 20t3 23t-2 22.5t-5 19.5q-4 8 -8.5 15t-10.5 13q-7 5 -14.5 9t-14.5 7q-9 2 -18 3.5t-18 1.5q-18 0 -34.5 -6t-29.5 -18q-15 -12 -22 -30t-7 -41z" />
    <glyph glyph-name="quotesingle" unicode="'" horiz-adv-x="280" 
d="M93 745h94l-17 -255h-60z" />
    <glyph glyph-name="parenleft" unicode="(" horiz-adv-x="333" 
d="M230 -155q-18 25 -33.5 50.5t-29.5 52.5q-15 25 -27.5 52t-22.5 55q-12 27 -20 55.5t-14 58.5q-7 28 -10 58.5t-3 62.5q0 31 3 61.5t10 60.5q6 28 14 56.5t20 56.5q10 27 22.5 53.5t27.5 53.5q14 25 29.5 51t33.5 52h80q-15 -26 -29 -52t-27 -53q-14 -27 -26 -55t-22 -55
q-11 -29 -19 -57.5t-14 -56.5q-7 -30 -10 -59t-3 -57q0 -30 3 -59t10 -57q6 -30 14 -58.5t19 -55.5q9 -29 21 -56t26 -54q13 -27 27.5 -53.5t29.5 -51.5h-80z" />
    <glyph glyph-name="parenright" unicode=")" horiz-adv-x="333" 
d="M20 -155q15 25 29 51.5t28 53.5q13 27 25 54t23 56q9 27 17.5 55.5t15.5 58.5q6 28 9 57t3 59q0 28 -3 57t-9 59q-7 28 -15.5 56.5t-18.5 57.5q-11 27 -23 55t-25 55q-14 27 -28 53l-28 52h80l32 -52t31 -51q14 -27 26.5 -53.5t24.5 -53.5q10 -28 18.5 -56.5t15.5 -56.5
q6 -30 9 -60.5t3 -61.5q0 -32 -3 -62.5t-9 -58.5q-7 -30 -15.5 -58.5t-18.5 -55.5q-12 -28 -24.5 -55t-26.5 -52q-15 -27 -31 -52.5t-32 -50.5h-80z" />
    <glyph glyph-name="asterisk" unicode="*" horiz-adv-x="556" 
d="M278 434l-84 -139l-68 48l112 125l-162 32l26 78l153 -62l-17 161h85l-16 -162l148 63l25 -78l-159 -32l110 -126l-71 -47z" />
    <glyph glyph-name="plus" unicode="+" horiz-adv-x="600" 
d="M50 327h210v208h80v-208h210v-82h-210v-210h-80v210h-210v82z" />
    <glyph glyph-name="comma" unicode="," horiz-adv-x="250" 
d="M70 73h100l-90 -238h-70z" />
    <glyph glyph-name="hyphen" unicode="-" horiz-adv-x="550" 
d="M50 327h450v-82h-450v82z" />
    <glyph glyph-name="period" unicode="." horiz-adv-x="250" 
d="M154 -35h-104v104h104v-104z" />
    <glyph glyph-name="slash" unicode="/" horiz-adv-x="310" 
d="M240 675h70l-240 -710h-70z" />
    <glyph glyph-name="zero" unicode="0" horiz-adv-x="570" 
d="M40 310q0 28 3 58t9 62q5 30 14.5 59t24.5 56q13 26 32 48t43 40q23 16 53 25t66 9t66 -9t54 -25q23 -18 41.5 -40t33.5 -48q13 -27 23 -56t16 -59q5 -32 8 -62t3 -58q0 -29 -3 -59t-8 -60q-6 -32 -16 -61t-23 -55q-15 -27 -33.5 -49t-41.5 -38q-24 -18 -54 -26.5
t-66 -8.5t-66 8.5t-53 26.5q-24 16 -43 38t-32 49q-15 26 -24.5 55t-14.5 61q-6 30 -9 60t-3 59zM132 310q0 -17 1.5 -37t4.5 -44q2 -24 7.5 -47.5t14.5 -44.5q7 -23 19 -42t27 -34q15 -17 34.5 -24.5t44.5 -7.5q24 0 44 7.5t35 24.5q15 15 26.5 34t20.5 42q7 21 13 44.5
t9 47.5q2 24 3.5 44t1.5 37q0 5 -0.5 11t-0.5 12q0 7 -0.5 14t-0.5 15q-2 14 -4 29t-5 32q-4 15 -8.5 30.5t-9.5 30.5q-6 15 -13 28.5t-15 25.5q-9 12 -19 21.5t-22 17.5q-12 6 -26 10t-29 4q-17 0 -30.5 -4t-24.5 -10q-12 -8 -22.5 -17.5t-18.5 -21.5q-9 -12 -16 -25.5
t-12 -28.5q-6 -15 -10 -30.5t-7 -30.5q-4 -17 -6.5 -32t-2.5 -29q-2 -15 -2.5 -28.5t-0.5 -23.5z" />
    <glyph glyph-name="one" unicode="1" horiz-adv-x="520" 
d="M245 -35q1 24 2 49t1 51v490l-110 -100l-50 65l170 135h85q-2 -26 -2.5 -51t-0.5 -49v-490v-26v-24v-25.5t2 -24.5h-97z" />
    <glyph glyph-name="two" unicode="2" horiz-adv-x="525" 
d="M40 68q3 3 6.5 6t7.5 6q3 3 7 6.5t8 6.5q7 5 14.5 11t15.5 13q18 13 39 30.5t46 38.5q24 20 46.5 42.5t45.5 46.5q21 23 40 47.5t35 51.5q15 25 23 51t8 52q0 12 -3 23.5t-8 22.5q-6 10 -13.5 19t-16.5 17q-11 7 -22.5 13t-23.5 11q-14 3 -27.5 5.5t-28.5 2.5
q-20 0 -38 -2.5t-35 -5.5q-18 -5 -34 -9.5t-30 -10.5q-5 -2 -8 -3.5t-6 -2.5l-8 -6l-8 -6l-10 82q21 9 44.5 16.5t48.5 13.5q24 4 48.5 7t48.5 3q22 0 44 -3t43 -9q20 -7 38 -16t33 -21q15 -13 27 -28t21 -33q8 -19 12.5 -40.5t4.5 -45.5q0 -18 -3 -34.5t-9 -31.5
q-6 -17 -14 -33t-17 -31q-11 -16 -21.5 -31t-22.5 -29q-7 -8 -13.5 -15t-12.5 -14l-12 -14t-12 -13l-18 -18l-18 -18t-17.5 -18t-17.5 -18q-19 -18 -40 -36.5t-43 -36.5q-4 -3 -7 -5.5t-6 -5.5q-3 -2 -6 -4.5t-6 -4.5q-7 -6 -14 -11t-13 -8h273h20.5h19.5h18t22 2v-80
q-6 0 -11 0.5t-9 0.5q-5 0 -9.5 0.5t-7.5 0.5h-18.5h-19.5h-370v103z" />
    <glyph glyph-name="three" unicode="3" horiz-adv-x="520" 
d="M186 287q-7 0 -13 -0.5t-11 -0.5h-10.5h-7.5q-9 -1 -13.5 -1h-5.5v80q5 -1 11 -1h12q5 -1 16 -1h28q13 0 28 2t32 5q15 2 30 6.5t30 11.5q13 6 24.5 15t20.5 21q9 10 13.5 24t4.5 32q0 15 -3 28.5t-8 25.5q-6 10 -14 18.5t-17 15.5q-11 6 -22.5 10.5t-24.5 7.5
q-15 2 -29.5 3.5t-29.5 1.5q-24 0 -46.5 -3t-42.5 -7q-21 -6 -39.5 -12.5t-33.5 -13.5l-6 82q9 3 18.5 6t21.5 6q10 2 22 4t25 5q6 0 12 1l12 2l12 2t13 2q6 0 11.5 0.5t11.5 0.5t11.5 0.5t11.5 0.5q22 0 44 -3t43 -7q19 -6 37 -14.5t34 -18.5q15 -12 27 -26.5t21 -31.5
q9 -18 13.5 -39t4.5 -45q0 -17 -3 -31t-9 -26q-7 -13 -15.5 -23.5t-17.5 -19.5q-11 -10 -22 -17.5t-23 -13.5q-14 -7 -27 -12.5t-25 -9.5q-3 -2 -5 -2h-3q-2 -1 -3.5 -1.5t-2.5 -0.5h-2h-2q-2 -1 -3.5 -1.5t-2.5 -0.5h-2h-2l28 -4q34 -8 62 -22t49 -34q20 -21 30.5 -50
t10.5 -65q0 -29 -6 -52t-18 -41q-13 -20 -29.5 -35t-35.5 -26q-21 -12 -44 -19.5t-48 -11.5q-26 -6 -52 -8t-51 -2q-21 0 -41.5 2t-41.5 7q-22 3 -41 7.5t-34 9.5l7 86q13 -7 29.5 -13t37.5 -11q19 -6 40 -9t43 -3q18 0 36 1t36 4q17 2 32.5 6.5t29.5 12.5q13 6 23.5 15.5
t19.5 21.5q7 11 11.5 26t4.5 35q0 19 -4.5 35.5t-13.5 30.5q-9 12 -21 22.5t-25 19.5q-15 7 -30.5 12.5t-32.5 9.5q-18 3 -36 4.5t-34 1.5z" />
    <glyph glyph-name="four" unicode="4" horiz-adv-x="560" 
d="M20 123v80l290 452h142q-2 -14 -2 -26v-24v-25.5v-24.5v-356h30h14.5h15.5h14.5t15.5 2v-80h-6.5h-6.5q-4 0 -7.5 0.5t-6.5 1.5h-14.5h-8.5h-40v-58v-26t1 -24v-25t2 -25h-96q0 12 1 25t2 25v24v26v58h-340zM360 593q-1 -2 -1.5 -3.5t-1.5 -2.5q0 -2 -0.5 -3l-0.5 -1
q-1 -2 -2 -3t-1 -2q-1 -1 -1.5 -2l-0.5 -1q-15 -23 -29.5 -46t-28.5 -47q-15 -23 -29.5 -46.5t-28.5 -46.5q-15 -24 -29.5 -47t-28.5 -45q-13 -22 -26.5 -42.5t-25.5 -39.5l-7.5 -9l-2.5 -3q-2 0 -3.5 -1.5t-1.5 -2.5h250v394z" />
    <glyph glyph-name="five" unicode="5" horiz-adv-x="525" 
d="M80 655h300h21t23 1h19t17 2v-79q-6 0 -11 0.5t-9 0.5q-5 0 -9.5 0.5t-7.5 0.5h-18.5h-19.5h-220q0 -3 -0.5 -7t-0.5 -8v-8.5v-9.5q-2 -12 -2.5 -23t-0.5 -23q-1 -6 -1.5 -12t-0.5 -12v-10.5v-10.5q-2 -12 -2 -20v-14q-1 -11 -2 -17t-1 -8q-1 -2 -1.5 -3.5t-1.5 -2.5
q0 -2 -0.5 -3t-0.5 -2q7 1 18 3t26 5q13 1 27 2t29 1q24 0 47 -4.5t44 -11.5q21 -9 39 -20t34 -24q15 -15 27.5 -32t21.5 -36q8 -20 12.5 -41.5t4.5 -43.5q0 -29 -5.5 -54t-15.5 -46q-11 -22 -25 -40t-32 -32q-19 -15 -40.5 -26.5t-45.5 -18.5q-26 -8 -52.5 -11.5
t-53.5 -3.5t-51 1.5t-43 6.5q-21 3 -36.5 6.5t-24.5 7.5l5 87q15 -9 31.5 -15.5t34.5 -9.5q16 -5 36 -6.5t43 -1.5q18 0 35 1.5t34 6.5q16 3 30.5 9.5t28.5 15.5q12 8 22 19t18 25q7 12 11 28t4 36q0 21 -4 39t-10 33q-8 14 -17.5 26t-21.5 21q-14 9 -29 15t-31 11
q-18 3 -37 5.5t-38 2.5q-23 0 -42 -1.5t-34 -4.5q-17 -4 -32 -8.5t-27 -9.5z" />
    <glyph glyph-name="six" unicode="6" horiz-adv-x="540" 
d="M458 560q-15 6 -30.5 12t-32.5 11q-18 3 -35.5 5.5t-34.5 2.5q-25 0 -46 -5.5t-39 -15.5q-19 -12 -34 -26t-27 -32t-21 -39t-15 -44q-6 -24 -9.5 -49t-3.5 -50q18 18 37.5 31.5t40.5 21.5q19 7 40 11t43 4q24 0 46.5 -4.5t43.5 -11.5q19 -9 35.5 -20.5t31.5 -25.5
q13 -15 24 -32.5t19 -36.5q6 -21 10 -42.5t4 -43.5q0 -27 -4.5 -51t-13.5 -45t-21 -39t-27 -32q-16 -15 -34 -26.5t-38 -18.5q-21 -9 -43.5 -12.5t-46.5 -3.5q-36 0 -66 7.5t-52 22.5q-24 15 -42.5 34.5t-30.5 43.5q-14 23 -23 49.5t-13 56.5q-6 29 -8 58.5t-2 59.5
q0 34 3 69t10 70q6 33 17 64t28 58q15 27 37 48.5t49 39.5q27 16 60.5 24.5t75.5 8.5q4 0 8.5 -0.5t9.5 -0.5q4 0 9.5 -0.5t11.5 -0.5q5 -1 10.5 -2t10.5 -2q6 -1 11.5 -2t11.5 -1q5 -2 10 -3l10 -2l10 -2t10 -1q9 -3 15.5 -5.5t12.5 -3.5zM413 179q0 12 -2.5 24.5
t-5.5 26.5q-5 12 -11 23.5t-14 22.5q-9 9 -19.5 17.5t-22.5 15.5q-14 6 -29 9.5t-31 3.5q-17 0 -31 -3t-26 -8q-14 -6 -24.5 -14t-19.5 -17q-9 -11 -16 -22.5t-11 -23.5q-6 -14 -8 -27.5t-2 -27.5t2 -27t7 -25q3 -14 9.5 -26.5t15.5 -22.5q7 -12 17.5 -20.5t23.5 -14.5
q12 -8 25.5 -11t30.5 -3t32.5 3t29.5 10q12 6 23.5 14t20.5 19q9 10 15.5 22t11.5 26q4 13 6.5 27t2.5 29z" />
    <glyph glyph-name="seven" unicode="7" horiz-adv-x="520" 
d="M476 580l-266 -615h-100l273 616h-278h-20.5h-17.5q-5 0 -9.5 -0.5t-9.5 -0.5q-4 0 -9 -0.5t-9 -0.5v78q11 -2 21 -2h19h18h22h366v-75z" />
    <glyph glyph-name="eight" unicode="8" horiz-adv-x="551" 
d="M275 -47q-23 0 -44 3t-42 9t-40.5 15t-35.5 21q-18 12 -31.5 27t-22.5 33q-11 17 -16 37.5t-5 44.5q0 16 3 32t9 31q6 13 14 26t19 25q9 11 21 21.5t27 19.5q13 9 28 16.5t32 14.5q-20 7 -36.5 15.5t-28.5 19.5q-14 9 -24.5 19.5t-17.5 22.5q-9 10 -14 22t-8 25
q-4 12 -5.5 24t-1.5 26q0 16 3.5 32t12.5 31q7 14 18 27t26 25q14 10 32 19t39 17q20 6 43.5 9.5t50.5 3.5q25 0 47.5 -3.5t43.5 -9.5q19 -8 36 -17t32 -19q13 -12 23.5 -24t18.5 -25q6 -15 10 -29t4 -27q0 -30 -7.5 -54.5t-21.5 -44.5q-15 -21 -40 -42t-61 -40
q15 -6 30 -13t30 -15q13 -9 24.5 -19.5t22.5 -21.5q9 -12 17.5 -25t14.5 -27q5 -15 8 -31t3 -32q0 -27 -5 -49t-14 -40q-10 -19 -23 -34t-28 -26q-17 -12 -36.5 -21t-40.5 -14q-23 -6 -46 -8.5t-47 -2.5zM423 140q0 14 -2.5 26.5t-6.5 23.5q-6 10 -13 19t-15 17
q-9 7 -18.5 13.5t-19.5 12.5q-11 5 -21.5 10t-19.5 10q-6 2 -11.5 4.5t-11.5 5.5q-7 1 -13 4t-11 6q-3 -2 -5 -3.5t-4 -2.5q-2 -2 -4 -3l-4 -2q-3 -2 -5.5 -3.5t-4.5 -2.5q-2 -2 -4.5 -3t-3.5 -2q-9 -6 -17.5 -11.5t-16.5 -10.5q-9 -6 -16.5 -12.5t-13.5 -12.5
q-8 -8 -13.5 -15.5t-8.5 -16.5q-5 -9 -7 -19.5t-2 -22.5q0 -15 3 -28.5t11 -23.5q6 -12 15 -21.5t21 -16.5q10 -8 22.5 -13.5t27.5 -8.5q13 -5 26.5 -6.5t27.5 -1.5q12 0 25 1.5t26 5.5q12 3 22.5 8t21.5 13q9 6 17 14.5t14 19.5q6 10 9 22t4 27zM143 490q0 -19 9.5 -35.5
t30.5 -30.5q19 -15 47.5 -31.5t66.5 -33.5q15 11 27.5 21.5t23.5 19.5l17.5 17.5t14.5 17.5q6 7 10 15t7 17q1 7 2.5 15.5t1.5 17.5q0 12 -3.5 23t-9.5 20q-7 8 -15 15t-17 13q-10 5 -20.5 9t-21.5 7q-6 0 -12 1t-11 1q-5 1 -10 1.5t-9 0.5q-9 0 -19 -1.5t-20 -4.5
q-12 -3 -23 -7.5t-20 -10.5q-11 -7 -19 -15t-14 -17q-8 -10 -11 -21.5t-3 -23.5z" />
    <glyph glyph-name="nine" unicode="9" horiz-adv-x="556" 
d="M87 60q13 -8 29 -13.5t34 -8.5q17 -5 34.5 -7t35.5 -2q24 0 45.5 5t40.5 16q18 9 33 23t28 32q12 17 21 38t15 45t9 49.5t3 52.5q-20 -20 -39.5 -33t-38.5 -20q-21 -8 -41.5 -11.5t-41.5 -3.5q-26 0 -48 4t-41 13q-21 7 -38 19t-30 27q-15 14 -25.5 31t-16.5 38
q-8 19 -11.5 40t-3.5 45q0 27 4.5 51t13.5 45t21 39t28 33q15 14 33 25t39 20q20 7 42.5 11t46.5 4q37 0 68 -7.5t55 -20.5q22 -15 40 -34t32 -42q12 -24 20.5 -50.5t13.5 -55.5q3 -30 5.5 -61t2.5 -61q0 -36 -3.5 -71t-9.5 -68q-7 -35 -18.5 -65.5t-26.5 -57.5
q-17 -27 -38 -49t-48 -38q-27 -17 -61.5 -25t-74.5 -8q-9 0 -19 0.5t-20 2.5q-12 0 -22.5 1.5t-20.5 4.5q-12 1 -21.5 3.5t-18.5 5.5q-10 1 -17.5 3t-11.5 5zM132 441q0 -13 1.5 -25.5t6.5 -24.5q3 -14 9.5 -25.5t15.5 -20.5q8 -11 18.5 -19.5t23.5 -14.5q12 -7 27 -10
t33 -3q15 0 29.5 3t28.5 9q12 5 23 12.5t20 18.5q9 9 15.5 20t12.5 25q4 12 6.5 26t2.5 29q0 13 -2.5 27t-5.5 28q-5 13 -11.5 25t-13.5 23q-9 10 -19 18.5t-22 15.5q-13 6 -27.5 9.5t-29.5 3.5q-18 0 -33.5 -3.5t-27.5 -9.5q-14 -7 -25 -15.5t-20 -18.5q-9 -11 -16 -23
t-11 -25q-5 -14 -7 -28t-2 -27z" />
    <glyph glyph-name="colon" unicode=":" horiz-adv-x="280" 
d="M195 395h-110v110h110v-110zM85 145h110v-110h-110v110z" />
    <glyph glyph-name="semicolon" unicode=";" horiz-adv-x="275" 
d="M86 145h106l-85 -240h-82zM195 395h-110v110h110v-110z" />
    <glyph glyph-name="less" unicode="&#x3c;" horiz-adv-x="600" 
d="M550 425l-400 -175l400 -175v-80l-500 220v70l500 220v-80z" />
    <glyph glyph-name="equal" unicode="=" horiz-adv-x="600" 
d="M50 435h500v-82h-500v82zM50 217h500v-82h-500v82z" />
    <glyph glyph-name="greater" unicode="&#x3e;" horiz-adv-x="600" 
d="M50 505l500 -220v-70l-500 -220v80l400 175l-400 175v80z" />
    <glyph glyph-name="question" unicode="?" horiz-adv-x="500" 
d="M207 178q-2 12 -0.5 23.5t4.5 23.5q3 10 7 20t10 21q5 9 11.5 18.5t14.5 19.5q3 4 7 9l8 10l8 10t9 11q6 7 12 14.5t13 16.5q6 7 12 15t12 17q5 8 9.5 17t8.5 19q3 9 5 19t2 21q0 13 -3 24.5t-8 22.5q-6 9 -13.5 17t-16.5 15q-9 6 -19.5 11t-21.5 9q-12 3 -24 4.5
t-24 1.5q-24 0 -45 -3t-38 -9q-18 -6 -34 -13.5t-28 -15.5l-8 88q16 6 34 12t39 12q19 4 41.5 6.5t48.5 2.5q19 0 39 -3t40 -8q18 -6 35.5 -15t32.5 -19q14 -12 26 -26t21 -30q9 -18 13.5 -37.5t4.5 -40.5q0 -14 -2.5 -26.5t-5.5 -23.5q-5 -12 -9.5 -23t-10.5 -20
q-6 -11 -13 -20.5t-14 -18.5q-8 -10 -15.5 -19.5t-13.5 -18.5q-4 -5 -7 -8.5t-4 -5.5l-5 -5t-2 -3q-11 -14 -20.5 -27.5t-18.5 -28.5q-9 -16 -13.5 -32.5t-2.5 -33.5v-15h-88v18zM197 70h108v-107h-108v107z" />
    <glyph glyph-name="at" unicode="@" horiz-adv-x="800" 
d="M366 175q13 0 26.5 3.5t26.5 12.5q12 7 22 17.5t19 23.5q8 12 14.5 25.5t12.5 28.5q4 14 7 28t3 28q0 18 -6 33.5t-17 29.5q-12 12 -26.5 18.5t-30.5 6.5q-15 0 -29 -4t-26 -11q-14 -8 -24.5 -17.5t-19.5 -20.5q-9 -12 -16.5 -25.5t-11.5 -26.5q-6 -15 -8 -28.5t-2 -26.5
q0 -21 6 -38t18 -30q11 -14 26.5 -20.5t35.5 -6.5zM545 241q-1 -2 -1.5 -4t-1.5 -4t-1.5 -4.5t-0.5 -5.5q-2 -6 -2.5 -12t-0.5 -12t0.5 -11.5t3.5 -8.5q1 -5 5.5 -7t11.5 -2q10 0 21.5 3.5t23.5 12.5q11 7 21.5 17t20.5 24q9 12 16.5 27.5t13.5 33.5q5 16 8 34t3 38
q0 29 -5.5 55.5t-15.5 50.5q-12 22 -26.5 41.5t-32.5 36.5q-19 15 -40.5 27.5t-45.5 21.5q-26 7 -52 11.5t-53 4.5q-33 0 -62 -6t-55 -17q-27 -12 -50 -28.5t-41 -36.5q-20 -21 -35 -44.5t-25 -50.5q-11 -28 -16 -57.5t-5 -59.5q0 -36 5.5 -68t17.5 -59q11 -28 26.5 -51
t36.5 -41q19 -20 43 -34t52 -23q27 -11 56 -15.5t62 -4.5q30 0 60 6t60 20q28 12 52.5 28.5t45.5 37.5h70q-25 -38 -56.5 -66t-68.5 -47q-39 -20 -80.5 -29.5t-86.5 -9.5q-39 0 -75 6t-69 18q-34 12 -63.5 29t-53.5 41q-26 22 -45.5 50.5t-32.5 62.5q-15 33 -22 70.5
t-7 80.5q0 40 7 77t22 71q13 33 32.5 61t45.5 52q24 22 53 40t62 32q33 12 68 18.5t73 6.5q33 0 64.5 -5.5t61.5 -15.5q29 -11 55 -26t50 -34q22 -20 40.5 -43t32.5 -50q13 -27 20 -57t7 -63q0 -36 -6.5 -66.5t-18.5 -55.5q-14 -27 -29 -48.5t-33 -37.5q-18 -18 -37.5 -30.5
t-38.5 -19.5q-21 -9 -38.5 -13t-32.5 -4q-12 0 -21.5 3.5t-16.5 11.5q-9 6 -14 17.5t-6 26.5q-11 -12 -23 -22.5t-27 -18.5q-16 -9 -31 -13t-29 -4q-16 0 -30.5 3t-26.5 10q-14 6 -25.5 14t-20.5 19q-11 10 -18.5 22.5t-12.5 27.5q-6 13 -8.5 28t-2.5 32q0 22 3.5 45
t11.5 46q7 21 17.5 41t25.5 38q13 17 29.5 31t36.5 26q19 10 41 15.5t46 5.5q17 0 33 -4.5t31 -11.5q13 -9 26.5 -22.5t25.5 -31.5q2 6 4 12.5t4 14.5q0 3 1 6.5t2 7.5q0 4 1 7.5t2 7.5h70z" />
    <glyph glyph-name="A" unicode="A" horiz-adv-x="650" 
d="M478 141h-306l-62 -176h-95l250 690h120l250 -690h-95zM198 217h253l-115 328q-3 8 -5.5 15t-2.5 13q-2 4 -2.5 9t-0.5 11q-1 -3 -2 -7.5t-1 -11.5q-2 -8 -4 -15.5t-4 -13.5z" />
    <glyph glyph-name="B" unicode="B" horiz-adv-x="605" 
d="M82 -35q1 24 2 49t1 51v490v25v25l-2 24t-1 26h203q27 0 52.5 -2.5t49.5 -5.5q22 -5 42 -12t37 -16q16 -11 29 -24t22 -28q9 -17 13.5 -37.5t4.5 -44.5q0 -33 -6.5 -57.5t-18.5 -40.5q-13 -18 -32 -31t-43 -21q-5 -2 -10.5 -3t-11.5 -1q-4 -1 -7 -1.5t-6 -1.5
q-3 0 -5.5 -0.5t-4.5 -0.5q4 -1 9.5 -2t12.5 -1q3 -1 5.5 -1.5t5.5 -1.5t6 -1.5t6 -0.5q27 -9 50 -23t43 -35q18 -22 27.5 -50t9.5 -61q0 -27 -5 -49.5t-14 -40.5q-11 -18 -24.5 -32.5t-31.5 -24.5q-18 -11 -39.5 -18.5t-45.5 -10.5q-26 -5 -53 -7t-57 -2h-213zM175 41h140
q18 0 35 1t32 4q14 2 26.5 6.5t23.5 12.5q9 6 17 15t14 21q4 11 7 26t3 33t-4.5 33.5t-13.5 27.5q-10 12 -22 21t-25 17q-15 6 -31 11t-33 8q-18 2 -35.5 3.5t-33.5 1.5h-100v-242zM175 359h80q18 0 36 1t36 4q16 2 31.5 6.5t29.5 11.5q12 6 22.5 14.5t19.5 20.5q7 10 11 25
t4 33q0 16 -3 30t-9 25q-6 9 -14 17t-17 14q-11 5 -22 8.5t-23 6.5q-14 1 -27 2t-25 1h-130v-220z" />
    <glyph glyph-name="C" unicode="C" horiz-adv-x="600" 
d="M542 548q-33 19 -67 29t-70 10q-30 0 -57 -5.5t-51 -15.5q-25 -11 -46 -25.5t-37 -32.5q-18 -19 -31 -41t-22 -46q-10 -26 -14.5 -53.5t-4.5 -56.5q0 -32 4.5 -60t14.5 -53q9 -26 22 -48t31 -40q16 -19 37 -33.5t46 -23.5q24 -11 51 -15.5t57 -4.5q18 0 38.5 2t41.5 7
q20 4 37.5 11t32.5 16l5 -90q-20 -9 -40.5 -14.5t-41.5 -6.5q-23 -3 -42.5 -4t-35.5 -1q-40 0 -76 6t-67 19q-33 12 -61 30t-50 42q-24 22 -41.5 50.5t-29.5 61.5q-13 33 -19 70t-6 79q0 40 6 77t19 70q12 32 29.5 60t41.5 52q22 22 50 40t61 32q31 12 67 18.5t76 6.5
q21 0 40 -1.5t37 -4.5q17 -3 35 -9t38 -14z" />
    <glyph glyph-name="D" unicode="D" horiz-adv-x="695" 
d="M82 -35q1 24 2 49t1 51v490v25v25l-2 24t-1 26h203q39 0 75.5 -6t69.5 -17q33 -12 61.5 -29.5t52.5 -38.5q24 -23 42.5 -50t32.5 -58q12 -33 19 -68.5t7 -74.5q0 -44 -7 -81.5t-19 -69.5q-14 -33 -32 -60.5t-42 -48.5q-25 -23 -54.5 -39.5t-62.5 -26.5q-35 -12 -73 -17
t-80 -5h-193zM175 45h110q31 0 59.5 3.5t54.5 11.5q24 7 45 19t39 29q16 15 29.5 36t22.5 47q9 25 13.5 55.5t4.5 66.5q0 31 -4.5 59t-13.5 53q-10 24 -23.5 44t-29.5 38q-18 16 -38 29t-43 22q-24 8 -51 12.5t-55 4.5h-120v-530z" />
    <glyph glyph-name="E" unicode="E" horiz-adv-x="545" 
d="M175 45h240h20.5h19.5h18t22 2v-84q-6 0 -11 0.5t-9 0.5q-5 0 -9.5 0.5t-7.5 0.5h-18.5h-19.5h-338v4.5v5.5q0 2 0.5 5.5t1.5 7.5v12.5v14.5v13t1 15v11.5v10.5v490q0 24 -1 49t-2 51h333h19.5h17.5h16.5t21.5 2v-84q-8 0 -17 1t-19 1h-23h-21h-235v-212h215h19.5h17.5
h16.5t21.5 2v-84q-6 0 -11 0.5t-9 0.5q-5 0 -9.5 0.5t-7.5 0.5h-18.5h-19.5h-215v-238z" />
    <glyph glyph-name="F" unicode="F" horiz-adv-x="520" 
d="M85 555v25v25l-2 24t-1 26h323h19.5h17.5h16.5t21.5 2v-84q-11 0 -21 1t-19 1h-20h-20h-225v-212h210h19.5h17.5h16.5t21.5 2v-84q-6 0 -11 0.5t-9 0.5q-5 0 -9.5 0.5t-7.5 0.5h-18.5h-19.5h-210v-218v-26v-24v-25.5t2 -24.5h-95q1 24 2 49t1 51v490z" />
    <glyph glyph-name="G" unicode="G" horiz-adv-x="706" 
d="M602 539q-38 24 -84.5 36t-102.5 12q-32 0 -60 -5.5t-52 -15.5q-26 -11 -47.5 -25.5t-38.5 -32.5q-18 -19 -32 -41t-23 -46q-11 -26 -15.5 -53.5t-4.5 -56.5q0 -32 4.5 -60t15.5 -53q9 -26 23.5 -48t33.5 -40q18 -19 40 -33.5t48 -23.5q25 -11 53 -15.5t60 -4.5h26t31 2
q15 0 29 3t26 9v235h-77h-20.5h-17.5q-5 0 -9.5 -0.5t-9.5 -0.5q-4 0 -9 -0.5t-9 -0.5v82q11 -2 21 -2h19h18h22h164q-2 -14 -2 -26v-24v-25.5v-24.5v-277q-15 -6 -35.5 -11t-45.5 -9q-27 -6 -59.5 -8t-71.5 -2q-40 0 -76 6t-69 19q-33 12 -61.5 30t-52.5 42
q-24 22 -43 50.5t-31 61.5q-14 33 -20.5 70t-6.5 79q0 40 6.5 77t20.5 70q12 32 31 60t43 52q24 22 52.5 40t61.5 32q33 12 69 18.5t76 6.5q26 0 51 -2t49 -5q23 -5 48 -11.5t52 -15.5z" />
    <glyph glyph-name="H" unicode="H" horiz-adv-x="700" 
d="M615 65v-26v-24v-25.5t2 -24.5h-95q1 24 2 49t1 51v220h-350v-220v-26v-24v-25.5t2 -24.5h-95q1 24 2 49t1 51v490v25v25l-2 24t-1 26h95q-2 -14 -2 -26v-24v-25.5v-24.5v-190h350v190v25v25l-2 24t-1 26h95q-2 -14 -2 -26v-24v-25.5v-24.5v-490z" />
    <glyph glyph-name="I" unicode="I" horiz-adv-x="270" 
d="M181 65v-26v-24v-25.5t2 -24.5h-97q1 24 2 49t1 51v490v25v25l-2 24t-1 26h97q-2 -14 -2 -26v-24v-25.5v-24.5v-490z" />
    <glyph glyph-name="J" unicode="J" horiz-adv-x="365" 
d="M285 143q0 -19 -2.5 -37t-6.5 -34q-6 -18 -14 -33t-18 -27q-12 -14 -27.5 -25t-33.5 -18q-20 -9 -44 -12.5t-52 -3.5q-12 0 -22.5 0.5t-19.5 3.5q-11 1 -19.5 3t-15.5 5v78q15 -6 30 -8t30 -2q35 0 59.5 8t38.5 26q13 16 20 43t7 65v380v25v25l-2 24t-1 26h95
q-2 -14 -2 -26v-24v-25.5v-24.5v-412z" />
    <glyph glyph-name="K" unicode="K" horiz-adv-x="630" 
d="M480 655h115l-319 -325l349 -365h-120l-330 352v-303v-24.5t2 -24.5h-95q1 24 2 49t1 51v490v25v25l-2 24t-1 26h95q-2 -14 -2 -26.5v-24.5v-262z" />
    <glyph glyph-name="L" unicode="L" horiz-adv-x="495" 
d="M400 45h20.5h19.5h18t22 2v-84q-6 0 -11 0.5t-9 0.5q-5 0 -9.5 0.5t-7.5 0.5h-18.5h-19.5h-323q1 24 2 49t1 51v490v25v25l-2 24t-1 26h95q-2 -14 -2 -26v-24v-25.5v-24.5v-510h225z" />
    <glyph glyph-name="M" unicode="M" horiz-adv-x="870" 
d="M428 99l10 -44q0 3 1.5 8.5t3.5 13.5q0 7 1 12.5t3 9.5q79 241 125.5 380t60.5 176h154q-2 -14 -2 -26.5v-24.5v-590v-24.5t2 -24.5h-95q1 24 2 49t1 51v530l-7 -30l-203 -600h-97l-206 600l-7 30v-581v-24.5t2 -24.5h-95q1 24 2 49t1 51v490v25v25l-2 24t-1 26h156z" />
    <glyph glyph-name="N" unicode="N" horiz-adv-x="700" 
d="M182 540q-2 1 -3 4.5t-1 8.5q-2 3 -2.5 6t-0.5 5v-499v-26v-24v-25.5t2 -24.5h-95q1 24 2 49t1 51v490v25v25l-2 24t-1 26h133l295 -550q0 -1 0.5 -2t1.5 -2q0 -1 1 -2.5t2 -2.5q0 -2 0.5 -3.5t1.5 -2.5q1 -2 1.5 -3.5t1.5 -2.5q0 -2 0.5 -4t1.5 -4t1.5 -3.5t1.5 -2.5
v485v25v25l-2 24t-1 26h95q-2 -14 -2 -26v-24v-25.5v-24.5v-539v-13t1 -12v-13t1 -13h-122z" />
    <glyph glyph-name="O" unicode="O" horiz-adv-x="700" 
d="M142 310q0 -27 2.5 -53t8.5 -50q4 -26 13 -48t21 -40q12 -20 27.5 -35.5t36.5 -26.5q19 -12 44 -18t55 -6q29 0 53.5 6t45.5 18q19 11 35.5 26.5t28.5 35.5q12 18 20.5 40t14.5 48q4 24 7 50t3 53t-3 53t-8 52q-6 24 -15 46t-21 42q-13 18 -29 33.5t-35 27.5
q-21 11 -45 17t-52 6q-29 0 -53 -6t-43 -17q-21 -12 -37 -27.5t-28 -33.5q-13 -20 -22 -42t-14 -46q-6 -26 -8.5 -52t-2.5 -53zM50 310q0 40 5 77t17 70q10 32 25 60t35 52q19 23 42.5 41t52.5 32q27 12 57.5 18.5t65.5 6.5q33 0 64 -6.5t60 -18.5q27 -14 50.5 -32t43.5 -41
q19 -24 34 -52t27 -60q10 -33 15.5 -70t5.5 -77q0 -42 -5.5 -79t-15.5 -70q-12 -33 -27 -61.5t-34 -50.5q-20 -24 -43.5 -41.5t-50.5 -29.5q-29 -13 -60 -19t-64 -6q-35 0 -65.5 6t-57.5 19q-29 12 -52.5 29.5t-42.5 41.5q-20 22 -35 50.5t-25 61.5q-12 33 -17 70t-5 79z
" />
    <glyph glyph-name="P" unicode="P" horiz-adv-x="570" 
d="M85 555v25v25l-2 24t-1 26h198q25 0 50.5 -2.5t50.5 -6.5q24 -6 45.5 -14t41.5 -19q18 -12 33 -28t27 -35q10 -21 16 -45.5t6 -54.5t-6 -54t-17 -43q-12 -21 -26.5 -36.5t-32.5 -27.5q-19 -12 -39.5 -21t-42.5 -13q-24 -6 -46.5 -8t-44.5 -2h-120v-180v-26v-24v-25.5
t2 -24.5h-95q1 24 2 49t1 51v490zM175 323h130q12 0 25.5 1.5t28.5 5.5q13 3 25 8t24 13q10 7 19 17t17 22q6 12 10 27t4 33t-4.5 33.5t-11.5 28.5q-9 12 -19.5 21.5t-22.5 17.5q-13 6 -26.5 11.5t-27.5 8.5q-15 3 -29.5 4.5t-26.5 1.5h-115v-254z" />
    <glyph glyph-name="Q" unicode="Q" horiz-adv-x="700" 
d="M50 310q0 40 5 77t17 70q10 32 25 60t35 52q19 23 42.5 41t52.5 32q27 12 57.5 18.5t65.5 6.5q33 0 64 -6.5t60 -18.5q27 -14 50.5 -32t43.5 -41q19 -24 34 -52t27 -60q10 -33 15.5 -70t5.5 -77q0 -50 -7.5 -92.5t-21.5 -78.5q-15 -38 -35.5 -68t-47.5 -52l97 -124h-105
l-63 80q-28 -12 -57.5 -17t-59.5 -5q-35 0 -65.5 6t-57.5 19q-29 12 -52.5 29.5t-42.5 41.5q-20 22 -35 50.5t-25 61.5q-12 33 -17 70t-5 79zM415 175l71 -91q19 19 33 44t23 56q7 30 11.5 61.5t4.5 64.5q0 27 -3 53t-8 52q-6 24 -15 46t-21 42q-13 18 -29 33.5t-35 27.5
q-21 11 -45 17t-52 6q-29 0 -53 -6t-43 -17q-21 -12 -37 -27.5t-28 -33.5q-13 -20 -22 -42t-14 -46q-6 -26 -8.5 -52t-2.5 -53t2.5 -53t8.5 -50q4 -26 13 -48t21 -40q12 -20 27.5 -35.5t36.5 -26.5q19 -12 44 -18t55 -6q16 0 32.5 1.5t31.5 6.5l-104 134h105z" />
    <glyph glyph-name="R" unicode="R" horiz-adv-x="611" 
d="M85 555v25v25l-2 24t-1 26h188q25 0 50.5 -1.5t50.5 -4.5q24 -4 45.5 -10.5t41.5 -15.5q18 -11 33 -24.5t27 -30.5q10 -18 16 -42t6 -53q0 -20 -3 -37t-9 -30q-7 -15 -15.5 -26.5t-18.5 -20.5q-11 -11 -23.5 -18.5t-25.5 -12.5q-15 -6 -30.5 -10.5t-30.5 -6.5
q13 -6 24.5 -12.5t22.5 -13.5q9 -9 18 -20t18 -25q15 -35 31 -69.5t31 -67.5q14 -35 29 -69.5t32 -68.5h-105l-103 240q-6 12 -12.5 21.5t-12.5 17.5q-7 6 -14 11.5t-13 9.5q-8 3 -16 5l-16 4h-9.5h-9.5q-4 0 -9 0.5t-10 0.5h-85v-210v-26v-24v-25.5t2 -24.5h-95q1 24 2 49
t1 51v490zM175 355h115q16 0 32 1.5t31 6.5q14 3 26.5 8.5t23.5 13.5q10 7 18.5 16t14.5 21q6 10 9 23t3 28q0 25 -9 44.5t-27 33.5q-19 12 -47 19t-65 7h-125v-222z" />
    <glyph glyph-name="S" unicode="S" horiz-adv-x="510" 
d="M425 558q-10 3 -19 6t-16 6q-9 2 -17.5 4t-15.5 5q-9 1 -17.5 2.5t-16.5 3.5q-9 0 -18.5 1t-19.5 1q-6 0 -12.5 -0.5t-12.5 -1.5q-6 0 -12 -1t-12 -1q-14 -3 -26 -7t-22 -9q-12 -6 -21 -13t-15 -16q-8 -10 -11.5 -22t-3.5 -25q0 -12 3 -22t10 -19q6 -9 14.5 -17.5
t19.5 -15.5q9 -8 20.5 -14.5t24.5 -12.5l24 -12t24 -11q7 -4 15.5 -8t16.5 -8t16.5 -8t17.5 -8q16 -9 32 -19t31 -22q13 -12 25 -26.5t21 -30.5q9 -17 13.5 -37t4.5 -42q0 -28 -6 -51.5t-16 -42.5q-12 -20 -27.5 -35.5t-33.5 -27.5q-20 -13 -41.5 -22t-45.5 -14
q-26 -6 -52 -9t-53 -3q-20 0 -39 2t-37 8q-20 4 -39 9t-37 11l12 85q13 -6 31 -11t39 -11q20 -7 41 -10t42 -3q13 0 27.5 1.5t29.5 4.5t28.5 7.5t26.5 12.5q12 6 22.5 15.5t19.5 21.5q7 10 11.5 24t4.5 32q0 13 -4 25t-10 23q-8 10 -17.5 19.5t-20.5 18.5q-12 7 -25 14.5
t-26 15.5q-8 3 -15 6t-13 6q-7 3 -14 6.5l-13 6.5q-15 6 -30 13.5t-30 16.5q-16 8 -30 18t-26 22q-14 10 -24.5 23.5t-17.5 28.5q-9 14 -13 30.5t-4 36.5q0 22 4.5 42t14.5 38q9 17 21 31.5t29 26.5q15 11 34 20t41 15q21 6 44 9t48 3q18 0 37.5 -1.5t41.5 -4.5
q21 -3 41 -7.5t39 -10.5z" />
    <glyph glyph-name="T" unicode="T" horiz-adv-x="571" 
d="M331 575v-510v-26t1 -24v-25t2 -25h-99q1 9 2 20.5t2 26.5v26v27v510h-144h-20.5h-17.5q-5 0 -9.5 -0.5t-9.5 -0.5q-4 0 -9 -0.5t-9 -0.5v84q11 -2 21 -2h19h18h22h370h20.5h19.5h18t22 2v-84q-6 0 -11 0.5t-9 0.5q-5 0 -9.5 0.5t-7.5 0.5h-18.5h-19.5h-144z" />
    <glyph glyph-name="U" unicode="U" horiz-adv-x="694" 
d="M170 265q0 -29 2 -53.5t7 -45.5q3 -23 10 -41t18 -32q9 -15 22.5 -26.5t31.5 -18.5q16 -8 37 -11.5t47 -3.5q25 0 46 3.5t39 11.5q16 7 29 18.5t24 26.5q9 14 16.5 32t12.5 41q3 21 5.5 45.5t2.5 53.5v290v25v25l-2 24t-1 26h95q-2 -14 -2 -26v-24v-25.5v-24.5v-305
q0 -74 -17.5 -129.5t-50.5 -92.5q-35 -38 -84 -56.5t-113 -18.5q-65 0 -114.5 18.5t-82.5 56.5q-35 37 -51.5 92.5t-16.5 129.5v305v25v25l-2 24t-1 26h95q-2 -14 -2 -26v-24v-25.5v-24.5v-290z" />
    <glyph glyph-name="V" unicode="V" horiz-adv-x="630" 
d="M517 655h98l-238 -690h-124l-238 690h100l190 -580q1 -5 2 -9l2 -8l2 -6t2 -5q0 -6 1 -11.5t2 -10.5q0 5 0.5 10.5t2.5 11.5q0 4 2.5 11.5l5.5 16.5z" />
    <glyph glyph-name="W" unicode="W" horiz-adv-x="890" 
d="M595 75q0 -4 1 -7.5t2 -7.5l2 -6l2 -6q0 -6 1 -12t3 -11q0 4 0.5 7.5t1.5 6.5q1 4 1.5 6.5t1.5 5.5q0 3 1.5 9t4.5 15l158 580h100l-200 -690h-130l-101 329l-99 -329h-130l-200 690h100l158 -580q0 -3 1 -5.5t2 -5.5q0 -3 1 -6.5t3 -7.5q0 -5 0.5 -9t1.5 -7
q0 -3 0.5 -5.5t1.5 -3.5q0 5 1 10.5t3 11.5q0 4 2 11.5t5 16.5l103 370l-63 210h98z" />
    <glyph glyph-name="X" unicode="X" horiz-adv-x="630" 
d="M252 325l-216 330h107l172 -266l175 266h104l-224 -330l240 -360h-108l-192 290l-186 -290h-104z" />
    <glyph glyph-name="Y" unicode="Y" horiz-adv-x="630" 
d="M269 255q-28 43 -52.5 82.5t-46.5 73.5q-22 35 -40.5 64.5t-33.5 54.5q-17 24 -30 44t-23 36t-17 27t-11 18h105l185 -298q1 -3 3 -6t5 -6q0 -3 1 -5t1 -4q1 -2 1.5 -3.5t0.5 -2.5q0 3 0.5 6.5t2.5 7.5q1 3 3 6t5 7l182 298h105l-254 -400v-190v-26t1 -24v-25t2 -25h-98
q0 12 1 25t2 25v24v26v190z" />
    <glyph glyph-name="Z" unicode="Z" horiz-adv-x="540" 
d="M163 75q-3 -5 -5.5 -8t-4.5 -6q-3 -4 -6.5 -8t-6.5 -8h290h20.5h19.5h18t22 2v-84q-6 0 -11 0.5t-9 0.5q-5 0 -9.5 0.5t-7.5 0.5h-18.5h-19.5h-325h-21h-19q-11 0 -21 -1t-19 -1v72l344 520q1 3 4 7t7 8l5 5h-265h-20.5h-17.5q-5 0 -9.5 -0.5t-9.5 -0.5q-4 0 -9 -0.5
t-9 -0.5v84q11 -2 21 -2h19h18h22h290h20.5h19.5h18t22 2v-72z" />
    <glyph glyph-name="bracketleft" unicode="[" horiz-adv-x="332" 
d="M100 735h184v-64h-102v-762h102v-64h-184v890z" />
    <glyph glyph-name="backslash" unicode="\" horiz-adv-x="1000" 
d="M859 347l-104 -372h-125l-82 372h-97l-81 -372h-125l-105 372h-35h-20.5h-17.5q-5 0 -9.5 -0.5t-9.5 -0.5q-4 0 -9 -0.5t-9 -0.5v60q11 -2 21 -2h19h18h22h14l-64 230h98l60 -230h166l51 230h131l50 -230h168l60 230h96l-65 -230h15h20.5h19.5h18t22 2v-60q-6 0 -11 0.5
t-9 0.5q-5 0 -9.5 0.5t-7.5 0.5h-18.5h-19.5h-36zM692 50l77 297h-141l61 -279zM312 68l60 279h-140l78 -297zM463 403h73l-32 148l-4 19l-4 -19z" />
    <glyph glyph-name="bracketright" unicode="]" horiz-adv-x="330" 
d="M232 -155h-184v64h102v762h-102v64h184v-890z" />
    <glyph glyph-name="asciicircum" unicode="^" horiz-adv-x="600" 
d="M261 677h78l195 -398h-82l-152 318l-152 -318h-82z" />
    <glyph glyph-name="underscore" unicode="_" horiz-adv-x="500" 
d="M5 -95h490v-45h-490v45z" />
    <glyph glyph-name="grave" unicode="`" horiz-adv-x="278" 
d="M200 575h-60l-125 140h100z" />
    <glyph glyph-name="a" unicode="a" horiz-adv-x="550" 
d="M93 430q17 11 38 20t46 17q24 6 48 10t48 4q55 0 95.5 -13.5t64.5 -38.5q23 -27 35 -66t12 -90v-223v-24t1 -24q0 -13 0.5 -22t2.5 -15h-83l-2 70q-5 -7 -11.5 -14t-13.5 -13q-9 -8 -18 -14.5t-19 -12.5q-11 -6 -23 -11.5t-24 -8.5q-14 -5 -27.5 -6.5t-28.5 -1.5
q-22 0 -41.5 2t-36.5 7q-18 4 -32.5 11t-26.5 17q-13 9 -22.5 21.5t-15.5 27.5q-8 14 -11 31.5t-3 38.5q0 23 6 42.5t18 36.5q12 15 27 27.5t33 23.5q18 9 37.5 15.5t40.5 11.5q20 3 39.5 5.5t37.5 2.5l108 -2q-2 33 -9.5 58.5t-21.5 44.5q-15 18 -40.5 27t-61.5 9
q-20 0 -40.5 -4.5t-42.5 -11.5q-24 -9 -43.5 -18.5t-34.5 -21.5zM392 208q-8 0 -16.5 0.5t-17.5 1.5h-18.5h-15.5q-6 0 -11.5 -0.5t-12.5 -0.5q-6 0 -13 -0.5t-14 -0.5q-17 -2 -32 -5.5t-30 -7.5q-15 -6 -28.5 -13.5t-23.5 -16.5q-12 -11 -17 -25t-5 -31q0 -11 2 -20.5
t8 -16.5q4 -9 10.5 -15.5t14.5 -11.5q7 -6 15.5 -10t17.5 -6q9 -3 17.5 -4.5t17.5 -1.5q36 0 63.5 9.5t48.5 30.5q19 19 29.5 43t10.5 54v48z" />
    <glyph glyph-name="b" unicode="b" horiz-adv-x="611" 
d="M77 -35q1 24 2 49t1 51v544v25v25l-2 24t-1 26h93q-2 -14 -2 -26v-24v-25.5v-24.5v-219q1 4 3 8.5t5 7.5q12 15 29 28.5t38 25.5q20 10 44.5 15.5t54.5 5.5q27 0 51 -5.5t45 -15.5q20 -11 37 -25t31 -31q13 -18 23 -38.5t18 -42.5q6 -24 9.5 -48.5t3.5 -49.5
q0 -27 -3 -52t-9 -49q-7 -25 -17 -47t-22 -40q-14 -20 -30.5 -35t-36.5 -26q-21 -12 -46 -17.5t-53 -5.5q-30 0 -55.5 6t-46.5 18t-37.5 24.5t-28.5 26.5q-3 1 -5 5.5t-4 11.5v-20v-11.5v-7.5v-7v-5v-5.5t1 -5.5v-7.5t1 -10.5h-91zM468 219q0 18 -2.5 35.5t-5.5 35.5
q-5 16 -11 31.5t-14 29.5q-9 13 -20.5 24t-24.5 20q-15 7 -31.5 11.5t-34.5 4.5q-20 0 -36.5 -4.5t-29.5 -11.5q-15 -9 -27 -20t-21 -24q-11 -15 -18.5 -30.5t-11.5 -32.5q-6 -18 -8 -35.5t-2 -35.5q0 -17 2 -34t7 -33q3 -18 10 -33.5t17 -28.5q9 -15 21 -26.5t27 -20.5
q14 -9 31.5 -13.5t38.5 -4.5q18 0 34.5 4t31.5 13q13 8 24.5 19t20.5 26q8 13 14 29t11 34q3 17 5.5 35t2.5 36z" />
    <glyph glyph-name="c" unicode="c" horiz-adv-x="480" 
d="M430 389q-13 5 -26 9.5t-25 7.5q-14 2 -27.5 3.5t-25.5 1.5q-23 0 -43 -4.5t-36 -11.5q-18 -9 -32.5 -19.5t-25.5 -22.5q-12 -14 -20.5 -29.5t-14.5 -32.5q-6 -18 -9 -36.5t-3 -37.5q0 -20 3 -38t9 -35q5 -18 14 -33.5t21 -28.5q11 -14 26 -25t33 -18q17 -9 37.5 -12.5
t44.5 -3.5q11 0 24.5 1.5t30.5 5.5q15 3 29 8t26 13l10 -76q-17 -8 -33.5 -12.5t-34.5 -5.5q-18 -3 -34 -3.5t-28 -0.5q-30 0 -57 4.5t-51 15.5q-26 9 -47 23t-39 32q-18 17 -32.5 38t-23.5 46q-11 24 -15.5 50t-4.5 55t4.5 56t15.5 52q9 24 23 45t32 39q18 16 39 29.5
t47 23.5q24 9 51.5 14t57.5 5q16 0 33 -1.5t34 -4.5q16 -3 29 -7t24 -7z" />
    <glyph glyph-name="d" unicode="d" horiz-adv-x="611" 
d="M442 -35q0 6 0.5 10.5t1.5 7.5v5.5v5.5v5v7v7.5v11.5v20q-3 -7 -5.5 -11.5t-3.5 -5.5q-12 -14 -28.5 -26.5t-37.5 -24.5t-46.5 -18t-55.5 -6t-54.5 5t-44.5 17q-21 10 -38 25t-29 35q-14 18 -23.5 39.5t-15.5 47.5q-6 24 -9 50t-3 53q0 25 3 49.5t11 48.5q6 22 16 42.5
t24 38.5q13 17 30 31t38 25q20 10 44 15.5t52 5.5t53 -5.5t46 -15.5q20 -12 36.5 -25.5t30.5 -28.5q2 -3 4 -7.5t4 -8.5v219v24.5v25.5q0 6 -0.5 12t-0.5 12t-0.5 12.5t-0.5 13.5h93q-2 -14 -2 -26v-24q-1 -12 -1 -25v-25v-544q0 -26 0.5 -51t2.5 -49h-91zM142 219
q0 -20 1.5 -38t6.5 -35q3 -18 9.5 -34t15.5 -29q8 -14 19 -25t26 -18q13 -9 29.5 -13t36.5 -4t37.5 4.5t32.5 13.5q14 9 26 20.5t22 26.5q9 13 16 28.5t12 33.5q3 16 5.5 33t2.5 34q0 18 -3 35.5t-7 35.5q-6 17 -13 32.5t-16 30.5q-11 13 -23 24t-26 20q-15 7 -31.5 11.5
t-34.5 4.5q-20 0 -36 -4.5t-29 -11.5q-15 -9 -26 -20t-19 -24q-9 -14 -16 -29.5t-10 -31.5q-5 -18 -6.5 -35.5t-1.5 -35.5z" />
    <glyph glyph-name="e" unicode="e" horiz-adv-x="571" 
d="M484 -13q-3 -2 -6 -3t-6 -1l-4 -2t-3 -1l-3 -1.5t-2 -0.5q-8 -3 -14.5 -5.5t-12.5 -3.5q-8 -3 -15.5 -5.5t-15.5 -3.5q-9 -2 -18.5 -3.5t-19.5 -1.5q-11 -2 -23 -2h-25q-34 0 -63.5 4.5t-53.5 15.5q-26 9 -46.5 23t-36.5 32q-17 18 -29.5 39t-19.5 47q-9 24 -13 52t-4 60
q0 27 4.5 53t13.5 50q8 23 20 43t29 38q15 16 34.5 29t42.5 23q21 9 46 14t52 5q31 0 57.5 -5.5t49.5 -15.5q21 -12 38.5 -26.5t31.5 -32.5q13 -20 23 -42.5t16 -47.5q6 -27 9 -54.5t3 -57.5h-377q0 -21 3.5 -39t11.5 -33q7 -17 17 -31t23 -25q12 -12 26 -20.5t31 -14.5
q15 -7 31.5 -10t33.5 -3q26 0 49 3.5t43 11.5q19 6 35 15t29 20zM428 263q0 14 -3 28t-7 28q-6 13 -12.5 25t-15.5 23q-10 9 -21 17.5t-23 14.5q-14 6 -27.5 9t-28.5 3q-18 0 -33.5 -3.5t-28.5 -9.5q-14 -8 -25.5 -16.5t-20.5 -18.5q-10 -11 -17.5 -23t-11.5 -24
q-6 -14 -8.5 -27.5t-2.5 -25.5h286z" />
    <glyph glyph-name="f" unicode="f" horiz-adv-x="395" 
d="M100 399h-20.5h-17.5q-5 0 -9.5 -0.5t-9.5 -0.5q-4 0 -9 -0.5t-9 -0.5v74q11 -2 21 -2h19h18h22h40v51q0 22 1.5 43t5.5 40q3 18 9.5 33.5t16.5 29.5q9 12 21.5 21.5t29.5 17.5q15 6 36 10t48 4q4 0 8 -0.5t8 -0.5h8h9q7 -2 14 -3t15 -1l-5 -71q-5 0 -9.5 1t-9.5 3
q-6 0 -12 1t-12 1q-17 0 -29.5 -2.5t-21.5 -5.5q-10 -5 -17 -11.5t-11 -13.5q-6 -9 -9 -18.5t-3 -19.5q-2 -12 -2.5 -24.5t-0.5 -25.5v-59h57h20.5h19.5h18t22 2v-74q-6 0 -11 0.5t-9 0.5q-5 0 -9.5 0.5t-7.5 0.5h-18.5h-19.5h-62v-334v-26v-24v-25.5t2 -24.5h-93
q0 12 1 24.5t2 25.5v24v26v334h-45z" />
    <glyph glyph-name="g" unicode="g" horiz-adv-x="606" 
d="M530 31q0 -56 -16.5 -98t-48.5 -70q-33 -30 -82 -44t-115 -14h-20.5t-18.5 1q-11 0 -21 1t-20 4q-11 1 -22 4t-23 7q-13 3 -26.5 7t-28.5 10l10 79q12 -6 23.5 -11t23.5 -8q10 -5 21 -8.5t22 -5.5q10 -3 20.5 -5t22.5 -2q10 -2 22 -2.5t26 -0.5q37 0 66.5 10.5t52.5 31.5
q21 21 32.5 51.5t11.5 72.5v56q-2 -3 -3 -5.5t-2 -4.5q-1 -3 -2 -4.5t-1 -2.5q-14 -17 -30.5 -30t-36.5 -23q-21 -12 -46 -17t-53 -5q-27 0 -50 4.5t-42 13.5q-21 9 -38.5 21t-30.5 29q-15 15 -25.5 33.5t-16.5 39.5q-8 21 -11.5 43t-3.5 46q0 25 3.5 49.5t11.5 47.5
q6 22 16.5 41.5t25.5 36.5q13 16 30.5 29t38.5 23q19 9 42 14t50 5q18 0 34 -1.5t30 -4.5q12 -4 23.5 -8.5t21.5 -9.5q9 -6 17 -12l16 -12q6 -8 12.5 -14.5l12.5 -12.5q2 -3 4.5 -8l5.5 -11l-1 22q-1 4 -1 11t1 16q0 8 -1 16t-1 17h91q-2 -26 -2.5 -51t-0.5 -49v-338z
M142 240q0 -36 9 -66t28 -52q18 -24 45.5 -35.5t65.5 -11.5q37 0 65 11t48 35q18 22 27.5 52t9.5 67q0 16 -2.5 32t-6.5 32q-6 15 -12.5 28.5t-15.5 25.5q-10 12 -22 21.5t-25 17.5q-15 6 -31.5 10t-34.5 4q-20 0 -36.5 -3.5t-29.5 -9.5q-15 -7 -26 -16t-20 -20
q-9 -12 -16 -26t-11 -29q-5 -16 -7 -32.5t-2 -34.5z" />
    <glyph glyph-name="h" unicode="h" horiz-adv-x="600" 
d="M168 385q1 4 2.5 8.5t3.5 7.5q0 2 1.5 4.5t4.5 5.5q24 34 63.5 52t93.5 18q48 0 84 -14.5t59 -42.5q22 -29 33.5 -68.5t11.5 -90.5v-200v-26v-24v-25.5t2 -24.5h-93q1 24 2 49t1 51v161q0 46 -6 80t-18 57q-12 21 -34.5 33t-53.5 15q-20 0 -36.5 -4t-30.5 -11
q-15 -9 -27.5 -20t-21.5 -24q-11 -15 -18.5 -32t-11.5 -36q-6 -20 -8.5 -41.5t-2.5 -44.5v-133v-26v-24v-25.5t2 -24.5h-93q1 24 2 49t1 51v544v25v25l-2 24t-1 26h93q-2 -14 -2 -26v-24v-25.5v-24.5v-224z" />
    <glyph glyph-name="i" unicode="i" horiz-adv-x="260" 
d="M181 579h-102v102h102v-102zM175 65v-26v-24v-25.5t2 -24.5h-95q1 24 2 49t1 51v304v25v25l-2 24t-1 26h95q-2 -14 -2 -26v-24v-25.5v-24.5v-304z" />
    <glyph glyph-name="j" unicode="j" horiz-adv-x="248" 
d="M173 15q0 -8 -0.5 -15.5t-0.5 -14.5q0 -8 -0.5 -16.5t-0.5 -16.5q-2 -18 -6.5 -34.5t-10.5 -31.5q-8 -15 -18.5 -28t-24.5 -22q-15 -11 -35.5 -16t-45.5 -5h-14.5h-15.5h-15t-13 2l8 76q4 -2 8 -2.5t7 -0.5q5 -1 9.5 -1h10.5q18 0 31.5 6.5t22.5 20.5q7 13 11.5 34
t4.5 50v369v25v25l-2 24t-1 26h93q-2 -14 -2 -26v-24v-25.5v-24.5v-354zM180 579h-102v102h102v-102z" />
    <glyph glyph-name="k" unicode="k" horiz-adv-x="530" 
d="M168 257l215 212h117l-237 -224l257 -280h-115l-237 265v-165v-26v-24v-25.5t2 -24.5h-93q1 24 2 49t1 51v544v25v25l-2 24t-1 26h93q-2 -14 -2 -26v-24v-25.5v-24.5v-352z" />
    <glyph glyph-name="l" unicode="l" horiz-adv-x="248" 
d="M168 65v-26v-24v-25.5t2 -24.5h-93q1 24 2 49t1 51v544v25v25l-2 24t-1 26h93q-2 -14 -2 -26v-24v-25.5v-24.5v-544z" />
    <glyph glyph-name="m" unicode="m" horiz-adv-x="825" 
d="M667 266q0 6 -0.5 12t-0.5 12t-0.5 12.5t-0.5 13.5q-2 12 -5 24t-7 23q-5 10 -11.5 18.5t-13.5 16.5q-9 6 -20 9.5t-24 3.5q-17 0 -30.5 -4.5t-24.5 -12.5q-12 -9 -22 -20t-17 -24q-9 -15 -14.5 -30.5t-8.5 -32.5q-5 -18 -6.5 -36t-1.5 -36v-150v-26v-24v-25.5t2 -24.5
h-93q1 24 2 49t1 51v201q0 6 -0.5 12t-0.5 12t-0.5 12.5t-0.5 13.5q-2 12 -5 24t-6 23q-5 10 -11.5 18.5t-13.5 16.5q-9 6 -20.5 9.5t-24.5 3.5q-17 0 -31 -4t-25 -11q-12 -9 -22 -19.5t-17 -22.5q-8 -14 -13.5 -28.5t-8.5 -30.5q-4 -18 -6 -35t-2 -35v-160v-26v-24v-25.5
t2 -24.5h-93q1 24 2 49t1 51v304v25v25l-2 24t-1 26h93q-1 -7 -1 -11.5v-7.5q-1 -3 -1 -6v-5v-5.5v-5.5v-8.5v-10.5v-19q0 3 1 5.5t3 5.5l0.5 1t0.5 2q1 1 1.5 2t1.5 2q13 19 28 33t31 23q15 8 35.5 12.5t46.5 4.5q21 0 40.5 -6t37.5 -18q16 -13 30 -33.5t26 -47.5
q6 14 14.5 26t17.5 23q9 9 18 17.5t20 15.5q9 6 19 10.5t21 7.5q9 2 18 3.5t18 1.5q21 0 40 -4t35 -10q15 -8 27.5 -18t23.5 -22q9 -14 16 -29t12 -32q4 -18 6.5 -37.5t2.5 -39.5v-224v-26v-24v-25.5t2 -24.5h-93q1 24 2 49t1 51v201z" />
    <glyph glyph-name="n" unicode="n" horiz-adv-x="589" 
d="M163 385q1 4 2.5 8.5t3.5 7.5q0 2 1.5 4.5t4.5 5.5q24 34 63.5 52t93.5 18q48 0 84 -14.5t59 -42.5q22 -29 33.5 -68.5t11.5 -90.5v-200v-26v-24v-25.5t2 -24.5h-93q1 24 2 49t1 51v161q0 46 -6 80t-18 57q-12 21 -34.5 33t-53.5 15q-20 0 -36.5 -4t-30.5 -11
q-15 -9 -27.5 -20t-21.5 -24q-11 -15 -18.5 -32t-11.5 -36q-6 -20 -8.5 -41.5t-2.5 -44.5v-133v-26v-24v-25.5t2 -24.5h-93q1 24 2 49t1 51v304v25v25l-2 24t-1 26h93q-1 -7 -1 -11.5v-7.5q-1 -3 -1 -6v-5v-5.5v-5.5v-8.5v-10.5v-24z" />
    <glyph glyph-name="o" unicode="o" horiz-adv-x="600" 
d="M50 217q0 28 4.5 55t13.5 52q9 24 21.5 44.5t29.5 38.5q16 17 35.5 30.5t43.5 24.5q22 9 47.5 14t54.5 5q27 0 52.5 -5t49.5 -14q22 -11 42 -24.5t37 -30.5q16 -18 29 -38.5t22 -44.5q9 -25 13.5 -52t4.5 -55t-4.5 -53.5t-13.5 -49.5q-10 -24 -23 -45t-29 -39
q-17 -18 -37 -32.5t-42 -23.5q-24 -11 -49 -16t-52 -5q-29 0 -54.5 5t-47.5 16q-24 9 -43.5 23.5t-35.5 32.5q-17 18 -29.5 39t-21.5 45t-13.5 49.5t-4.5 53.5zM142 217q0 -18 2 -35.5t7 -33.5q4 -18 11 -34t17 -29q9 -15 21.5 -26t27.5 -19q15 -9 33 -13t39 -4t39 4t33 13
q14 8 26 19t23 26q9 13 16 29t12 34q4 16 6.5 33.5t2.5 35.5t-3 36t-7 36q-6 17 -14 32.5t-17 29.5q-11 13 -23 24t-26 20q-15 7 -32.5 11.5t-35.5 4.5q-20 0 -36.5 -4.5t-30.5 -11.5q-15 -9 -28 -20t-22 -24q-11 -14 -18.5 -29.5t-11.5 -32.5q-6 -18 -8.5 -36t-2.5 -36z
" />
    <glyph glyph-name="p" unicode="p" horiz-adv-x="611" 
d="M168 469q-1 -6 -1 -10.5v-7.5q-1 -3 -1 -6v-5v-5.5v-5.5v-9v-11v-20q2 6 4 10t5 7q12 13 28.5 26t37.5 25t46.5 18t55.5 6q28 0 53 -5.5t46 -15.5q20 -12 36.5 -26t30.5 -32q12 -18 22 -39t17 -44q6 -24 9 -49.5t3 -50.5q0 -24 -4 -47t-10 -44q-8 -23 -18.5 -43
t-23.5 -36q-15 -18 -32 -32t-37 -23q-21 -11 -44.5 -16t-48.5 -5q-30 0 -54.5 5t-44.5 17q-21 10 -38 23t-29 30q-3 3 -5 6.5t-3 9.5v-149v-25v-24v-26t2 -25h-93q0 12 1 25t2 25v24v26v454q0 24 -1 49t-2 51h91zM468 225q0 18 -2.5 35t-5.5 35q-5 16 -11 30.5t-14 28.5
q-9 12 -20.5 22.5t-24.5 19.5q-15 7 -31.5 11t-34.5 4q-21 0 -38.5 -4.5t-31.5 -11.5q-15 -9 -26.5 -20t-20.5 -23q-10 -14 -17 -29t-11 -30q-5 -17 -7 -33.5t-2 -32.5q0 -18 2 -35.5t8 -33.5q4 -18 11.5 -32.5t18.5 -26.5q9 -14 21 -24t27 -17q13 -8 29.5 -11.5t36.5 -3.5
q18 0 34 3.5t31 11.5q13 7 24.5 17t20.5 23q8 12 14.5 26.5t11.5 31.5q3 16 5.5 33.5t2.5 35.5z" />
    <glyph glyph-name="q" unicode="q" horiz-adv-x="611" 
d="M533 469q-2 -26 -2.5 -51t-0.5 -49v-454v-26t1 -24v-25t2 -25h-93q0 12 1 25t1 26v24v25v149q-2 -6 -4 -9.5t-4 -6.5q-14 -17 -30.5 -30t-36.5 -23q-21 -12 -46 -17t-53 -5q-27 0 -50.5 5t-42.5 16q-21 9 -38 23t-30 32q-15 16 -25.5 36t-16.5 43q-8 21 -11.5 44t-3.5 47
q0 25 3 50.5t10 49.5q6 23 15 44t23 39q12 18 29.5 32t38.5 26q20 10 44.5 15.5t53.5 5.5q30 0 55.5 -6t46.5 -18t37.5 -25t28.5 -26q1 -3 3.5 -7t5.5 -10v20v11v9v5.5v5.5v5v6q-1 3 -1.5 7.5t-0.5 10.5h91zM142 225q0 -18 2 -35.5t7 -33.5q3 -17 10 -31.5t16 -26.5
q8 -13 19 -23t25 -17q13 -8 29 -11.5t36 -3.5q18 0 34.5 3.5t31.5 11.5q14 7 26 17t23 24q9 12 16 26.5t13 32.5q4 16 7 33.5t3 35.5q0 16 -2.5 32.5t-6.5 33.5q-5 15 -11.5 30t-15.5 29q-10 12 -22 23t-26 20q-15 7 -33 11.5t-37 4.5q-20 0 -36 -4t-29 -11
q-15 -9 -26 -19.5t-19 -22.5q-9 -14 -16 -28.5t-10 -30.5q-5 -18 -6.5 -35t-1.5 -35z" />
    <glyph glyph-name="r" unicode="r" horiz-adv-x="410" 
d="M315 405q-17 0 -31.5 -4t-27.5 -10q-15 -8 -27 -18.5t-21 -22.5q-11 -14 -19 -30.5t-14 -34.5q-6 -20 -9 -41t-3 -44v-135v-26v-24v-25.5t2 -24.5h-93q1 24 2 49t1 51v314v23.5v21.5q-1 9 -2 20t-1 25h92q-1 -7 -1 -11.5v-7.5q-1 -3 -1 -6v-5v-5.5v-5.5v-8.5v-10.5v-29
l4 13q3 10 8 19.5t14 18.5q7 7 16.5 14t20.5 13q9 5 20 9.5t23 7.5q10 3 20.5 4.5t21.5 1.5q4 0 9.5 -0.5t10.5 -0.5q6 0 12 -0.5t12 -0.5q12 -2 22 -4t19 -5l-13 -80q-4 1 -7.5 2.5t-7.5 2.5q-3 1 -7 2.5t-8 3.5q-9 1 -18.5 2.5t-18.5 1.5z" />
    <glyph glyph-name="s" unicode="s" horiz-adv-x="440" 
d="M35 57q7 -5 16.5 -8.5t21.5 -6.5q10 -3 21.5 -6t23.5 -4q11 -3 21.5 -5t21.5 -2q9 -2 16 -2h13q10 0 21.5 0.5t23.5 3.5q11 1 21.5 4t20.5 8q9 4 16.5 10t13.5 14q5 6 8 15t3 21q0 7 -3 14.5t-9 15.5q-6 6 -13.5 12t-16.5 12q-9 5 -19.5 10t-20.5 10q-6 2 -11.5 4
t-10.5 4l-10 4t-9 5q-17 6 -32.5 12.5t-30.5 14.5q-15 6 -28.5 13t-23.5 16q-12 7 -21 16.5t-15 20.5q-8 9 -11 21t-3 26q0 19 3.5 36t11.5 32q7 13 17.5 25t25.5 22q13 9 29.5 15.5t36.5 11.5q18 4 40 6.5t46 2.5q6 0 12 -0.5t12 -0.5h10.5h11.5q4 -1 9 -1.5t9 -1.5
q5 -1 9.5 -1.5t9.5 -0.5q3 -1 7 -2l8 -2q3 -1 7 -2t8 -1q6 -3 12.5 -5t14.5 -3l-8 -76q-15 6 -30.5 10.5t-32.5 9.5q-18 3 -33 5t-26 2q-14 0 -26 -1.5t-23 -2.5q-12 -3 -22.5 -6t-18.5 -6q-9 -5 -16.5 -9.5t-11.5 -10.5q-6 -6 -8 -13.5t-2 -15.5q0 -9 3 -16.5t9 -13.5
q6 -8 13.5 -14t16.5 -11q9 -6 18.5 -11t20.5 -8q10 -5 20 -8.5t19 -6.5q6 -3 12 -5.5t13 -4.5q7 -3 14 -5.5t15 -4.5q14 -6 27.5 -13.5t27.5 -15.5q12 -9 22.5 -19t19.5 -22q8 -12 12.5 -27t4.5 -31q0 -21 -4 -38t-11 -31q-8 -15 -18.5 -27.5t-22.5 -21.5q-14 -10 -29.5 -17
t-33.5 -11q-19 -6 -39.5 -8t-41.5 -2h-19t-22 1q-12 0 -24.5 1t-24.5 3q-13 1 -25 3.5t-24 5.5q-12 2 -22.5 5.5t-18.5 8.5z" />
    <glyph glyph-name="t" unicode="t" horiz-adv-x="400" 
d="M135 519v25v25l-2 24t-1 26h93q-2 -14 -2 -26v-24v-25.5v-24.5v-50h57h20.5h19.5h18t22 2v-74q-6 0 -11 0.5t-9 0.5q-5 0 -9.5 0.5t-7.5 0.5h-18.5h-19.5h-62v-284q0 -27 4.5 -45t15.5 -27q9 -11 25 -15.5t37 -4.5q17 0 32 3.5t29 12.5v-73q-9 -3 -17.5 -5.5t-17.5 -3.5
q-11 -3 -21.5 -3.5t-20.5 -0.5q-36 0 -64.5 8t-48.5 26q-21 16 -31 43t-10 65v304h-40h-20.5h-17.5q-5 0 -9.5 -0.5t-9.5 -0.5q-4 0 -9 -0.5t-9 -0.5v74q11 -2 21 -2h19h18h22h35v50z" />
    <glyph glyph-name="u" unicode="u" horiz-adv-x="590" 
d="M427 49q-1 -3 -2 -5.5t-1 -3.5q-1 -2 -1.5 -3.5t-0.5 -2.5q-1 -2 -2 -3.5t-2 -2.5q-1 -2 -2 -3t-1 -2q-26 -36 -65 -53t-92 -17q-50 0 -85.5 14t-57.5 43q-23 28 -34 68t-11 91v200v25v26q0 6 -0.5 12t-0.5 12t-0.5 12t-0.5 13h93q-2 -26 -2.5 -51t-0.5 -49v-161
q0 -47 6 -81.5t18 -55.5q12 -23 33.5 -35t54.5 -13q18 0 35 3.5t32 12.5q14 7 26 18t23 26q9 13 17 30t14 37q4 19 7 40.5t3 45.5v133v25v26q0 6 -0.5 12t-0.5 12t-0.5 12t-0.5 13h93q-2 -26 -2.5 -51t-0.5 -49v-304v-26t1 -24v-25t2 -25h-93q0 6 0.5 11t1.5 8v5.5v5.5v5v7
v7.5v10.5v24z" />
    <glyph glyph-name="v" unicode="v" horiz-adv-x="526" 
d="M320 -35h-110l-195 504h97l148 -397q0 -3 0.5 -5t1.5 -4t1.5 -4t1.5 -4q0 -6 1 -10.5t3 -8.5q0 5 1 9.5t3 8.5q0 3 1 7.5t4 10.5l9 25.5t27 75.5q18 49 45 123t63 173h88z" />
    <glyph glyph-name="w" unicode="w" horiz-adv-x="800" 
d="M633 -35h-106l-123 415q-2 3 -2.5 7t-0.5 8q-1 3 -1.5 6.5t-0.5 8.5q-1 -3 -1.5 -7t-0.5 -8q-1 -6 -2 -10t-1 -6l-117 -414h-108l-149 504h94l109 -406v-3v-2t0.5 -2.5t1.5 -2.5q0 -4 0.5 -8.5t1.5 -8.5q0 4 0.5 8t1.5 8q0 3 0.5 5t1.5 5l116 407h113l118 -408v-3v-2
t0.5 -2.5t1.5 -2.5q0 -4 0.5 -7t1.5 -5v5t2 8q0 3 0.5 5.5t1.5 4.5l108 407h86z" />
    <glyph glyph-name="x" unicode="x" horiz-adv-x="510" 
d="M200 229l-165 240h102l120 -182l118 182h100l-166 -240l186 -264h-102l-141 202l-137 -202h-100z" />
    <glyph glyph-name="y" unicode="y" horiz-adv-x="491" 
d="M40 -109q4 -2 9.5 -3t13.5 -1q6 -2 13 -2h13q13 0 25.5 3t23.5 9q9 5 17.5 12t16.5 16q6 8 11 17t10 20q3 9 6 17.5t6 16.5l-190 473h93l137 -353q0 -3 0.5 -5t1.5 -4q0 -2 0.5 -3.5t1.5 -2.5q0 -5 0.5 -9t2.5 -7q0 3 0.5 7t2.5 9v2.5t1 3.5q0 2 1 4t2 5l131 353h92
l-184 -464q-8 -18 -15.5 -35.5t-15.5 -33.5q-9 -18 -19.5 -33t-22.5 -28q-12 -14 -26 -25t-29 -18q-16 -9 -34 -13t-38 -4h-15t-10 1q-6 0 -11 0.5t-10 2.5h-2h-2t-2.5 0.5t-2.5 0.5h-7.5t-3.5 1z" />
    <glyph glyph-name="z" unicode="z" horiz-adv-x="495" 
d="M325 388l15 11h-215h-20.5h-17.5q-5 0 -9.5 -0.5t-9.5 -0.5q-4 0 -9 -0.5t-9 -0.5v74q11 -2 21 -2h19h18h22h225h20.5h19.5h18t22 2v-76l-294 -346l-16 -14h245h20.5h19.5h18t22 2v-74q-6 0 -11 0.5t-9 0.5q-5 0 -9.5 0.5t-7.5 0.5h-18.5h-19.5h-265h-21h-19
q-11 0 -21 -1t-19 -1v77z" />
    <glyph glyph-name="braceleft" unicode="{" horiz-adv-x="330" 
d="M310 671h-49q-9 0 -15.5 -2t-10.5 -5q-6 -4 -10 -8.5t-7 -9.5q-3 -6 -5.5 -12.5t-2.5 -12.5q-2 -8 -2 -15v-14v-181q0 -15 -2.5 -28t-6.5 -23q-6 -11 -11.5 -20t-11.5 -15q-8 -8 -15 -13.5t-14 -8.5q-8 -5 -14.5 -7.5t-11.5 -3.5l-16 -4l16 -3q2 -1 5 -2l6 -2
q4 -1 7.5 -2t7.5 -2q7 -4 14 -9t15 -11q6 -8 11.5 -17t11.5 -19q4 -12 6.5 -25.5t2.5 -29.5v-178v-15.5t2 -13.5q0 -8 2.5 -14t5.5 -11q3 -6 7 -10.5t10 -7.5q4 -4 10.5 -5.5t15.5 -1.5h49v-64h-74q-9 0 -18 1.5t-18 6.5q-11 3 -20 9t-16 14q-9 7 -16 17t-11 22
q-6 11 -8.5 24.5t-2.5 28.5v182q0 12 -2 23t-5 22q-5 9 -9.5 17t-10.5 16q-7 6 -14 11.5t-14 10.5q-9 3 -16.5 5t-14.5 3v64q7 0 14.5 2t16.5 7q7 3 14 8t14 12q6 6 10.5 14t9.5 18q3 9 5 19.5t2 22.5v187q0 15 2.5 28t8.5 25q4 11 11 20.5t16 18.5q7 7 16 12.5t20 10.5
q9 3 18 5.5t18 2.5h74v-64z" />
    <glyph glyph-name="bar" unicode="|" horiz-adv-x="230" 
d="M150 -55v-26v-24v-25.5t2 -24.5h-75q1 22 2 47t1 53v690v25v25l-2 24t-1 26h75q-2 -14 -2 -26v-24v-25.5v-24.5v-690z" />
    <glyph glyph-name="braceright" unicode="}" horiz-adv-x="330" 
d="M20 735h74q8 0 17 -2.5t20 -5.5q9 -5 18 -10.5t18 -12.5q7 -9 14 -18.5t13 -20.5q4 -12 7 -25t3 -28v-187q0 -12 1.5 -22.5t6.5 -19.5q3 -10 8 -18t12 -14q6 -7 12.5 -12t15.5 -8q7 -5 14.5 -7t15.5 -2v-64q-8 -1 -15.5 -3t-14.5 -5q-9 -5 -15.5 -10.5t-12.5 -11.5
q-7 -8 -12 -16t-8 -17q-5 -11 -6.5 -22t-1.5 -23v-182q0 -15 -3 -28.5t-7 -24.5q-6 -12 -13 -22t-14 -17q-9 -8 -18 -14t-18 -9q-11 -5 -20 -6.5t-17 -1.5h-74v64h49q7 0 14 1.5t13 5.5q4 3 8.5 7.5t7.5 10.5q3 5 4.5 11l3.5 14q0 6 1 13.5t1 15.5v178q0 16 2 29.5t8 25.5
q4 10 9.5 19t13.5 17q6 6 13 11t15 9q7 3 13.5 4.5t12.5 3.5l16 3l-16 4q-6 1 -12.5 3.5t-13.5 7.5q-8 3 -15 8.5t-13 13.5q-8 6 -13.5 15t-9.5 20q-6 10 -8 23t-2 28v181q0 3 -0.5 6.5t-0.5 7.5t-0.5 7.5t-0.5 7.5q-2 6 -3.5 12.5t-4.5 12.5q-3 5 -7.5 9.5l-8.5 8.5
q-6 3 -13 5t-14 2h-49v64z" />
    <glyph glyph-name="asciitilde" unicode="~" horiz-adv-x="600" 
d="M530 245q-9 -16 -20 -30t-26 -26q-16 -14 -35.5 -20t-42.5 -6q-13 0 -26 2t-26 7q-15 4 -29 9.5t-28 12.5q-12 5 -24.5 11t-25.5 13q-14 6 -27.5 9.5t-26.5 3.5q-6 0 -13 -1.5t-13 -4.5q-8 -4 -14 -8.5t-12 -8.5q-7 -6 -12.5 -11.5t-9.5 -11.5q-6 -7 -9.5 -13t-4.5 -11
l-35 64q7 15 18.5 29t27.5 28q15 12 34.5 18.5t43.5 6.5q12 0 25 -2.5t28 -5.5q13 -5 27 -11t29 -12q11 -6 23.5 -12t27.5 -12q13 -7 26 -10t27 -3q6 0 12 1.5t14 5.5q6 3 13 7.5t14 10.5q6 4 11 10t11 12q4 6 7 11.5t6 11.5z" />
    <glyph glyph-name="uni007F" horiz-adv-x="312" 
 />
    <glyph glyph-name="uni00A0" unicode="&#xa0;" horiz-adv-x="312" 
d="M0 -5z" />
    <glyph glyph-name="exclamdown" unicode="&#xa1;" horiz-adv-x="950" 
d="M450 516h51l13 -269v-382h-79v382zM523 625h-96v100h96v-100z" />
    <glyph glyph-name="currency" unicode="&#xa4;" horiz-adv-x="950" 
d="M475 556q-53 0 -96.5 -19.5t-78.5 -57.5q-37 -39 -55 -84.5t-18 -99.5t18 -100t55 -85q36 -39 80 -57.5t95 -18.5t94.5 18.5t79.5 57.5q36 38 55 84.5t19 100.5q0 52 -19 98t-55 86q-18 18 -38 32t-41 25q-23 9 -47 14.5t-48 5.5zM168 -72l-43 46l110 116
q-17 21 -29.5 44.5t-21.5 50.5q-11 25 -15.5 52.5t-4.5 57.5q0 60 17 112t53 96l-109 116l43 46l111 -117q21 17 43.5 30.5t47.5 23.5q24 9 50 14t55 5q55 0 104.5 -18t91.5 -54l110 116l43 -46l-109 -116q18 -22 31 -46t22 -49q8 -27 12.5 -55t4.5 -58t-4.5 -58t-11.5 -53
q-9 -27 -22 -51t-31 -45l108 -114l-43 -46l-108 114q-43 -37 -92.5 -55t-105.5 -18q-29 0 -56 4.5t-51 15.5q-26 9 -48.5 22.5t-43.5 31.5z" />
    <glyph glyph-name="section" unicode="&#xa7;" horiz-adv-x="950" 
d="M237 705q33 0 59.5 -13t45.5 -39q4 -8 8 -14.5t7 -12.5q2 -7 3.5 -13t1.5 -11q0 -10 -4.5 -18t-13.5 -14q-20 -14 -34.5 -10.5t-23.5 24.5q-5 7 -7.5 14t-3.5 15q-3 6 -3.5 13t-0.5 13q0 3 -2.5 6t-6.5 6q-6 1 -14 2.5t-17 2.5q-21 0 -32 -16t-11 -49q-1 -41 23 -81
t74 -79h-1q53 -44 77.5 -92.5t20.5 -102.5q-3 -18 -9 -31.5t-14 -20.5q-9 -9 -19 -14.5t-19 -8.5q1 -3 2.5 -5.5t3.5 -4.5q1 -3 3 -6t5 -6q3 -8 6.5 -15.5t7.5 -14.5q1 -5 2.5 -9.5t2.5 -8.5t2.5 -8.5t3.5 -8.5q1 -9 2.5 -18t1.5 -16q0 -11 -1.5 -22t-2.5 -22
q-3 -12 -7 -23.5t-9 -22.5q-18 -33 -44 -48.5t-60 -14.5q-17 0 -31.5 3t-27.5 10q-14 6 -25.5 14.5t-20.5 19.5q-18 23 -23.5 43t3.5 38t23.5 23.5t35.5 -3.5q9 -5 15 -10.5t10 -11.5q3 -8 3 -17t-3 -20q-1 -3 -1 -5v-3q-1 -2 -1 -3.5v-1.5q-1 -2 -1 -3v-1q0 -3 3 -5t9 -3
q4 -3 8.5 -4.5t10.5 -2.5q12 -3 23.5 2t21.5 18q6 9 10 20.5t4 25.5q0 7 -1.5 16.5t-4.5 20.5q-4 12 -9.5 23.5t-11.5 23.5q-8 11 -16 21t-17 19q-12 10 -24 23.5t-25 29.5q-15 15 -27 29t-21 28q-7 9 -12 19t-8 22q-5 10 -6.5 20t-1.5 21v12.5t2 12.5q0 6 2 12t5 13
q4 10 9.5 18.5t13.5 14.5q6 6 14 10.5t17 7.5h0.5h1.5t1.5 0.5t2.5 1.5h1h2l1 0.5t2 0.5l-18 27q-8 10 -13.5 21.5t-9.5 25.5q-5 12 -8 25.5t-3 27.5q-2 35 5 62t24 46q15 18 36 28t47 12h1zM292 303q-10 14 -20.5 26.5t-22.5 23.5q-12 10 -23 16t-20 8q-19 3 -28.5 -2.5
t-9.5 -19.5q0 -11 1.5 -21t5.5 -19q3 -11 7 -19.5t10 -15.5q14 -18 27.5 -31.5t27.5 -22.5q12 -9 22 -14t18 -5q6 0 11.5 1.5t10.5 5.5q3 3 5.5 9.5t2.5 16.5q0 6 -2.5 14.5t-6.5 18.5q-3 4 -5 8l-4 8t-4 7.5t-3 6.5z" />
    <glyph glyph-name="dieresis" unicode="&#xa8;" horiz-adv-x="950" 
d="M769 787v-112h-110v112h110zM291 787v-112h-110v112h110z" />
    <glyph glyph-name="ordfeminine" unicode="&#xaa;" horiz-adv-x="950" 
d="M770 -79h-575v63h575v-63zM684 193v-13t2 -13q0 -8 1.5 -14t3.5 -12q0 -7 1.5 -13t3.5 -10q0 -6 1 -10t3 -7h-71q-1 2 -2 5t-2 7q-1 3 -2 6.5t-1 8.5q-3 7 -5 16.5t-2 20.5l-14 -12t-14 -10q-4 -3 -8 -5.5t-9 -5.5q-4 -3 -9 -5.5t-9 -5.5q-15 -9 -29.5 -15.5t-29.5 -10.5
q-15 -6 -30.5 -9t-30.5 -3q-21 -2 -39 -0.5t-34 6.5q-17 3 -32.5 9.5t-29.5 15.5q-28 18 -43 44t-17 61q-2 16 0 31.5t7 29.5q3 13 9.5 25t15.5 23q7 9 17.5 18t22.5 17q11 6 23.5 11.5t26.5 10.5q14 4 28.5 7t29.5 6q13 1 27 3.5t29 5.5q3 0 7 0.5t8 1.5q4 0 8 1t9 2
q8 1 16 2.5t17 4.5q7 1 14.5 3t15.5 5q6 1 11.5 2.5t10.5 4.5q6 1 10.5 5t7.5 10q3 5 4.5 11t1.5 12q0 21 -9 39.5t-25 36.5q-16 16 -42.5 25t-62.5 9q-31 0 -57.5 -8t-48.5 -23q-20 -15 -29.5 -39t-9.5 -56h-69q-1 22 2.5 42.5t12.5 38.5q7 17 19 32t27 29q33 25 71 38
t82 13q43 0 80 -12.5t68 -36.5q30 -27 45.5 -61t15.5 -74v-272zM614 372q-6 -3 -11.5 -5.5t-11.5 -3.5q-7 -3 -12.5 -4.5t-9.5 -1.5q-9 -3 -19 -5.5t-20 -3.5q-12 -3 -25 -5t-26 -3q-15 -3 -27.5 -4.5t-21.5 -1.5q-5 -1 -9.5 -2t-8.5 -1q-3 -1 -6.5 -1.5t-5.5 -0.5
q-27 -6 -45.5 -16t-28.5 -23q-11 -15 -16 -29.5t-4 -29.5q0 -21 10 -37t28 -26q17 -12 40 -16.5t52 -1.5q12 0 26.5 4t30.5 11q15 6 30 13.5t30 17.5q30 19 45.5 41t15.5 46v89z" />
    <glyph glyph-name="uni00AD" unicode="&#xad;" horiz-adv-x="950" 
d="M731 326v-62h-513v62h513z" />
    <glyph glyph-name="registered" unicode="&#xae;" horiz-adv-x="950" 
d="M755 763q41 0 72.5 -10.5t52.5 -29.5q20 -21 30.5 -50t10.5 -65v-608q0 -24 -3.5 -45t-9.5 -37q-8 -18 -17 -31t-21 -22q-24 -20 -49 -29t-52 -9h-589q-17 0 -31.5 2t-27.5 8q-15 4 -27 11t-21 18q-11 10 -19 23.5t-13 30.5q-6 16 -9 36t-3 44v608q0 36 10 65t31 50
q19 19 50.5 29.5t74.5 10.5h560zM771 -116q21 0 38 6.5t31 21.5q12 13 18.5 32.5t6.5 43.5v617q0 21 -6 39t-16 33q-12 14 -30.5 21.5t-44.5 7.5h-586q-27 0 -46 -7.5t-29 -21.5q-12 -15 -17 -33t-5 -39v-617q0 -12 1.5 -23.5t5.5 -21.5q3 -12 8 -21.5t13 -15.5
q6 -6 13.5 -9.5t16.5 -6.5q8 -3 17 -4.5t19 -1.5h592zM787 214l-20 -251h-597v91q0 12 3 24t9 25q5 12 13 24.5t19 25.5q10 12 22.5 24.5t27.5 24.5q13 12 28.5 23t33.5 23q19 12 37 22.5t36 19.5l16 8l16 8t15.5 8t15.5 8q14 6 26.5 12.5t23.5 14.5q9 6 17.5 13.5
t15.5 16.5q6 8 11 16.5t10 17.5q3 8 5 16t2 16q0 7 -1 13t-1 9q-5 12 -13 22t-20 18q-12 6 -32.5 10t-48.5 6q-13 0 -25 -1.5t-23 -4.5q-12 -4 -21.5 -8t-15.5 -7q3 -6 7 -13l8 -14q3 -9 4.5 -16t1.5 -13q0 -11 -1.5 -20.5t-4.5 -18.5q-4 -10 -8.5 -18.5t-10.5 -15.5
q-7 -8 -14.5 -14t-16.5 -10q-10 -5 -20.5 -7t-22.5 -2q-29 0 -49.5 7.5t-32.5 24.5q-14 15 -20 35.5t-6 44.5q0 33 21 65t63 63q40 28 86 42.5t98 14.5q90 0 153.5 -15t99.5 -44q36 -30 54 -64.5t18 -73.5q0 -18 -4.5 -37t-11.5 -38q-8 -17 -18.5 -32t-23.5 -28
q-15 -15 -29 -26.5t-29 -19.5q-14 -8 -29 -15t-33 -13q-19 -8 -36.5 -14t-33.5 -11q-24 -8 -45 -15.5t-40 -15.5q-11 -5 -20 -9l-18 -8t-16.5 -7.5t-14.5 -6.5h29h30q15 -1 30 -1h31h136q3 0 7.5 1t10.5 4q4 2 8.5 5t7.5 6q7 9 11 16t4 11q3 13 14 20.5t30 7.5h61z" />
    <glyph glyph-name="degree" unicode="&#xb0;" horiz-adv-x="950" 
d="M6 654q0 13 2 26.5t8 25.5q4 12 11 22.5t16 19.5q8 9 18.5 16t22.5 13q11 4 23 7t26 3q12 0 24.5 -3t24.5 -7q11 -6 21.5 -13t19.5 -16q8 -9 14.5 -19.5t12.5 -22.5q4 -12 7 -25.5t3 -26.5q0 -15 -3 -27.5t-7 -24.5q-6 -12 -12.5 -22.5t-14.5 -19.5q-9 -9 -19.5 -16.5
t-21.5 -11.5q-12 -6 -24.5 -8t-24.5 -2q-14 0 -26 2t-23 8q-12 4 -22.5 11.5t-18.5 16.5q-9 9 -16 19.5t-11 22.5q-6 12 -8 24.5t-2 27.5zM73 655q0 -14 4.5 -25t13.5 -20q8 -10 18.5 -14.5t23.5 -4.5q12 0 23 4.5t20 14.5q8 9 12.5 20t4.5 25q0 12 -4.5 23.5t-12.5 21.5
q-9 9 -20 14t-23 5q-13 0 -23.5 -5t-18.5 -14q-9 -10 -13.5 -21.5t-4.5 -23.5z" />
    <glyph glyph-name="plusminus" unicode="&#xb1;" horiz-adv-x="950" 
d="M156 404h284v236h69v-236h285v-66h-285v-236h-69v236h-284v66zM156 22h638v-65h-638v65z" />
    <glyph glyph-name="uni00B2" unicode="&#xb2;" horiz-adv-x="950" 
d="M232 539q-3 -2 -5 -3.5t-4 -2.5t-4 -2.5t-3 -2.5q-5 -3 -8.5 -7t-6.5 -7h143v-59h-223q0 20 5 38.5t15 36.5q9 16 23.5 30.5t35.5 28.5q3 2 8.5 5.5t12.5 9.5q6 4 12.5 8.5t13.5 9.5q6 5 12 11t11 12q3 6 5.5 12t2.5 14q0 19 -10.5 29.5t-30.5 10.5q-12 0 -20.5 -4.5
t-12.5 -13.5q-6 -9 -8.5 -19.5t-2.5 -20.5h-64q0 12 2 23.5t6 22.5q3 9 7.5 17.5t10.5 16.5q15 18 35.5 27t47.5 9q13 0 24.5 -2.5t22.5 -5.5q9 -5 17 -10t15 -11q6 -8 11 -15.5t8 -16.5t4.5 -18.5t1.5 -18.5q0 -10 -1.5 -18.5t-4.5 -15.5q-3 -9 -7 -15.5t-8 -12.5
q-5 -6 -10 -11.5t-10 -9.5q-3 -3 -6 -5l-6 -4q-2 -2 -4.5 -4t-4.5 -3z" />
    <glyph glyph-name="uni00B3" unicode="&#xb3;" horiz-adv-x="950" 
d="M186 564q0 -11 3 -20t9 -18q6 -10 15 -14.5t23 -4.5q10 0 19 3t15 9q6 5 9 12.5t3 16.5q0 6 -2.5 11.5t-5.5 10.5q-5 4 -10 6.5t-11 4.5q-6 0 -11 1t-11 2h-13.5h-15.5v58h13t15 1h11.5t8.5 2q5 2 9.5 5.5t8.5 8.5q3 4 4.5 9t1.5 11t-3 12t-7 11q-6 4 -13.5 6.5
t-16.5 2.5q-12 0 -20 -4.5t-12 -11.5q-6 -9 -8.5 -17t-2.5 -17h-61q0 25 8 45t24 35q15 13 33 20.5t40 7.5q10 0 20 -2t20 -5q9 -5 16.5 -9.5t15.5 -10.5q6 -6 12 -13.5t11 -14.5q3 -9 5.5 -17.5t2.5 -17.5q0 -12 -2.5 -22t-5.5 -17q-5 -9 -10 -15t-10 -10q8 -7 14.5 -14.5
t12.5 -15.5q4 -9 7 -19t3 -20q0 -21 -7.5 -39t-22.5 -31q-15 -15 -35.5 -21.5t-45.5 -6.5q-12 0 -23.5 2t-21.5 8q-11 4 -20 10t-16 15q-8 7 -14 16.5t-10 20.5q-5 10 -7 21t-2 23h64z" />
    <glyph glyph-name="acute" unicode="&#xb4;" horiz-adv-x="950" 
d="M487 656q-8 -12 -16.5 -24.5t-17.5 -24.5q-6 -7 -11 -13l-10 -12l-10 -12t-9 -11q-6 -6 -11 -12l-10 -12q-5 -5 -10 -10.5t-9 -10.5q-6 -6 -10.5 -11.5t-9.5 -9.5q-4 -5 -8.5 -9.5l-7.5 -7.5q2 9 5 21t8 27q3 13 7.5 27.5t10.5 30.5q4 15 9 30t11 31q4 15 9.5 29.5
t11.5 28.5q0 2 1.5 5.5t4.5 8.5q1 4 3.5 8.5t5.5 10.5q2 4 5 8.5t6 9.5q2 4 4.5 8t5.5 7q12 18 28 22t36 -5q17 -11 21 -27t-5 -37q-7 -15 -16.5 -30.5t-21.5 -33.5z" />
    <glyph glyph-name="paragraph" unicode="&#xb6;" horiz-adv-x="950" 
d="M641 735v-880h-89v817h-68v-817h-89v485q-23 0 -42 4t-35 12q-17 6 -32 16.5t-27 24.5q-27 28 -39.5 63.5t-12.5 77.5q0 40 13.5 75t40.5 64q28 28 61.5 43t72.5 15h246z" />
    <glyph glyph-name="periodcentered" unicode="&#xb7;" horiz-adv-x="200" 
d="M155 351v-112h-110v112h110z" />
    <glyph glyph-name="cedilla" unicode="&#xb8;" horiz-adv-x="200" 
d="M16 -96l83 91l-83 86v82l168 -168l-168 -178v87z" />
    <glyph glyph-name="uni00B9" unicode="&#xb9;" horiz-adv-x="950" 
d="M229 461v202h-62v55q8 0 16 0.5t17 2.5q7 0 12.5 2.5t9.5 5.5q2 2 4 5.5t5 9.5l2.5 10l3.5 14h52v-307h-60z" />
    <glyph glyph-name="ordmasculine" unicode="&#xba;" horiz-adv-x="950" 
d="M704 372q0 -58 -15 -107.5t-45 -91.5q-32 -44 -75 -65t-97 -21q-56 0 -99 21t-74 63q-30 41 -44 90.5t-14 108.5q0 58 15 107.5t45 90.5q31 42 74.5 63.5t97.5 21.5q55 0 98.5 -21t73.5 -63q29 -41 44 -90t15 -107zM770 -79h-575v63h575v-63zM639 370q0 22 -3 43t-8 42
q-6 19 -15 36.5t-20 34.5q-21 30 -50.5 46t-67.5 16q-18 0 -34 -4.5t-31 -11.5q-15 -9 -28.5 -20t-24.5 -26q-12 -16 -20 -34t-14 -37q-7 -21 -10 -42t-3 -43q0 -47 11 -86.5t35 -70.5q19 -31 48.5 -46t68.5 -15t68.5 15t50.5 46q23 30 35 69.5t12 87.5z" />
    <glyph glyph-name="onequarter" unicode="&#xbc;" horiz-adv-x="950" 
d="M138 326h674v-62h-674v62zM290 -97v62l210 271h60v-267h67v-66h-67v-79h-71v79h-199zM489 113l-118 -144h118v144zM453 350v274h-88v63q12 0 23.5 1t22.5 4q9 1 17 4t14 7q4 3 8 7.5t8 12.5q3 6 5 14.5t2 19.5h58v-407h-70z" />
    <glyph glyph-name="onehalf" unicode="&#xbd;" horiz-adv-x="950" 
d="M138 326h674v-63h-674v63zM453 350v274h-88v63q12 0 23.5 1t22.5 4q9 1 17 4t14 7q4 3 8 7.5t8 12.5q3 6 5 14.5t2 19.5h58v-407h-70zM535 -35q-4 -3 -8 -5t-8 -5q-4 -2 -8.5 -4.5t-8.5 -4.5q-9 -6 -18 -13t-17 -14q-5 -4 -9.5 -7.5t-8.5 -7.5t-8 -7.5t-7 -6.5
q-8 -9 -13.5 -16.5t-8.5 -14.5h213v-63h-310q0 14 2 27.5t7 27.5q3 12 8.5 24t13.5 24l4 6t5 6q2 3 4.5 6.5t5.5 7.5q4 6 9.5 11.5t12.5 11.5q6 6 14 12t17 12t19.5 12l24.5 14q7 3 14.5 7.5t16.5 10.5q7 4 14.5 10t15.5 13q6 6 11.5 13t10.5 16q3 7 5.5 16.5t2.5 20.5
q0 15 -5 28t-14 23q-10 9 -24 13.5t-32 4.5q-22 0 -38 -6t-26 -18q-5 -6 -8 -13t-5 -16q-3 -9 -4.5 -19t-1.5 -19h-69q0 15 2.5 29.5t8.5 28.5q4 13 10 24.5t14 22.5q9 11 22 20t28 17q15 6 31.5 9.5t36.5 3.5q18 0 34 -3t31 -7q13 -6 24.5 -13t20.5 -16q9 -10 15.5 -20.5
t11.5 -22.5q4 -13 6.5 -26.5t2.5 -26.5q0 -27 -7.5 -49.5t-22.5 -38.5q-6 -8 -13.5 -14t-14.5 -12q-9 -7 -17 -13t-15 -11z" />
    <glyph glyph-name="threequarters" unicode="&#xbe;" horiz-adv-x="950" 
d="M138 327h674v-63h-674v63zM290 -97v62l210 271h60v-267h67v-66h-67v-79h-71v79h-199zM489 113l-118 -144h118v144zM388 502q0 -23 4.5 -39.5t15.5 -27.5q10 -14 26.5 -20t39.5 -6q18 0 33 5t27 17q10 10 16 23.5t6 30.5q0 9 -2.5 17t-6.5 15q-6 6 -12 10.5t-12 9.5
q-8 3 -16 5.5t-17 4.5q-9 1 -18 1.5t-16 0.5h-26l2 60h15t20 1q9 0 16.5 1.5t13.5 4.5q10 4 18.5 10.5t15.5 15.5q6 7 9 15.5t3 19.5q0 12 -4.5 23t-13.5 20q-10 8 -23.5 12.5t-29.5 4.5q-18 0 -31 -5.5t-22 -14.5q-10 -11 -14.5 -26t-4.5 -36h-71q0 18 3 33.5t9 29.5
q5 13 12.5 24.5t18.5 21.5q9 9 20.5 15.5t25.5 11.5q12 4 26.5 6.5t29.5 2.5q12 0 25 -2.5t27 -5.5q12 -5 23.5 -11.5t22.5 -13.5q9 -9 17.5 -18.5t15.5 -20.5q6 -12 9 -25t3 -28q0 -29 -12 -51.5t-35 -40.5q13 -9 24 -18.5t20 -21.5q7 -13 11.5 -28t4.5 -31q0 -15 -3 -29
t-8 -26q-6 -13 -14 -23.5t-17 -19.5q-11 -10 -23.5 -17.5t-25.5 -11.5q-15 -6 -31 -8t-33 -2q-36 0 -64.5 10t-49.5 31q-22 19 -32.5 47.5t-10.5 66.5h70z" />
    <glyph glyph-name="questiondown" unicode="&#xbf;" horiz-adv-x="950" 
d="M693 117q0 -26 -2 -50t-7 -45q-6 -23 -15.5 -42.5t-22.5 -37.5q-27 -39 -71.5 -58t-105.5 -19q-27 0 -50.5 4.5t-44.5 14.5q-22 9 -41 22.5t-34 33.5q-11 13 -19 28t-14 30t-9 30.5t-3 32.5q0 37 8 68.5t25 57.5q15 25 36 44t47 33q15 7 27 18.5t23 26.5q9 13 14.5 31
t5.5 40v136h69v-134q0 -30 -6 -55.5t-17 -46.5q-12 -22 -29.5 -38.5t-39.5 -27.5q-22 -12 -39.5 -26.5t-29.5 -32.5q-14 -18 -20.5 -43t-6.5 -55q0 -14 2.5 -26.5t8.5 -22.5q4 -12 11.5 -21.5t16.5 -16.5q24 -21 52.5 -30.5t61.5 -9.5q40 0 70 12.5t48 38.5q18 27 26.5 60.5
t7.5 75.5h67zM523 625h-96v100h96v-100z" />
    <glyph glyph-name="AE" unicode="&#xc6;" horiz-adv-x="950" 
d="M552 129h-359l-85 -209h-72l305 746h534v-62h-444l108 -265h318v-63h-293l120 -294h200v-62h-247zM219 191h307l-153 377z" />
    <glyph glyph-name="Eth" unicode="&#xd0;" horiz-adv-x="950" 
d="M316 239h270v-63h-270v-194h161q67 0 117.5 22.5t85.5 69.5q36 47 55 101.5t19 117.5q0 66 -18.5 121.5t-54.5 100.5q-36 44 -87 66.5t-117 22.5h-161v-365zM245 176h-153v63h153v427h242q37 0 71.5 -7t66.5 -20q30 -14 57.5 -34t51.5 -45q22 -27 39.5 -57t29.5 -63
q12 -35 18 -71.5t6 -75.5q0 -41 -6 -77.5t-18 -69.5q-12 -34 -29.5 -64t-39.5 -57q-24 -26 -51.5 -45.5t-58.5 -32.5q-32 -14 -66.5 -20.5t-70.5 -6.5h-242v256z" />
    <glyph glyph-name="multiply" unicode="&#xd7;" horiz-adv-x="950" 
d="M735 -75l-261 271l-251 -266l-47 51l254 263l-241 252l45 51l242 -254l239 251l43 -48l-235 -251l258 -267z" />
    <glyph glyph-name="Oslash" unicode="&#xd8;" horiz-adv-x="950" 
d="M338 16q28 -23 62 -34t74 -11q32 0 60 6.5t52 21.5q22 13 41.5 31.5t34.5 42.5q15 22 26 48t19 56q6 28 10 58t4 60q0 31 -4 61t-10 57q-8 26 -18 50.5t-22 47.5zM623 563q-15 13 -31.5 23.5t-34.5 18.5q-20 6 -40.5 10t-42.5 4q-33 0 -60.5 -7.5t-49.5 -21.5
q-24 -15 -43 -34t-34 -41q-15 -24 -26.5 -50t-17.5 -54q-8 -30 -11.5 -59t-3.5 -57q0 -36 4 -68t13 -60q7 -30 19 -55.5t27 -47.5zM250 1q-24 26 -42 58t-30 70q-12 36 -18 77.5t-6 88.5q0 37 4.5 74t15.5 73q9 35 24 66.5t36 59.5q19 27 44.5 48.5t55.5 38.5
q30 15 64.5 23.5t75.5 8.5q55 0 102.5 -16.5t87.5 -48.5l91 140l56 -37l-103 -150q19 -27 35 -58t28 -66q11 -36 17 -75t6 -81q0 -36 -5 -71.5t-14 -69.5q-10 -36 -24.5 -67.5t-33.5 -58.5q-20 -29 -44.5 -51.5t-54.5 -38.5q-31 -18 -67 -26.5t-77 -8.5q-49 0 -92.5 13.5
t-82.5 41.5l-96 -146l-54 38z" />
    <glyph glyph-name="Thorn" unicode="&#xde;" horiz-adv-x="950" 
d="M480 -42q-31 0 -57.5 5t-47.5 17q-23 10 -41.5 24t-32.5 32v-126h-70v766h70v-199q15 18 35.5 34t44.5 28q23 11 47.5 17t51.5 6q29 0 55 -7t50 -19q22 -14 41.5 -31t36.5 -38q15 -22 27 -46t21 -51q7 -27 11.5 -55t4.5 -55t-4 -53.5t-11 -52.5q-9 -27 -20 -51.5
t-26 -45.5q-16 -23 -35.5 -40.5t-41.5 -30.5q-24 -15 -51.5 -21.5t-57.5 -6.5zM475 493q-23 0 -42 -5.5t-34 -15.5q-17 -12 -30 -26t-22 -30q-11 -18 -19 -36.5t-12 -38.5q-6 -21 -8 -41.5t-2 -39.5q0 -20 2 -39.5t7 -39.5q3 -21 10 -40t18 -35q9 -18 22.5 -32.5t30.5 -24.5
q15 -12 35 -17.5t44 -5.5q22 0 41.5 5t36.5 16q15 10 28.5 23.5t24.5 31.5q9 16 16.5 35t13.5 40q4 21 6.5 41.5t2.5 41.5q0 18 -2.5 38t-6.5 41q-5 20 -12.5 38.5t-16.5 36.5q-11 16 -24.5 30.5t-28.5 26.5q-17 10 -37 16t-42 6z" />
    <glyph glyph-name="germandbls" unicode="&#xdf;" horiz-adv-x="950" 
d="M301 -97v562q-3 24 -0.5 45t10.5 40q6 18 16 33t24 29q12 12 28 21.5t34 16.5q18 6 37 9.5t40 3.5q18 0 36 -4t35 -10q15 -8 29 -17t26 -21q11 -12 20 -26.5t17 -29.5q6 -17 9.5 -34.5t4.5 -35.5q0 -13 -1 -25.5t-2 -24.5q-3 -14 -7 -26t-8 -22q-6 -12 -13 -21.5
t-14 -18.5q-9 -9 -19 -16.5t-22 -11.5q0 -1 -0.5 -1h-0.5q12 -5 24 -11t24 -14q10 -9 19.5 -19t18.5 -22q7 -13 13 -27t11 -29q3 -17 5 -34t2 -35q0 -23 -4 -44t-10 -39q-8 -20 -18 -36.5t-23 -29.5q-14 -14 -31 -24.5t-36 -17.5q-21 -9 -44.5 -12.5t-50.5 -3.5h-61v67h47
q18 0 34.5 1.5t31.5 6.5q14 3 26.5 9t23.5 15q10 7 18.5 18t14.5 25q5 12 8 28t3 36q0 39 -11 67t-32 46q-22 16 -51.5 25t-66.5 9h-45v70h37q12 0 25 2t27 7q12 3 23 9.5t22 15.5q9 7 17.5 17.5t15.5 22.5q6 11 9 24.5t3 28.5q0 30 -7.5 53t-22.5 40q-15 15 -38.5 23.5
t-53.5 8.5q-14 0 -25.5 -3t-20.5 -7q-11 -6 -19.5 -12.5t-14.5 -13.5q-8 -9 -13 -18.5t-8 -19.5q-5 -12 -6.5 -23t-0.5 -21v-574h-68z" />
    <glyph glyph-name="ae" unicode="&#xe6;" horiz-adv-x="950" 
d="M736 253q-2 37 -9.5 66.5t-21.5 51.5q-15 21 -37 32t-50 11q-15 0 -27.5 -4t-22.5 -10q-12 -8 -21 -17.5t-16 -20.5q-9 -12 -15 -25.5t-10 -26.5q-5 -15 -8 -29.5t-4 -27.5h242zM423 204q-3 -3 -9.5 -6t-15.5 -4q-11 -3 -22.5 -5.5t-23.5 -3.5q-14 -3 -27 -5.5t-25 -3.5
q-7 -2 -13 -3.5t-11 -2.5q-6 -1 -10.5 -2t-7.5 -2q-20 -7 -33.5 -17t-20.5 -22q-9 -14 -13 -27.5t-3 -27.5q0 -20 7.5 -35t22.5 -24q13 -11 30.5 -15.5t38.5 -2.5q8 0 18.5 3.5t22.5 10.5q12 6 23 13.5t23 16.5q10 9 19 18.5t17 20.5q6 10 9.5 20t3.5 21v85zM618 -81
q-20 0 -37.5 5t-33.5 14q-17 8 -31 19.5t-26 26.5q0 -8 1.5 -14.5t3.5 -12.5q0 -3 0.5 -6t1.5 -5q1 -3 1.5 -5t1.5 -3h-67q-3 4 -4.5 9.5t-2.5 12.5q-2 6 -3.5 12.5t-1.5 14.5q-8 -6 -15.5 -12t-14.5 -11l-18 -12t-18 -10q-10 -5 -19.5 -8.5t-18.5 -6.5q-10 -3 -19 -5
t-18 -2q-17 -2 -32 0t-29 7q-15 3 -28 9.5t-23 15.5q-12 9 -21 20t-15 25q-8 12 -11.5 27.5t-3.5 33.5q-2 25 1.5 46.5t12.5 38.5q7 16 18 29.5t25 24.5q13 9 29 17t34 14q18 4 36.5 8.5t38.5 7.5q3 0 7 0.5t8 1.5q5 0 9.5 1t9.5 2q9 0 18 2.5t18 6.5q8 3 15.5 7.5
t13.5 11.5q5 6 8 14t3 20q0 23 -7.5 42.5t-21.5 34.5q-15 15 -34.5 22.5t-43.5 7.5t-42.5 -8.5t-33.5 -24.5q-15 -18 -22.5 -41t-7.5 -51h-70q-2 21 1 40t10 37q6 17 15 32t21 29q12 12 26 22.5t31 18.5q16 6 34 10t38 4q24 0 47.5 -6.5t44.5 -18.5q20 -14 36 -32t28 -42
q13 22 29 40t34 32q18 12 39 19t45 7q46 0 81.5 -18.5t61.5 -54.5q24 -38 37 -94.5t13 -132.5h-318q-1 -17 0.5 -33.5t6.5 -32.5q3 -18 8.5 -33.5t14.5 -29.5q7 -15 17 -26.5t22 -20.5q11 -10 24.5 -14.5t29.5 -4.5q24 0 42 7t32 22q12 14 21 32.5t15 42.5h73
q-5 -17 -11 -32.5t-12 -30.5q-8 -17 -17 -31t-19 -26q-12 -13 -24.5 -23t-27.5 -17q-15 -9 -33 -12.5t-37 -2.5z" />
    <glyph glyph-name="eth" unicode="&#xf0;" horiz-adv-x="950" 
d="M301 161q1 -19 6 -36.5t13 -32.5q6 -17 15.5 -31t21.5 -26q10 -13 23.5 -23t29.5 -16q15 -8 31.5 -11.5t35.5 -3.5q18 0 34.5 3.5t31.5 11.5q15 6 28 16t25 23q11 12 20.5 26t17.5 31q6 16 10.5 33.5t7.5 35.5h-351zM447 272l-40 48l123 110q-15 6 -28 9t-25 3
q-33 0 -59.5 -8.5t-45.5 -23.5q-20 -17 -34 -37.5t-22 -45.5h-74q4 19 12 37.5t19 36.5q9 16 21.5 31t27.5 27q14 12 31 21t37 17q19 6 41 9t46 3q14 0 28 -2t29 -5q13 -4 26.5 -9.5t27.5 -12.5l98 89l40 -48l-87 -78q21 -21 37 -46.5t28 -55.5q10 -30 16 -62.5t6 -66.5
q0 -29 -4.5 -56t-11.5 -53q-9 -27 -21 -51t-27 -45q-17 -21 -36.5 -38t-41.5 -29q-24 -14 -50.5 -20t-56.5 -6t-56.5 6t-50.5 19q-24 12 -44.5 29t-36.5 39q-18 21 -30.5 45t-19.5 53q-9 27 -12 57t0 62h428q-2 28 -7 53t-14 47q-11 21 -23 38.5t-27 32.5z" />
    <glyph glyph-name="divide" unicode="&#xf7;" horiz-adv-x="950" 
d="M146 329h657v-69h-657v69zM474 628q14 0 26 -6t23 -16q9 -12 14 -24.5t5 -26.5q0 -15 -5 -27.5t-14 -21.5q-11 -11 -23 -15.5t-26 -4.5q-15 0 -27 4.5t-21 15.5q-11 9 -15.5 21.5t-4.5 27.5q0 14 4.5 26.5t15.5 24.5q9 10 21 16t27 6zM475 104q6 0 12.5 -1.5t12.5 -4.5
t11 -7t11 -8q4 -6 8 -11.5t7 -11.5q3 -7 4.5 -14t1.5 -13q0 -8 -1.5 -14.5t-4.5 -12.5q-3 -7 -7 -13t-8 -10q-6 -5 -11 -8.5t-11 -6.5t-12.5 -4.5t-12.5 -1.5q-14 0 -25.5 4.5t-21.5 13.5q-11 9 -16 22t-5 31q0 13 4.5 25.5t15.5 24.5q9 10 21 15.5t27 5.5z" />
    <glyph glyph-name="oslash" unicode="&#xf8;" horiz-adv-x="950" 
d="M293 7q-17 21 -29.5 45t-20.5 51q-9 27 -13.5 55.5t-4.5 60.5q0 28 3.5 56t12.5 55q7 26 19 50t29 45q15 21 34.5 37.5t43.5 29.5q22 12 49 18.5t58 6.5q18 0 35 -2.5t34 -6.5q15 -5 31 -13t32 -19l60 89l46 -37l-61 -91q18 -21 31.5 -45.5t22.5 -51.5q9 -28 13.5 -58
t4.5 -63q0 -29 -4.5 -56t-11.5 -53q-9 -27 -20.5 -51t-26.5 -44q-17 -21 -36.5 -38t-41.5 -29q-24 -14 -51 -20t-57 -6q-39 0 -73 10.5t-64 32.5l-54 -79l-48 36zM376 25q11 -9 23 -16t24 -11q11 -6 23.5 -8t27.5 -2q21 0 40.5 5t37.5 16q16 10 30 23.5t26 31.5
q10 16 18.5 34.5t14.5 39.5q5 20 8 40t3 41q0 46 -10.5 85t-31.5 69zM567 420q-11 6 -21.5 11.5t-22.5 10.5q-12 3 -24.5 5.5t-24.5 2.5q-23 0 -42 -5.5t-35 -15.5q-17 -11 -31 -24.5t-24 -29.5q-12 -18 -20.5 -36.5t-13.5 -38.5q-6 -21 -9 -41.5t-3 -39.5q0 -43 9.5 -80.5
t29.5 -68.5z" />
    <glyph glyph-name="thorn" unicode="&#xfe;" horiz-adv-x="950" 
d="M249 666h69v-249q18 18 38 32.5t43 25.5q22 9 47.5 14.5t55.5 5.5q20 0 39.5 -4.5t37.5 -11.5q18 -9 33.5 -20t29.5 -24q13 -15 23.5 -31t18.5 -34q7 -19 10 -39t3 -41v-370h-69v362q0 16 -3 31.5t-7 29.5q-6 13 -13 24.5t-16 21.5q-9 9 -20 16.5t-23 13.5q-14 4 -27.5 7
t-28.5 3t-30 -3t-30 -9q-16 -7 -29.5 -15.5t-25.5 -17.5q-12 -11 -22.5 -23t-17.5 -25q-9 -14 -13 -28t-4 -28v-360h-69v746z" />
    <glyph glyph-name="dcroat" unicode="&#x111;" horiz-adv-x="950" 
d="M477 353q-20 0 -37.5 -4.5t-32.5 -11.5q-17 -9 -30.5 -19.5t-23.5 -23.5q-12 -14 -20 -29.5t-14 -31.5q-6 -18 -9 -35.5t-3 -35.5q0 -19 3 -37t9 -34q5 -18 13 -33.5t20 -27.5q10 -14 23.5 -25t30.5 -18q15 -9 32.5 -12.5t38.5 -3.5q19 0 36.5 3.5t34.5 12.5
q15 7 28.5 17.5t25.5 24.5q10 12 19 27.5t15 33.5q6 16 9 34t3 38q0 18 -3 35.5t-9 35.5q-6 16 -15 31.5t-19 29.5q-12 13 -25.5 23.5t-28.5 19.5q-17 7 -34.5 11.5t-36.5 4.5zM472 421q27 0 51.5 -5t48.5 -14q22 -11 41 -24.5t35 -31.5v145h-327v63h327v124h71v-124h124
v-63h-124v-570h-71v55q-17 -20 -36 -34t-41 -22q-23 -9 -47.5 -13.5t-51.5 -4.5t-52 5t-46 17q-23 10 -41.5 24.5t-33.5 32.5q-16 18 -28 38.5t-20 44.5q-9 23 -13 47.5t-4 50.5q0 27 3.5 52.5t12.5 49.5q7 23 19 43.5t28 38.5q15 17 33.5 30.5t41.5 24.5q21 9 46 14.5
t54 5.5z" />
    <glyph glyph-name="Hbar" unicode="&#x126;" horiz-adv-x="950" 
d="M198 543v123h69v-123h418v123h69v-123h103v-63h-103v-560h-69v361h-418v-361h-69v560h-106v63h106zM267 480v-137h418v137h-418z" />
    <glyph glyph-name="hbar" unicode="&#x127;" horiz-adv-x="950" 
d="M255 535v132h71v-132h321v-62h-321v-141q13 17 31.5 31t41.5 26q22 10 50 16t61 6q20 0 39.5 -4.5t38.5 -12.5q18 -9 33.5 -21t29.5 -26q13 -15 23.5 -32.5t18.5 -36.5q6 -20 9 -40.5t3 -41.5v-275h-71v267q-1 15 -3.5 29.5t-6.5 29.5q-5 13 -11.5 25.5t-14.5 24.5
q-9 10 -20 18.5t-23 15.5q-13 6 -27.5 9t-30.5 3q-15 0 -30 -4t-30 -10q-16 -8 -29.5 -17.5t-25.5 -20.5q-12 -12 -22 -25.5t-17 -27.5q-9 -15 -13 -29.5t-4 -27.5v-260h-71v552h-130v62h130z" />
    <glyph glyph-name="dotlessi" unicode="&#x131;" horiz-adv-x="950" 
d="M510 -80h-70v556h70v-556zM510 594h-70v72h70v-72z" />
    <glyph glyph-name="IJ" unicode="&#x132;" horiz-adv-x="950" 
d="M197 668h70v-747h-70v747zM430 174v-75q0 -17 3 -30.5t9 -24.5q6 -12 13.5 -22.5t17.5 -17.5q9 -9 20 -15.5t23 -9.5q11 -5 22.5 -6.5t23.5 -1.5t24 1.5t24 6.5q11 3 21.5 9t20.5 15q9 7 16.5 17.5t13.5 22.5t9 25.5t3 30.5v569h70v-563q0 -21 -4 -41t-11 -38
q-8 -19 -18.5 -35.5t-22.5 -29.5q-14 -14 -30 -25t-34 -18q-19 -9 -39.5 -12.5t-42.5 -3.5q-21 0 -41 3t-38 11q-20 6 -36.5 16t-29.5 24q-15 12 -26 28t-18 36q-9 18 -12 39.5t-1 45.5v69h70z" />
    <glyph glyph-name="ij" unicode="&#x133;" horiz-adv-x="950" 
d="M367 -79h-71v557h71v-557zM367 596h-71v72h71v-72zM655 605h-71v72h71v-72zM655 -145q0 -11 -1.5 -21t-2.5 -19q-3 -11 -6.5 -19.5t-7.5 -17.5q-6 -7 -12.5 -14t-13.5 -13q-9 -4 -19 -7t-22 -3h-48v62h20q12 0 20 3t13 11q4 6 6.5 16t2.5 24v630h71v-632z" />
    <glyph glyph-name="kgreenlandic" unicode="&#x138;" horiz-adv-x="950" 
d="M314 -80h-69v566h69v-275l263 275h84l-215 -237l271 -329h-85l-234 285l-84 -81v-204z" />
    <glyph glyph-name="Ldot" unicode="&#x13f;" horiz-adv-x="950" 
d="M657 286q9 0 17.5 -4.5t17.5 -11.5q7 -9 11.5 -18t4.5 -19q0 -11 -4.5 -20t-11.5 -16q-9 -9 -17.5 -12.5t-17.5 -3.5q-11 0 -20 3.5t-16 12.5q-9 7 -12.5 16t-3.5 20q0 10 3.5 19t12.5 18q7 7 16 11.5t20 4.5zM304 666v-684h425v-62h-494v746h69z" />
    <glyph glyph-name="ldot" unicode="&#x140;" horiz-adv-x="950" 
d="M639 459q24 0 37 -13t13 -38q0 -26 -12.5 -38t-36.5 -12q-26 0 -38.5 12t-12.5 38q0 25 12.5 38t37.5 13zM417 666h69v-746h-69v746z" />
    <glyph glyph-name="Lslash" unicode="&#x141;" horiz-adv-x="950" 
d="M232 332v334h69v-273l115 101l42 -45l-157 -140v-327h425v-62h-494v327l-82 -72l-40 50z" />
    <glyph glyph-name="lslash" unicode="&#x142;" horiz-adv-x="950" 
d="M440 232l-142 -124l-44 54l186 161v343h70v-283l148 130l43 -53l-191 -167v-373h-70v312z" />
    <glyph glyph-name="napostrophe" unicode="&#x149;" horiz-adv-x="950" 
d="M250 477h69v-59q18 18 38 32.5t43 25.5q22 9 47.5 14.5t55.5 5.5q20 0 39.5 -4.5t37.5 -11.5q18 -9 33.5 -20t29.5 -24q13 -15 23.5 -31t18.5 -34q7 -20 10 -39.5t3 -40.5v-371h-69v362q0 16 -3 31.5t-7 29.5q-6 13 -13 24.5t-16 21.5q-9 9 -20 16.5t-23 13.5
q-14 4 -27.5 7t-28.5 3t-30 -3t-30 -9q-16 -7 -29.5 -15.5t-25.5 -17.5q-12 -11 -22.5 -23t-17.5 -25q-9 -14 -13 -28t-4 -28v-360h-69v557z" />
    <glyph glyph-name="Eng" unicode="&#x14a;" horiz-adv-x="950" 
d="M416 -98q21 1 41 7t38 16q17 9 32 21t29 27q12 15 22 33.5t18 39.5q6 20 10 43t4 49q0 21 -2.5 42t-6.5 42q-5 20 -12.5 38.5t-16.5 35.5q-11 16 -24.5 29.5t-28.5 24.5q-17 10 -36 15.5t-41 5.5t-40 -5.5t-32 -15.5q-15 -11 -26.5 -24.5t-20.5 -28.5q-9 -17 -16 -35.5
t-10 -37.5q-5 -21 -7 -40t-2 -37v-226h-71v699h71v-250q12 15 28 27.5t36 23.5q19 9 41 14t47 5q30 0 56 -7t50 -19q22 -14 41.5 -30.5t36.5 -37.5q15 -22 26.5 -46t20.5 -51q7 -28 11.5 -56t4.5 -55q0 -66 -18 -120t-53 -95q-18 -20 -39 -35t-46 -26q-26 -12 -55 -19
t-60 -8v67z" />
    <glyph glyph-name="eng" unicode="&#x14b;" horiz-adv-x="950" 
d="M629 282q0 16 -3 31.5t-7 30.5q-6 13 -13 24.5t-16 21.5q-9 9 -20 16.5t-23 13.5q-14 4 -27.5 7t-28.5 3q-38 0 -68 -13.5t-54 -39.5q-26 -27 -38 -51t-12 -45v-360h-69v556h69v-59q18 18 38.5 32.5t43.5 25.5q21 9 46.5 14.5t55.5 5.5q20 0 39.5 -4.5t37.5 -11.5
q18 -9 33.5 -20t29.5 -24q13 -15 23.5 -31t18.5 -34q7 -19 10 -39t3 -41v-352q0 -12 -1.5 -23t-2.5 -22q-3 -12 -7 -23t-9 -20q-6 -10 -13 -17.5t-16 -13.5q-9 -7 -20.5 -10.5t-23.5 -3.5h-66v62h24q15 0 28 5.5t22 15.5q8 9 12 22t4 31v340z" />
    <glyph glyph-name="OE" unicode="&#x152;" horiz-adv-x="950" 
d="M875 642h-354q28 -24 50 -54t39 -64q15 -36 25 -77.5t13 -88.5h209v-63h-208q-3 -50 -12.5 -94.5t-24.5 -84.5q-17 -42 -39.5 -75.5t-50.5 -58.5h362v-62h-530q-69 0 -123.5 27.5t-93.5 84.5q-39 54 -58.5 124t-19.5 156q0 85 19.5 155t58.5 125t93.5 83.5t123.5 28.5
h521v-62zM354 636q-51 0 -91.5 -22.5t-70.5 -66.5q-15 -24 -27 -50t-19 -56q-9 -30 -13 -62.5t-4 -66.5q0 -72 15.5 -131t47.5 -105q30 -45 70.5 -66.5t91.5 -21.5t91.5 21.5t70.5 66.5q30 46 46 105t16 131q0 34 -4.5 66.5t-11.5 62.5q-9 30 -20 56t-26 50
q-32 44 -72.5 66.5t-89.5 22.5z" />
    <glyph glyph-name="oe" unicode="&#x153;" horiz-adv-x="950" 
d="M317 414q-18 0 -33 -5.5t-26 -15.5q-12 -11 -22 -24.5t-16 -28.5q-8 -17 -12.5 -34t-7.5 -35q-3 -19 -4.5 -36.5t-1.5 -32.5q0 -17 1.5 -34t4.5 -35q2 -20 7 -37t13 -32q6 -17 16 -30t22 -23q11 -11 26 -16t33 -5t33 5t27 17q11 10 20 23t17 30q6 15 11.5 32.5t8.5 36.5
q3 18 4.5 35t1.5 33q0 15 -1.5 32t-4.5 36q-3 18 -8.5 35t-11.5 34q-8 15 -17 28.5t-20 25.5q-12 10 -27 15.5t-33 5.5zM754 253q-1 37 -8.5 66.5t-21.5 51.5q-15 21 -37 32t-50 11q-15 0 -27.5 -4t-22.5 -11q-12 -8 -21.5 -17.5t-16.5 -20.5q-9 -12 -15 -25t-10 -26
q-5 -15 -8 -29.5t-3 -27.5h241zM317 485q27 0 51 -8t45 -23q19 -17 35 -38t29 -48q12 27 28 48t37 38q19 15 42.5 23t52.5 8q45 0 80.5 -18.5t61.5 -54.5q24 -38 37 -94.5t13 -132.5h-317q-1 -17 0.5 -33.5t6.5 -32.5q3 -18 8.5 -33.5t14.5 -29.5q7 -15 17 -26.5t22 -20.5
q11 -10 24.5 -14.5t29.5 -4.5q22 0 40 7t32 22q12 14 22 32.5t16 42.5h73q-5 -17 -11 -32.5t-12 -30.5q-8 -17 -17 -31t-19 -26q-12 -13 -24.5 -23t-27.5 -17q-15 -9 -33 -12.5t-37 -2.5q-27 0 -50 8t-42 25q-21 15 -38 36.5t-29 48.5q-14 -27 -30.5 -49t-35.5 -37
q-21 -17 -44.5 -24.5t-50.5 -7.5q-26 0 -47.5 6.5t-39.5 20.5q-18 13 -33 30.5t-26 38.5q-12 21 -21 43.5t-13 48.5q-6 24 -8.5 48t-2.5 47q0 22 2.5 46t8.5 50q4 24 12.5 47.5t20.5 44.5q11 20 26 37t34 31q18 13 39.5 20t47.5 7z" />
    <glyph glyph-name="Tbar" unicode="&#x166;" horiz-adv-x="950" 
d="M440 309h-248v63h248v241h-248v63h566v-63h-248v-241h248v-63h-248v-389h-70v389z" />
    <glyph glyph-name="tbar" unicode="&#x167;" horiz-adv-x="950" 
d="M411 299v115h-54v63h54v161h69v-161h64v-63h-64v-115h169v-63h-169v-199v-14t1 -10q0 -6 0.5 -9.5t3.5 -6.5q1 -4 4 -6.5t8 -3.5q4 -2 10.5 -3t15.5 -1h21v-63h-55q-11 0 -20 2t-16 8q-8 4 -14 10.5t-10 15.5q-6 8 -9.5 17t-4.5 20q-3 9 -3.5 19.5t-0.5 21.5v202h-158v63
h158z" />
    <glyph glyph-name="caron" unicode="&#x2c7;" horiz-adv-x="950" 
d="M475 633v1l-219 117l41 63l178 -103l176 102l34 -54z" />
    <glyph glyph-name="uni02D0" unicode="&#x2d0;" horiz-adv-x="950" 
d="M230 387l-91 161h177zM226 203l90 -161h-177z" />
    <glyph glyph-name="breve" unicode="&#x2d8;" horiz-adv-x="950" 
d="M308 811q14 -22 32.5 -39.5t42.5 -30.5q22 -15 45 -21.5t47 -6.5t47 6.5t47 21.5q22 13 41 30.5t34 40.5l58 -44q-21 -29 -46.5 -52t-54.5 -39q-30 -18 -61.5 -26.5t-64.5 -8.5t-64.5 8.5t-60.5 26.5q-30 16 -55.5 39t-46.5 52z" />
    <glyph glyph-name="dotaccent" unicode="&#x2d9;" horiz-adv-x="950" 
d="M474 552q-49 0 -73 24.5t-24 75.5q0 50 24 75.5t73 25.5q48 0 72.5 -25.5t24.5 -75.5q0 -51 -24.5 -75.5t-72.5 -24.5z" />
    <glyph glyph-name="ring" unicode="&#x2da;" horiz-adv-x="950" 
d="M475 721q-14 0 -24 -4.5t-17 -11.5q-9 -9 -12.5 -20t-3.5 -25q0 -15 3.5 -26.5t12.5 -18.5q7 -9 17 -12.5t24 -3.5q12 0 22.5 3.5t19.5 12.5q7 7 11 18.5t4 26.5q0 14 -4 25t-11 20q-9 7 -19.5 11.5t-22.5 4.5zM475 788q12 0 24 -3t24 -7q10 -6 20 -13t19 -16
q7 -9 13.5 -19.5t12.5 -21.5q4 -12 6.5 -24t2.5 -24q0 -13 -2.5 -25t-6.5 -23q-6 -12 -12.5 -22t-13.5 -19q-9 -9 -19 -16.5t-20 -11.5q-12 -6 -24 -8.5t-24 -2.5q-14 0 -26 2.5t-22 8.5q-12 4 -21.5 11.5t-16.5 16.5q-9 9 -15.5 19t-10.5 22q-6 11 -8 23t-2 25q0 12 2 24
t8 24q4 11 10.5 21.5t15.5 19.5q7 9 16.5 16t21.5 13q10 4 22 7t26 3z" />
    <glyph glyph-name="ogonek" unicode="&#x2db;" horiz-adv-x="950" 
d="M540 -181l-168 176l168 168v-82l-85 -87l85 -90v-85z" />
    <glyph glyph-name="hungarumlaut" unicode="&#x2dd;" horiz-adv-x="950" 
d="M437 656q-8 -12 -16.5 -24.5t-17.5 -24.5q-6 -7 -11 -13l-10 -12l-10 -12t-9 -11q-6 -6 -11 -12l-10 -12q-5 -5 -10 -10.5t-9 -10.5q-6 -6 -10.5 -11.5t-9.5 -9.5q-4 -5 -8.5 -9.5l-7.5 -7.5q2 9 5 21t8 27q3 13 7.5 27.5t10.5 30.5q4 15 9 30t11 31q4 15 9.5 29.5
t11.5 28.5q0 2 1.5 5.5t4.5 8.5q1 4 3.5 8.5t5.5 10.5q2 4 5 8.5t6 9.5q2 4 4.5 8t5.5 7q12 18 28 22t36 -5q17 -11 21 -27t-5 -37q-7 -15 -16.5 -30.5t-21.5 -33.5zM597 656q-8 -12 -16.5 -24.5t-17.5 -24.5q-6 -7 -11 -13l-10 -12l-10 -12t-9 -11q-6 -6 -11 -12l-10 -12
q-5 -5 -10 -10.5t-9 -10.5q-6 -6 -10.5 -11.5t-9.5 -9.5q-4 -5 -8.5 -9.5l-7.5 -7.5q2 9 5 21t8 27q3 13 7.5 27.5t10.5 30.5q4 15 9 30t11 31q4 15 9.5 29.5t11.5 28.5q0 2 1.5 5.5t4.5 8.5q1 4 3.5 8.5t5.5 10.5q2 4 5 8.5t6 9.5q2 4 4.5 8t5.5 7q12 18 28 22t36 -5
q17 -11 21 -27t-5 -37q-7 -15 -16.5 -30.5t-21.5 -33.5z" />
    <glyph glyph-name="Alpha" unicode="&#x391;" horiz-adv-x="950" 
d="M584 606q6 10 12.5 15.5t15.5 5.5q8 0 13 -6.5t8 -18.5l63 -602q0 -10 2 -16t5 -7q1 -2 4.5 -2h9.5q4 -1 11 -1h16q18 0 24.5 -8t3.5 -23q-5 -12 -14 -17t-22 -5h-184q-15 0 -22 6.5t-7 20.5q0 6 3 11.5t9 8.5t12 4.5t12 1.5h20t15 1q6 0 9.5 1.5t6.5 4.5q0 1 1 3.5
t2 6.5q0 1 -0.5 2.5t-0.5 3.5v4v5l-13 137h-238q-18 -29 -31.5 -50.5t-22.5 -36.5q-6 -9 -10.5 -16t-8.5 -13t-7 -11t-5 -8q-6 -9 -9.5 -14.5t-3.5 -7.5q-2 -3 -2.5 -5.5t1.5 -2.5q0 -2 3.5 -2.5t9.5 -0.5q5 -1 12.5 -1h16.5q18 0 25 -8t4 -23q-5 -12 -14 -17t-22 -5h-162
q-8 0 -13 1t-8 4q-4 2 -5.5 7t-1.5 13q0 6 2.5 10.5t8.5 9.5q4 3 10 5.5t14 2.5q9 0 17 0.5t15 2.5q6 1 11.5 3.5t11.5 6.5q4 3 8.5 8.5t9.5 11.5q3 6 8 13t11 16zM592 200l-28 273l-168 -273h196z" />
    <glyph glyph-name="Beta" unicode="&#x392;" horiz-adv-x="950" 
d="M145 -80q-20 0 -27.5 7.5t-2.5 22.5q3 11 12 17t24 6q26 0 41.5 1.5t21.5 5.5q2 1 4.5 4t5.5 9q2 4 4 9t5 11l129 508q1 5 2 9.5t2 9.5q0 3 -1 5t-1 4q-5 3 -19.5 4.5t-38.5 1.5q-15 0 -22 6.5t-7 20.5q2 6 5.5 11.5t9.5 8.5q4 3 9.5 4.5t11.5 1.5h270q18 0 37.5 -1.5
t39.5 -5.5q18 -6 34.5 -13.5t31.5 -17.5q13 -12 23.5 -25.5t17.5 -29.5q6 -18 6 -38t-6 -42q-8 -28 -22 -52t-33 -45q-21 -22 -44 -37t-50 -23q10 -5 20 -9.5t20 -8.5q9 -6 17 -12.5t16 -13.5q6 -8 12 -16.5t11 -17.5q3 -10 5.5 -20.5t2.5 -22.5q0 -11 -1.5 -23t-4.5 -25
q-9 -29 -22 -51.5t-30 -40.5q-18 -19 -38 -34t-42 -25q-24 -11 -48.5 -18.5t-50.5 -10.5q-27 -5 -54 -7t-53 -2h-233zM386 300h37q24 0 44 0.5t38 3.5q16 1 30.5 4t27.5 8q11 4 22.5 10.5t23.5 14.5q10 7 20.5 15.5t19.5 18.5q8 9 15 20t13 23q5 11 8 24t3 28q0 16 -4 28.5
t-10 21.5q-8 8 -18 14t-22 11q-13 3 -28 5.5t-31 3.5h-18h-18q-10 0 -19.5 0.5t-18.5 0.5t-16 -1t-13 -1q-4 -1 -6.5 -1.5t-5.5 -1.5q-2 0 -3.5 -0.5t-2.5 -0.5l-1.5 -3l-1.5 -3q-1 -1 -1.5 -3t-0.5 -3q-3 -5 -5 -10t-3 -10zM312 7q-5 -15 -7 -22.5t0 -7.5q1 -3 11.5 -3.5
t30.5 -0.5h22t26 1h24.5t26.5 2q19 -2 38 1t37 11q17 7 32 17t29 24q12 12 22.5 27.5t19.5 33.5q7 17 11 35t4 38q0 16 -4.5 28.5t-13.5 21.5q-10 7 -21.5 12.5t-24.5 8.5q-14 3 -29 4.5t-30 2.5q-17 0 -31.5 1t-27.5 4h-84z" />
    <glyph glyph-name="Gamma" unicode="&#x393;" horiz-adv-x="950" 
d="M352 521q1 7 1.5 12.5t0.5 9.5q-2 3 -4 5.5t-5 4.5l-10 2t-11 1q-7 -1 -14.5 -1h-14.5q-18 0 -25.5 7t-2.5 22q3 12 12 18t24 6h470q10 0 16.5 -1.5t9.5 -2.5q2 -3 2 -10t-2 -17l-40 -200q-6 -15 -14 -21.5t-18 -6.5q-5 0 -8 1.5t-6 4.5t-4.5 7.5t-1.5 12.5q0 11 1 22
t3 22v10v9q0 5 0.5 9t0.5 9q0 31 -4.5 50t-11.5 25q-17 12 -68 18t-137 6h-15h-10q-6 -1 -9.5 -2t-6.5 -2q-3 -2 -6 -5t-4 -6q-3 -5 -5 -10.5t-3 -12.5l-123 -488l-3.5 -10.5t-2.5 -8.5q-1 -3 -2 -6.5t-1 -5.5q-3 -6 -3 -11t3 -8q1 -3 5 -4t12 -1q6 -1 17 -1h26
q17 0 24.5 -7.5t4.5 -21.5q-3 -12 -12.5 -18t-24.5 -6h-218q-11 0 -17.5 1.5t-9.5 6.5q-4 3 -5 8.5t1 13.5q3 11 12.5 17t24.5 6q28 0 45 2t22 7q1 1 4 6t6 13q3 7 6 15.5t6 18.5z" />
    <glyph glyph-name="uni0394" unicode="&#x394;" horiz-adv-x="950" 
d="M565 473l-288 -468q-3 -4 -4.5 -7t-3.5 -6l-2 -4t-1 -3q-2 -4 -1.5 -6.5t3.5 -3.5q1 -2 4.5 -2h9.5q4 -1 10.5 -1h15.5h252q18 0 30 1.5t18 5.5q4 3 5.5 9.5t0.5 15.5zM702 4q0 -8 1 -15.5t3 -13.5q0 -8 -0.5 -14.5t-1.5 -12.5q-3 -6 -6.5 -10.5t-7.5 -7.5
q-6 -5 -13.5 -7t-17.5 -2h-422q-12 0 -21 1.5t-14 4.5q-6 2 -9 8t-3 15q0 4 1.5 9.5t5.5 13.5l7.5 15t10.5 20l370 599q3 5 6.5 9t8.5 7q3 2 6.5 3.5t6.5 1.5q7 0 12 -7t8 -19z" />
    <glyph glyph-name="Epsilon" unicode="&#x395;" horiz-adv-x="950" 
d="M651 158q1 4 4.5 7.5t8.5 6.5q4 1 8.5 1.5t9.5 0.5q4 -2 8 -3.5t7 -4.5q3 -4 3.5 -8.5t-0.5 -8.5l-64 -210q-2 -6 -5 -9.5t-7 -4.5q-5 -3 -10 -4t-10 -1h-482q-18 0 -25.5 7.5t-4.5 22.5q3 11 12 17t24 6h15.5h14.5q6 0 11 0.5t11 2.5q4 1 8 4t9 8q3 3 6.5 9.5t6.5 15.5
l129 508q1 7 1.5 12.5t0.5 10.5q-2 3 -4.5 5.5t-5.5 4.5q-5 0 -9.5 1t-10.5 1q-7 -1 -14 -1h-14q-15 0 -22 6.5t-7 20.5q2 6 5.5 11.5t9.5 8.5q4 3 9.5 4.5t11.5 1.5h472q10 0 16.5 -1.5t9.5 -2.5q2 -3 2 -10t-2 -17l-40 -200q-4 -11 -8.5 -18t-8.5 -11q-6 -6 -11 -8t-8 -2
q-12 0 -15.5 9t0.5 29v-1v7.5t1 9.5q0 5 1 11l2 12l2 24t1 24q0 11 -1.5 21.5t-2.5 20.5q-3 9 -6.5 15.5t-9.5 11.5q-18 11 -69.5 17t-136.5 6h-14h-10q-6 0 -9.5 -1t-6.5 -2q-3 -2 -6 -5t-4 -6q-3 -5 -5.5 -11t-3.5 -13q-8 -28 -14.5 -55.5t-12.5 -54.5q-8 -28 -15 -55
t-13 -54q24 0 43.5 0.5t33.5 3.5q12 1 22 3.5t18 5.5q8 2 15.5 10t15.5 22q6 13 12.5 29t14.5 34q3 9 7.5 17.5t9.5 14.5q4 5 8 8t9 3q3 0 7 -3t7 -9q2 -7 2 -16t-2 -21l-65 -256q-4 -9 -8 -15.5t-8 -9.5q-6 -5 -10.5 -7t-7.5 -2q-11 0 -15 8t-2 25v-1q0 4 0.5 9.5t2.5 13.5
q0 6 0.5 12.5t1.5 13.5q0 3 -0.5 6t-0.5 6v6v6q-2 4 -3.5 7.5t-3.5 5.5q-12 6 -42 10t-76 6l-61 -237q-4 -11 -4 -17.5t5 -9.5q3 -4 11.5 -5.5t22.5 -1.5q47 0 85 1.5t67 5.5q28 3 47.5 7.5t31.5 10.5q22 12 46 52t50 108z" />
    <glyph glyph-name="Zeta" unicode="&#x396;" horiz-adv-x="950" 
d="M609 556q-71 0 -115.5 -6t-62.5 -17q-9 -6 -19 -19t-21 -34q-12 -23 -24.5 -50t-24.5 -60q-3 -6 -6 -9t-7 -4q-5 -2 -9.5 -2.5t-7.5 1.5q-5 0 -8.5 2.5t-5.5 6.5q-3 3 -4 6.5t1 8.5q4 16 9.5 34t11.5 36q5 17 10.5 34.5t11.5 35.5q1 3 2 7l2 8t2.5 8t3.5 9q1 7 3.5 14.5
l5.5 16.5q3 12 11.5 19t22.5 7h403q6 0 11 -1t8 -2q3 -3 4.5 -5t1.5 -5q0 -4 -1.5 -8t-3.5 -8q-2 -3 -3.5 -5.5t-2.5 -4.5q-2 -2 -3.5 -4.5t-2.5 -4.5l-532 -587h122q72 0 116.5 5.5t62.5 17.5q8 4 18 17.5t22 36.5q11 21 23 48t26 60q1 3 3.5 5.5t7.5 4.5h7.5h9.5
q3 -2 7 -3.5t7 -3.5q2 -3 3 -6t1 -6l-64 -210q-3 -6 -6 -9.5t-6 -4.5q-5 -3 -10 -4t-10 -1h-435q-15 0 -21 3t-4 11q0 6 4 14.5t12 19.5l528 587h-85z" />
    <glyph glyph-name="Eta" unicode="&#x397;" horiz-adv-x="950" 
d="M637 303l51 196q3 10 5 19t4 15q0 6 -0.5 10t-1.5 7l-7.5 2.5t-10.5 2.5h-18h-23q-9 0 -15 1.5t-9 5.5q-5 3 -6 8t1 13q1 12 10.5 18.5t26.5 6.5h219q18 0 25 -8t3 -23q-5 -12 -14 -17t-22 -5q-8 0 -14.5 -0.5t-11.5 -0.5h-10.5h-7.5q-8 -2 -13.5 -3.5t-8.5 -4.5
q-5 -3 -8 -7.5t-4 -10.5q-2 -4 -3 -8l-2 -8q-1 -5 -2.5 -9.5t-2.5 -9.5l-118 -464q-3 -11 -5 -19t-2 -13q-2 -6 -1 -10.5t4 -7.5q2 -3 6.5 -4t11.5 -1q6 -1 15.5 -1h21.5q18 0 25.5 -7.5t5.5 -21.5q-2 -6 -5 -10.5t-7 -7.5q-6 -3 -12.5 -4.5t-13.5 -1.5h-218
q-19 0 -26.5 7.5t-2.5 22.5q3 11 12 17t25 6h19t17 2q6 0 12 2t12 5q4 3 8 7.5t7 11.5q3 6 6 14t6 20l54 211h-307l-56 -217l-5 -20t-2 -13q-2 -6 -1 -10.5t4 -6.5q2 -3 6.5 -4t12.5 -1q6 -1 15.5 -1h21.5q18 0 25.5 -7.5t4.5 -21.5q-3 -12 -12.5 -18t-24.5 -6h-219
q-19 0 -26.5 7.5t-2.5 22.5q3 11 12.5 17t24.5 6h19t17 1q6 0 12 1.5t12 4.5q4 3 8 7.5t7 11.5q3 6 6 15t6 21l119 464q3 10 5 19t4 15q0 5 -1 9t-4 7q-3 2 -8 3.5t-11 2.5h-17h-20q-18 0 -25.5 6.5t-4.5 21.5q0 6 3 11t9 8q4 3 10.5 4.5t14.5 1.5h219q18 0 25 -8t3 -23
q-4 -12 -13 -17t-23 -5q-6 0 -11.5 -0.5t-10.5 -0.5h-9h-7q-8 -1 -13.5 -2.5t-8.5 -4.5q-5 -3 -8 -7.5t-6 -10.5q-3 -7 -6.5 -16t-6.5 -20l-49 -190h306z" />
    <glyph glyph-name="Theta" unicode="&#x398;" horiz-adv-x="950" 
d="M560 628q37 0 68.5 -8.5t57.5 -24.5q24 -18 43.5 -39.5t33.5 -46.5q12 -27 19.5 -56.5t10.5 -60.5q1 -33 -1.5 -64.5t-9.5 -61.5q-9 -33 -23 -65.5t-32 -63.5q-20 -33 -42.5 -61.5t-47.5 -52.5q-27 -26 -56.5 -46t-60.5 -35q-33 -16 -67 -23.5t-69 -7.5q-37 0 -68 8
t-56 25q-26 16 -46 37t-33 48q-15 25 -23 54.5t-10 62.5q-3 31 0.5 62.5t12.5 63.5q7 33 20.5 65.5t33.5 65.5q18 31 41.5 59.5t50.5 54.5q26 24 55.5 44.5t62.5 36.5q32 15 65.5 22.5t69.5 7.5zM552 569q-31 0 -58 -7t-51 -20q-25 -15 -46.5 -32.5t-39.5 -38.5
q-20 -23 -36 -47t-29 -51q-14 -27 -25 -54t-18 -53q-8 -23 -11.5 -47.5t-3.5 -49.5q-2 -27 1.5 -51t12.5 -45q7 -23 19.5 -41.5t30.5 -32.5q16 -15 40 -22.5t54 -7.5t57 6.5t53 20.5q24 13 46 30.5t42 40.5q18 21 34.5 45.5t30.5 51.5q12 27 22 54t18 54q6 22 9.5 46t5.5 51
q0 25 -3 49.5t-10 47.5q-8 21 -20.5 40t-28.5 34q-18 14 -42 21.5t-54 7.5zM390 241q-5 0 -8.5 -1.5t-6.5 -4.5q-4 -3 -6.5 -6.5t-2.5 -6.5q-3 -8 -6.5 -15t-7.5 -14q-6 -9 -12.5 -12.5t-14.5 -3.5q-9 0 -14.5 3t-5.5 11q-2 6 -1 15t4 20l29 99l6 16t8 16q3 6 8 10t12 4
q5 0 9.5 -3t8.5 -7q3 -6 3.5 -11t0.5 -10q-1 -6 -1 -11v-10q-1 -6 2 -9t11 -3h157q6 0 11 2.5t9 8.5q3 4 6 9.5t6 11.5q2 6 5 11.5t7 11.5q3 4 8.5 7t13.5 3t13 -4t7 -10q0 -8 -1.5 -18.5t-4.5 -22.5l-28 -100q-2 -5 -3.5 -9t-3.5 -7l-3.5 -7t-2.5 -6q-4 -6 -9.5 -9
t-11.5 -3q-9 0 -14 4.5t-6 13.5q-3 8 -3.5 16t0.5 16q0 1 -0.5 2.5t-0.5 2.5t-0.5 2.5t-0.5 3.5q-2 1 -4 2.5t-4 1.5h-157z" />
    <glyph glyph-name="Iota" unicode="&#x399;" horiz-adv-x="950" 
d="M462 29q-2 -6 -3 -11.5t-2 -9.5t-2 -7.5t-1 -5.5q-2 -6 -2 -10.5t3 -6.5q1 -3 5.5 -4t12.5 -1h16h24q18 0 25 -7.5t4 -22.5q-5 -12 -14 -17.5t-22 -5.5h-220q-20 0 -27.5 7.5t-2.5 22.5q3 11 12.5 17t25.5 6h24t19 1q6 0 11.5 1.5t10.5 4.5q3 3 6 7.5t6 11.5q0 3 1 6.5
t3 8.5q1 4 3 9.5t4 11.5l117 464q1 5 2 9.5t1 8.5l2 8t2 7q0 5 -1 9t-2 7q-3 2 -7.5 3.5t-10.5 2.5h-8h-8q-5 0 -10 0.5t-11 0.5q-20 0 -27.5 7t-2.5 22q3 12 12.5 18t24.5 6h220q18 0 25 -8t3 -23q-4 -12 -13 -17t-23 -5q-8 0 -14.5 -0.5t-12.5 -0.5h-9.5h-7.5
q-8 -1 -12.5 -2.5t-7.5 -4.5q-4 -3 -7 -7.5t-4 -10.5q-3 -7 -6 -16t-7 -20z" />
    <glyph glyph-name="Kappa" unicode="&#x39a;" horiz-adv-x="950" 
d="M298 136l-26 -106q-3 -11 -5 -19t-2 -13q-2 -6 -0.5 -10.5t4.5 -7.5q2 -3 6.5 -4t11.5 -1q6 -1 15 -1h21q18 0 25.5 -7.5t4.5 -21.5q-3 -12 -12.5 -18t-24.5 -6h-218q-11 0 -17.5 1.5t-9.5 6.5q-4 3 -5 8.5t1 13.5q3 11 12.5 17t24.5 6h19.5t17.5 1q6 0 12 2t12 5
q4 3 8.5 7.5t7.5 11.5q3 6 6 14.5t6 20.5l118 464q1 10 2.5 18t3.5 14q0 5 -1 9.5t-2 7.5q-3 2 -7.5 3.5t-10.5 2.5h-8h-8q-5 0 -10 0.5t-11 0.5q-15 0 -22.5 6.5t-7.5 20.5q0 6 3.5 11.5t9.5 8.5q5 3 11 4.5t13 1.5h218q19 0 26.5 -8t3.5 -23q-5 -12 -14 -17t-22 -5
q-6 0 -11.5 -0.5t-10.5 -0.5h-9h-7q-8 -1 -13.5 -2.5t-9.5 -3.5q-5 -3 -8.5 -7.5t-6.5 -10.5q-3 -7 -6.5 -16t-6.5 -21l-66 -261l342 300q9 9 11.5 13.5t-1.5 6.5q-6 0 -22 1t-41 2q-18 0 -25.5 7t-2.5 22q3 12 11.5 18t23.5 6h231q18 0 25 -8t4 -23q-5 -12 -13.5 -17
t-21.5 -5q-16 0 -29.5 -1.5t-24.5 -3.5q-12 -3 -25 -10.5t-25 -17.5l-246 -216l153 -301q5 -12 12.5 -18.5t16.5 -8.5q9 -3 20 -4t26 -1t22 -7.5t5 -21.5q-2 -6 -4.5 -10t-6.5 -7q-6 -4 -12 -5.5t-12 -1.5h-240q-15 0 -22 6.5t-7 21.5q4 12 13.5 18.5t23.5 6.5q24 0 39 1
t23 4q6 2 8.5 6.5t0.5 10.5l-125 255z" />
    <glyph glyph-name="Lambda" unicode="&#x39b;" horiz-adv-x="950" 
d="M564 471l-286 -465q-5 -7 -8 -11.5t-4 -7.5q-3 -4 -4 -6.5t1 -3.5q0 -2 3 -2.5t9 -0.5q4 -1 11 -1h18q18 0 25 -8t4 -23q-5 -12 -14 -17t-22 -5h-162q-8 0 -13.5 1.5t-9.5 6.5q-5 3 -6.5 8.5t1.5 13.5q0 4 3 8t9 8q4 3 9.5 5t13.5 2q9 0 17 0.5t15 2.5q6 1 11.5 3.5
t11.5 6.5q4 3 9 8.5t10 11.5q1 3 3.5 6t4.5 7q2 3 4.5 7t5.5 9l350 570q6 10 12.5 15.5t15.5 5.5q8 0 13 -6.5t8 -18.5l63 -602q0 -9 3 -15t8 -7q3 -3 12.5 -3.5t24.5 -0.5q18 0 24.5 -8t3.5 -23q-5 -12 -14 -17t-22 -5h-184q-8 0 -14 1.5t-10 5.5q-5 3 -6.5 8t1.5 12
q1 6 4.5 11.5t9.5 8.5q4 3 10 4.5t12 1.5q15 0 26.5 1.5t17.5 6.5q5 3 7 9t2 15z" />
    <glyph glyph-name="Mu" unicode="&#x39c;" horiz-adv-x="950" 
d="M311 483l-117 -458q-3 -10 -5 -17.5t-2 -11.5q-2 -6 -2 -10t3 -6q1 -3 4.5 -4.5t9.5 -1.5q5 -1 13.5 -1h20.5q17 0 24.5 -7.5t4.5 -22.5q-3 -12 -12 -17.5t-24 -5.5h-182q-20 0 -27.5 7t-2.5 22q3 12 12.5 18t24.5 6h18.5t14.5 1q6 0 10.5 1.5t9.5 4.5q3 3 6 7.5t6 10.5
q0 2 1 5.5t3 7.5q1 4 3 9t4 11l121 471q1 9 2.5 16.5t3.5 13.5q0 4 -0.5 8t-1.5 7q-3 2 -6.5 3.5t-7.5 2.5h-6.5h-7.5t-8.5 0.5t-9.5 0.5q-8 0 -14 1.5t-10 6.5q-5 3 -6.5 8t0.5 12q0 6 3.5 11.5t9.5 8.5q5 3 11 4.5t13 1.5h148q7 0 12 -1.5t7 -4.5q0 -2 0.5 -4t1.5 -5
t1.5 -6.5t1.5 -7.5l45 -502l292 508h-1q2 4 5 8t8 8q3 3 7 5t10 2h148q8 0 14 -2.5t11 -5.5q3 -5 4 -10.5t0 -11.5q-3 -12 -11.5 -18t-23.5 -6h-16.5t-13.5 1q-8 0 -13.5 -0.5t-9.5 -1.5q-6 -2 -10 -5t-7 -6q-4 -5 -7 -11.5t-4 -15.5l-124 -486q-2 -6 -3.5 -11t-1.5 -9
q-1 -4 -1.5 -7.5t-0.5 -5.5q-2 -6 -1 -10.5t4 -6.5q1 -3 5.5 -4t12.5 -1q6 -1 15.5 -1h21.5q17 0 24.5 -7.5t4.5 -22.5q-3 -12 -12 -17.5t-24 -5.5h-218q-11 0 -17.5 1.5t-9.5 6.5q-4 3 -5 8t1 13q3 12 12.5 18t24.5 6h21.5t17.5 1q6 0 12 1.5t11 4.5q4 3 8 7.5t7 11.5
q3 6 6 15t6 21l111 438l-311 -538q-9 -15 -16.5 -22t-14.5 -7q-5 0 -8.5 1.5t-6.5 5.5q-4 3 -5.5 7t-1.5 10z" />
    <glyph glyph-name="Nu" unicode="&#x39d;" horiz-adv-x="950" 
d="M712 502q0 4 1 8l2 8q1 3 2 6.5t2 6.5q1 4 1 8.5t-1 7.5q-3 2 -6.5 3.5t-8.5 2.5h-7h-8t-8.5 0.5t-9.5 0.5q-17 0 -25 6.5t-6 21.5q0 6 3 11.5t9 8.5t12 4.5t14 1.5h182q18 0 25 -8t3 -23q-5 -12 -14 -17.5t-22 -5.5q-6 0 -10.5 -0.5t-8.5 -0.5h-7.5h-6.5q-6 -1 -11 -2.5
t-8 -3.5q-4 -3 -7 -7t-5 -10q-3 -6 -6 -15t-6 -19l-145 -571q-3 -5 -5.5 -8t-5.5 -5q-4 -3 -8 -4.5t-8 -1.5q-9 0 -15.5 4.5t-9.5 14.5l-226 565l-118 -465q-3 -9 -5 -16.5t-2 -11.5q-2 -6 -2 -10t3 -6q1 -3 4.5 -4.5t9.5 -1.5q4 -2 12.5 -2h20.5q18 0 25.5 -7.5t4.5 -22.5
q-3 -12 -12.5 -17.5t-24.5 -5.5h-182q-19 0 -26.5 7t-2.5 22q3 12 12.5 18t24.5 6h18.5t15.5 1q6 0 10.5 2t9.5 5q3 3 6.5 7.5t6.5 10.5q0 2 1 5.5t2 7.5t2.5 8.5l3.5 10.5l120 471l2 8t1 8q1 4 2 7.5t2 6.5v8t-1 7q-3 2 -6.5 3.5t-8.5 2.5h-7h-8t-8.5 0.5t-9.5 0.5
q-8 0 -13.5 1.5t-8.5 6.5q-5 3 -7 8t0 12q0 6 3.5 11.5t9.5 8.5q5 3 11 4.5t12 1.5h122q4 0 8.5 -1.5t8.5 -4.5l6 -8l6 -8l199 -499z" />
    <glyph glyph-name="Xi" unicode="&#x39e;" horiz-adv-x="950" 
d="M155 -79q-16 0 -22 7.5t-3 22.5l42 194q0 5 2.5 9.5t6.5 9.5q3 3 6.5 5.5t8.5 4.5q7 0 13 -2t9 -7q2 -6 3.5 -11.5t1.5 -11.5q-3 -23 -4.5 -41t-1.5 -32q0 -15 1.5 -25.5t4.5 -17.5q3 -9 7.5 -14.5t11.5 -8.5q6 -5 14.5 -7.5t19.5 -2.5q9 -2 21.5 -2.5t27.5 -0.5h171
q22 0 41 2t34 7q13 4 25 11t22 18q9 9 17.5 21.5t16.5 27.5q3 7 6.5 15.5t7.5 17.5t8 18.5t9 20.5q3 9 6.5 15t8.5 11q3 3 7 5t9 2q4 0 8.5 -3t7.5 -8q3 -6 3 -14t-2 -17l-62 -194q-3 -8 -6 -12.5t-6 -6.5q-4 -3 -9.5 -4.5t-11.5 -1.5h-481zM778 609q8 0 14 -2t10 -5
q3 -4 3.5 -10t-1.5 -14l-42 -193q-2 -6 -4.5 -11t-5.5 -8q-5 -5 -9 -7.5t-7 -2.5q-6 -2 -11 -0.5t-8 6.5q-5 3 -6.5 9t0.5 15q0 9 1 19t3 19v8v7q0 4 0.5 8t0.5 8q0 14 -1.5 25.5t-4.5 20.5q-3 8 -7.5 14.5t-10.5 11.5q-7 3 -15.5 6t-17.5 5q-11 0 -23.5 1t-26.5 1h-117
q-24 0 -43 -2.5t-32 -5.5q-15 -5 -26.5 -12t-20.5 -16q-10 -10 -18.5 -22t-14.5 -27q-8 -16 -15.5 -35t-15.5 -40q-3 -6 -6.5 -9.5t-7.5 -4.5q-6 -3 -10.5 -3.5t-8.5 0.5q-5 0 -8.5 1.5t-6.5 4.5q-4 2 -5.5 5.5t0.5 8.5l66 201q3 12 11.5 18.5t20.5 6.5h427zM376 231
q-5 0 -8.5 -1.5t-6.5 -4.5q-4 -4 -6.5 -8t-3.5 -7q-3 -8 -7 -15t-8 -13q-6 -8 -12.5 -11.5t-13.5 -3.5q-12 0 -17 3t-5 11q-1 6 0.5 16t5.5 23l28 95q3 8 6.5 16t7.5 16q3 6 8 10t12 4q5 0 9.5 -2.5t7.5 -6.5q3 -6 4.5 -11t1.5 -10q0 -2 -0.5 -3t-0.5 -2v-2v-2q-1 -3 -1 -6
v-5q0 -3 0.5 -5.5t2.5 -3.5q0 -3 2.5 -4t6.5 -1h192q6 0 10.5 3t9.5 9q3 6 6 11t5 11q2 5 5 10t8 11q3 4 8.5 7t13.5 3t13 -3.5t7 -9.5q0 -8 -1 -18t-4 -22l-28 -94q-4 -11 -7.5 -20t-6.5 -15q-4 -8 -9.5 -11t-11.5 -3q-8 0 -12.5 2t-5.5 8q-3 4 -4.5 10t-1.5 12q-1 6 -1 11
v11q-1 4 -3 7t-5 4h-190z" />
    <glyph glyph-name="Omicron" unicode="&#x39f;" horiz-adv-x="950" 
d="M560 628q37 0 68 -8.5t57 -24.5q24 -18 43.5 -39.5t33.5 -46.5q12 -27 20 -56.5t11 -60.5q1 -33 -1.5 -64.5t-9.5 -61.5q-9 -33 -23 -65.5t-32 -63.5q-20 -33 -42.5 -61.5t-47.5 -52.5q-27 -26 -56.5 -46t-60.5 -35q-33 -16 -67 -23.5t-69 -7.5q-39 0 -70 7.5t-55 24.5
q-26 15 -45 36t-31 48q-14 25 -21.5 54t-9.5 62q-3 31 -1 63.5t10 65.5q7 33 20.5 65.5t33.5 65.5q18 31 41.5 59.5t50.5 54.5q26 24 55.5 44.5t62.5 36.5q32 15 65.5 22.5t69.5 7.5zM552 569q-31 0 -58 -7t-51 -20q-25 -15 -46.5 -32.5t-39.5 -38.5q-20 -23 -36 -47
t-29 -51q-14 -27 -25 -54t-18 -53q-8 -23 -11.5 -47.5t-3.5 -49.5q-2 -27 1.5 -51t11.5 -45q7 -23 19.5 -41.5t30.5 -32.5q17 -15 41 -22.5t54 -7.5t57 6.5t53 20.5q24 13 46 30.5t42 40.5q18 21 34.5 45.5t30.5 51.5q12 27 22 54t18 54q6 21 9 45t5 51q0 25 -3 49.5
t-9 47.5q-8 21 -20.5 40t-28.5 34q-18 15 -42 22.5t-54 7.5z" />
    <glyph glyph-name="Pi" unicode="&#x3a0;" horiz-adv-x="950" 
d="M539 555h-24.5t-20.5 1q-11 0 -20 -1t-16 -2q-9 -3 -16 -7.5t-13 -10.5q-7 -8 -13 -18.5t-10 -23.5l-110 -438q-5 -15 -8 -26.5t-4 -18.5q-3 -9 -3 -15t3 -10q1 -5 5.5 -7.5t11.5 -2.5q6 -2 16 -2h24q18 0 25 -7.5t3 -22.5q-4 -12 -13 -17.5t-23 -5.5h-219
q-18 0 -25.5 7.5t-4.5 22.5q3 11 12.5 17t24.5 6q12 0 22.5 0.5t18.5 2.5q6 0 12 3t11 8q4 4 8 11t8 16q3 8 6.5 20t8.5 27l111 438q1 10 2.5 18t3.5 14q0 5 -0.5 9.5t-2.5 7.5q-3 2 -7.5 3.5t-10.5 2.5h-8h-8q-5 0 -10 0.5t-11 0.5q-19 0 -26.5 7t-2.5 22q3 12 12.5 18
t24.5 6h547q18 0 25 -8t4 -23q-5 -12 -14 -17t-22 -5q-6 0 -11.5 -0.5t-10.5 -0.5h-9h-7q-8 -1 -13.5 -2.5t-9.5 -3.5q-5 -3 -8.5 -7.5t-6.5 -10.5q-3 -7 -6.5 -16t-6.5 -21l-114 -438q-5 -15 -7.5 -26.5t-3.5 -18.5q-3 -9 -3 -15t3 -10q1 -5 5.5 -7.5t12.5 -2.5
q6 -2 16.5 -2h25.5q18 0 25 -7.5t3 -22.5q-5 -12 -14 -17.5t-22 -5.5h-219q-20 0 -28 7.5t-3 22.5q3 11 12.5 17t25.5 6h26t19 2q6 0 11.5 3t10.5 8q3 4 6.5 11t6.5 16q2 8 5.5 20t9.5 28l110 438q3 10 4 18.5t0 14.5q-3 5 -7.5 9.5t-11.5 7.5q-8 2 -18 3.5t-22 2.5h-29h-31
z" />
    <glyph glyph-name="Rho" unicode="&#x3a1;" horiz-adv-x="950" 
d="M485 555h-12.5h-9.5q-5 0 -8.5 -1t-6.5 -2q-4 -2 -7 -5t-5 -6q-3 -5 -5.5 -11t-4.5 -13l-63 -244h97q21 0 42.5 2.5t42.5 8.5q20 5 38 13.5t35 20.5q15 11 28 26t24 33q9 18 14 39t5 47q0 21 -7.5 38.5t-20.5 29.5q-15 12 -36.5 18t-48.5 6h-91zM577 608q18 -1 36 -3.5
t36 -5.5q17 -5 32.5 -11t30.5 -14q13 -9 24 -20t20 -24q8 -14 12.5 -30.5t4.5 -35.5q0 -26 -6 -49.5t-17 -44.5q-12 -23 -28 -42.5t-34 -35.5q-20 -18 -42 -31.5t-46 -22.5q-26 -11 -51.5 -15.5t-50.5 -4.5h-148l-49 -189q-3 -11 -5.5 -19t-2.5 -13q-2 -6 -0.5 -10.5
t4.5 -7.5q2 -3 6.5 -4t12.5 -1q6 -1 15.5 -1h21.5q17 0 24.5 -7.5t5.5 -21.5q-3 -12 -12.5 -18t-24.5 -6h-219q-19 0 -26.5 7.5t-2.5 22.5q3 11 12 17t25 6h21.5t17.5 1q6 0 12 2t11 5q3 3 6.5 7.5t6.5 11.5q2 6 5 14.5t7 20.5l125 486q2 6 2.5 11.5t-0.5 9.5q-2 3 -5 5.5
t-7 4.5l-10 2t-11 1h-13.5h-12.5q-19 0 -26.5 7t-2.5 22q3 12 12 18t24 6h280z" />
    <glyph glyph-name="Sigma" unicode="&#x3a3;" horiz-adv-x="950" 
d="M180 -80q-11 0 -18.5 1.5t-11.5 4.5q-6 3 -8 6t-2 8q0 3 1.5 8.5t6.5 11.5q3 5 7.5 11l10.5 14l258 280l-116 289q-3 9 -4.5 16.5t-1.5 13.5t2 11t7 8q3 2 10 3.5t18 1.5h438q10 0 16.5 -1.5t9.5 -2.5q2 -3 2 -10t-2 -17l-40 -196q-5 -15 -13 -21.5t-18 -6.5q-5 0 -8 1.5
t-6 5.5q-3 3 -5 7.5t-2 12.5l2 58q0 40 -5.5 63.5t-15.5 29.5q-12 5 -32.5 9.5t-50.5 9.5q-31 3 -71.5 4.5t-90.5 0.5h-14t-10 1q-6 0 -9.5 -1t-5.5 -1q-3 -2 -4 -3.5t-1 -4.5q-1 -4 0 -9.5t4 -12.5v1l94 -225v-1q2 -6 2.5 -11.5t0.5 -11.5q-2 -7 -6 -14.5t-10 -15.5
l-250 -264q-3 -5 -0.5 -7t10.5 -2q60 0 109 1.5t88 5.5q37 3 64 7.5t44 10.5q14 5 28.5 18t29.5 34q14 20 27.5 46t27.5 58q1 3 4 6t8 5h7.5h9.5q3 -2 7 -3.5t7 -3.5q3 -3 3.5 -6.5t0.5 -6.5l-60 -201q-1 -6 -4 -10.5t-8 -7.5q-6 -3 -12 -4.5t-10 -1.5h-439z" />
    <glyph glyph-name="Tau" unicode="&#x3a4;" horiz-adv-x="950" 
d="M759 609q10 0 16.5 -1.5t9.5 -2.5q2 -3 2 -10t-2 -17l-41 -200q-2 -10 -5 -17.5t-9 -11.5q-6 -6 -11.5 -8t-9.5 -2q-5 0 -8.5 2t-5.5 8q-3 4 -3.5 11t1.5 18q0 6 1.5 14t4.5 20q0 5 0.5 10.5t1.5 11.5t1.5 12t1.5 12q0 11 -0.5 22t-0.5 22q-2 10 -5 18t-7 14
q-12 12 -36.5 18.5t-62.5 6.5q-12 0 -20 -1t-12 -2q-6 -3 -10.5 -9.5t-7.5 -16.5l-127 -500q-3 -11 -5.5 -19t-2.5 -13q-2 -6 -0.5 -10.5t4.5 -7.5q2 -3 6.5 -4t12.5 -1q6 -1 15.5 -1h21.5q17 0 24.5 -7.5t4.5 -21.5q-3 -12 -12.5 -18t-24.5 -6h-219q-18 0 -25.5 7.5
t-4.5 22.5q3 11 12.5 17t24.5 6h20t17 1q6 0 12 1t11 4q4 3 8 7.5t7 11.5q1 3 2.5 6.5t3.5 8.5q1 5 3 10.5t4 11.5l127 500q1 6 0.5 11t-2.5 8q-3 1 -10 2.5t-19 1.5q-39 0 -68 -7t-47 -19q-9 -8 -19 -21.5t-20 -33.5q-12 -21 -23.5 -48t-23.5 -60q-3 -6 -6 -9t-7 -4
q-5 -3 -9.5 -3.5t-7.5 1.5q-5 0 -8.5 2.5t-6.5 6.5q-3 3 -4 6.5t1 9.5l62 203q2 8 5 13.5t8 8.5q3 1 8 2.5t13 1.5h481z" />
    <glyph glyph-name="Upsilon" unicode="&#x3a5;" horiz-adv-x="950" 
d="M402 30q-2 -5 -3 -9t-1 -8q-1 -4 -2 -7t-1 -5q-2 -6 -2 -10t2 -7q0 -3 3 -5.5t9 -2.5q4 -2 12.5 -2h20.5q18 0 26 -7.5t5 -21.5q-3 -12 -12.5 -18t-24.5 -6h-188q-20 0 -28 7.5t-3 22.5q3 11 12.5 17t25.5 6h18.5t14.5 1q5 0 9.5 2t7.5 5t5 7.5t5 11.5q0 3 1 6.5t3 7.5
q1 4 2.5 9.5t3.5 11.5l64 250q6 24 10.5 48.5t9.5 51.5q3 25 3 50t-3 51q-6 33 -33.5 49.5t-76.5 16.5q-14 0 -20.5 4.5t-6.5 14.5q0 4 2 8.5t8 9.5q4 3 10 5.5t14 3.5q42 1 73.5 -7t54.5 -25q21 -18 35 -48.5t20 -72.5q9 14 20 29t25 30q12 14 26.5 27.5t31.5 25.5
q15 11 31.5 20.5t34.5 17.5q16 7 33 10.5t34 3.5q18 0 31.5 -6.5t22.5 -18.5q9 -13 11 -28.5t-2 -33.5q-3 -15 -10 -26t-18 -18q-12 -9 -24 -13t-24 -4q-9 0 -17.5 3.5t-14.5 12.5q-8 7 -11 17.5t-1 24.5q0 2 0.5 5t2.5 7q0 3 1 5t3 5q-17 -6 -34 -16.5t-33 -24.5
q-18 -15 -33.5 -32t-28.5 -35q-15 -19 -27.5 -38.5t-21.5 -38.5q-11 -21 -17.5 -38.5t-9.5 -32.5z" />
    <glyph glyph-name="Phi" unicode="&#x3a6;" horiz-adv-x="950" 
d="M454 47q22 3 42.5 9.5t40.5 17.5q18 9 35.5 21t33.5 27q15 14 27.5 30.5t24.5 35.5q10 18 18.5 37.5t14.5 40.5q12 39 9.5 73t-17.5 64q-17 28 -46.5 47.5t-71.5 30.5zM245 260q-6 -21 -8.5 -39.5t-0.5 -35.5q0 -18 5 -34t14 -29q7 -15 19 -27t27 -21q14 -11 32 -18
t39 -11l111 435q-23 -4 -43.5 -10.5t-38.5 -15.5q-20 -11 -37.5 -23t-32.5 -26q-16 -15 -29.5 -31.5t-23.5 -34.5q-12 -19 -20 -38.5t-13 -40.5zM344 -19q3 1 7 5t7 10q-27 1 -50.5 8t-44.5 19q-22 12 -40 27t-31 35q-15 18 -25 39t-14 45q-6 23 -5 47t9 50q6 25 18 49.5
t30 48.5q16 23 36.5 44t44.5 40q23 18 48.5 32.5t53.5 26.5q27 10 54 16.5t54 8.5q0 6 -1.5 10.5t-5.5 8.5q-3 1 -16 2.5t-36 1.5q-16 0 -23.5 6.5t-7.5 20.5q4 12 13.5 19t23.5 7h220q18 0 25 -8t3 -23q-4 -12 -13 -17t-22 -5q-24 0 -40 -2t-24 -5q-2 -2 -3.5 -4t-2.5 -4
q-3 -3 -5 -5.5t-3 -4.5q25 -3 49 -9.5t46 -18.5q21 -12 38.5 -27.5t32.5 -33.5q13 -20 22.5 -41t15.5 -44q4 -24 3 -48t-7 -48q-7 -27 -19 -51.5t-28 -46.5q-18 -24 -38 -44t-42 -38q-24 -18 -49 -33t-52 -25q-28 -12 -55 -18.5t-54 -7.5q-2 -8 1 -12.5t11 -5.5q6 -3 18 -4
t30 -1q17 0 24.5 -7.5t5.5 -21.5q-3 -12 -12 -18t-24 -6h-220q-20 0 -27.5 7.5t-2.5 22.5q3 11 12 17t25 6q22 0 37.5 1.5t24.5 6.5z" />
    <glyph glyph-name="Chi" unicode="&#x3a7;" horiz-adv-x="950" 
d="M434 272l-91 246q-3 7 -6 12.5t-6 10.5q-3 3 -7 5.5t-7 4.5q-5 1 -9.5 2t-9.5 2h-13.5h-16.5t-15 1.5t-9 6.5q-5 3 -6 8t2 13q3 12 12 18t24 6h224q18 0 25 -8t4 -23q-5 -12 -14 -17t-22 -5h-19.5h-14.5q-8 0 -13.5 -1t-8.5 -1q-5 -2 -7 -3.5t-2 -4.5q-2 -4 -0.5 -9
t4.5 -11l66 -180l176 210h-54q-15 0 -22 6.5t-7 20.5q4 12 13.5 19t23.5 7h196q18 0 24.5 -8t3.5 -23q-5 -12 -13.5 -17t-20.5 -5q-6 0 -10.5 -0.5t-8.5 -0.5h-7h-6q-7 -1 -12.5 -2.5t-9.5 -2.5q-6 -3 -11 -6t-9 -6q-6 -5 -12 -11l-13 -13l-198 -231l91 -250q3 -11 7 -19
t10 -14q4 -6 9.5 -10.5t11.5 -7.5q5 -3 11 -4.5t12 -1.5q5 -2 11 -2h12q16 0 23.5 -7.5t4.5 -21.5q-2 -12 -11 -18t-24 -6h-234q-15 0 -22.5 6.5t-7.5 21.5q4 12 13 18.5t23 6.5q6 0 11 -0.5t10 -0.5h9.5h9.5q7 -1 12.5 -0.5t10.5 3.5q3 1 5 5t2 10q-1 5 -3 14t-5 21
l-67 183l-161 -188q-9 -11 -16 -18.5t-11 -11.5q-5 -6 -7 -9.5t0 -4.5q0 -3 4.5 -3.5t12.5 0.5h17.5h26.5q8 0 14 -2.5t11 -5.5q3 -5 3.5 -10.5t-1.5 -11.5q-4 -12 -13 -17.5t-22 -5.5h-208q-9 0 -14.5 2t-7.5 7q-3 4 -4.5 8.5t-1.5 10.5q2 6 5.5 11t8.5 8q4 2 9.5 3.5
t11.5 2.5q11 0 20.5 0.5t17.5 2.5q6 0 13 2.5t13 6.5q5 3 11 8t12 11t13.5 14t16.5 19z" />
    <glyph glyph-name="Psi" unicode="&#x3a8;" horiz-adv-x="950" 
d="M452 172q22 3 41 8.5t34 13.5q15 6 27 16t23 22q9 11 17 25.5t14 32.5q5 16 9.5 37t9.5 45q4 19 9.5 39.5t11.5 41.5q4 20 11.5 38.5t16.5 36.5q9 16 21 30t27 26q14 10 33.5 16t43.5 6q25 0 39.5 -8.5t19.5 -24.5q3 -15 2 -27.5t-5 -22.5q-6 -12 -18.5 -17t-31.5 -5
q-11 0 -18.5 6t-10.5 19q-2 5 -3 10t-1 11q-1 4 -3.5 6t-5.5 2q-9 -2 -16 -11t-13 -26q-6 -18 -10.5 -41.5t-6.5 -51.5q-3 -70 -22.5 -125t-55.5 -94q-37 -41 -88 -62.5t-115 -22.5l-22 -92q-2 -6 -3.5 -11t-2.5 -9t-1.5 -7.5t-0.5 -5.5q-2 -6 -1.5 -10.5t3.5 -6.5
q1 -3 5.5 -4t12.5 -1q6 -1 15.5 -1h23.5q18 0 25 -7.5t4 -22.5q-5 -12 -14.5 -17.5t-22.5 -5.5h-219q-20 0 -27.5 7.5t-2.5 22.5q3 11 12 17t26 6h21t17 1q6 0 12 2t11 5q3 3 7 7.5t7 11.5q1 3 2 6.5t3 7.5q1 4 3 9.5t5 11.5l21 87q-17 0 -32.5 3.5t-30.5 9.5
q-16 4 -29.5 11.5t-24.5 18.5q-12 9 -21.5 20.5t-15.5 26.5q-8 13 -11 29.5t-3 34.5q0 34 11 74t34 87q17 36 26 61.5t9 40.5q0 6 -3.5 10t-9.5 5q-7 -2 -14.5 -9.5t-14.5 -22.5q-8 -13 -16.5 -19t-17.5 -6t-18 4.5t-16 13.5q-10 12 -9 28t13 34q9 14 26.5 21.5t43.5 7.5
q18 0 34 -4.5t30 -12.5q12 -9 20 -24.5t11 -36.5q1 -14 -1 -32t-6 -40q-6 -23 -13 -45t-14 -43q-6 -17 -11.5 -32t-8.5 -28q-5 -15 -6.5 -27.5t-1.5 -21.5q0 -11 2 -19.5t7 -15.5q4 -9 10 -15.5t14 -11.5q6 -6 14.5 -10t17.5 -7q9 -4 18 -6.5t19 -3.5l85 329q1 5 2 9.5
t2 8.5l2 8t2 7q0 5 -1 9.5t-3 7.5q-3 2 -7.5 3.5t-10.5 2.5h-16h-21q-16 0 -23.5 6.5t-7.5 20.5q0 6 3.5 11.5t9.5 8.5q5 3 11 4.5t14 1.5h220q18 0 25 -8t3 -23q-5 -12 -14 -17t-22 -5q-6 0 -11.5 -0.5t-10.5 -0.5h-9h-7q-8 -1 -13.5 -2.5t-8.5 -3.5q-5 -3 -8.5 -7.5
t-6.5 -10.5q-3 -7 -6.5 -16t-6.5 -21z" />
    <glyph glyph-name="uni03A9" unicode="&#x3a9;" horiz-adv-x="950" 
d="M494 -9h12q19 0 36 1.5t31 5.5q13 3 24.5 8t21.5 14q9 7 17.5 17t16.5 24q7 12 14.5 28t16.5 36q2 5 5 9.5t8 7.5q3 2 6.5 3.5t7.5 1.5t7.5 -3t6.5 -8q1 -6 1 -13.5t-3 -16.5l-53 -166q-3 -5 -5 -8t-4 -5q-3 -3 -9 -4.5t-13 -1.5h-221l43 171q27 1 52.5 9t51.5 23
q24 13 45.5 31t40.5 41q18 21 32.5 45.5t26.5 51.5q10 27 16 54t6 56q0 18 -3 35t-8 33q-6 15 -14 28t-18 25q-11 10 -24 19t-28 16q-16 6 -34 9t-37 3q-26 0 -50.5 -5.5t-46.5 -14.5q-24 -11 -44.5 -24t-38.5 -29q-20 -18 -36 -37t-28 -40q-14 -23 -23.5 -45.5t-15.5 -46.5
q-6 -21 -8.5 -41.5t-0.5 -40.5q0 -21 4 -40t13 -35q7 -18 19.5 -32t29.5 -24q15 -12 36 -18t47 -7l-43 -170h-221q-18 0 -24.5 7.5t-2.5 23.5q3 19 7 39t9 41q3 19 6.5 39t8.5 40q0 4 2.5 7.5t7.5 6.5q3 1 7 2.5t9 1.5q3 0 7 -1.5t8 -2.5q3 -3 4.5 -6.5t1.5 -7.5
q-2 -6 -2 -12v-11q-1 -6 -1 -11v-8q0 -15 1.5 -26.5t6.5 -18.5q3 -9 8.5 -14.5t13.5 -8.5q6 -4 15 -6t21 -2q10 -1 23.5 -1.5t28.5 -0.5h14l14 58q-24 4 -44.5 14.5t-37.5 25.5q-18 14 -32 31t-24 38q-11 19 -17.5 41t-8.5 46q-3 22 -1.5 44.5t9.5 45.5q6 30 19 58t33 55
q18 26 40 49t49 43q25 19 53.5 34.5t59.5 27.5q30 10 60.5 16t62.5 6q25 0 49.5 -4.5t47.5 -11.5q21 -9 40.5 -20.5t36.5 -25.5q15 -15 28 -33t23 -38q9 -21 13.5 -44.5t4.5 -47.5q0 -37 -8.5 -71.5t-24.5 -65.5q-18 -33 -40.5 -62t-50.5 -54q-21 -20 -42 -35.5t-42 -27.5
q-22 -13 -47 -22t-53 -14z" />
    <glyph glyph-name="alpha" unicode="&#x3b1;" horiz-adv-x="950" 
d="M265 381q15 0 30.5 -4.5t33.5 -12.5q12 -8 22 -17t18 -19q6 -12 10 -26.5t5 -31.5l30 56q2 4 5 9t6 11q2 4 5 8.5t8 8.5q3 3 7 5t10 4q4 0 10 -0.5t12 -2.5q9 -5 13.5 -12.5t4.5 -19.5t-5.5 -25t-14.5 -27q-3 -4 -5.5 -8t-4.5 -8t-4.5 -8t-4.5 -7q-3 -5 -6 -9.5t-6 -9.5
t-5.5 -10t-5.5 -10q-4 -6 -7.5 -12t-6.5 -12q-4 -7 -7.5 -13.5t-6.5 -12.5l-8 -16t-9 -16q-4 -9 -8.5 -18t-8.5 -18q-5 -9 -8 -19t-4 -19q-3 -11 -3.5 -20.5t1.5 -17.5v1q1 -9 4.5 -16.5t9.5 -11.5q5 -6 11 -8.5t13 -2.5q13 0 23 -2t16 -6q5 -6 5.5 -13t-3.5 -16
q-11 -17 -27.5 -23.5t-39.5 -3.5q-11 1 -19.5 3.5t-15.5 6.5q-8 3 -14.5 7.5t-12.5 10.5q-7 6 -12.5 14.5t-8.5 19.5q-6 -6 -12 -11t-13 -11q-9 -7 -17 -13t-16 -11q-9 -7 -18 -12t-17 -8q-9 -4 -18.5 -5.5t-18.5 -1.5q-17 0 -31 3t-26 11q-13 6 -23.5 15.5t-18.5 21.5
q-9 11 -16 24t-11 28q-5 14 -7 29t0 30q0 12 3 27t8 33q4 16 10 33t14 35q7 16 16 33t20 34q10 16 22 30.5t26 28.5q12 12 26.5 22.5t30.5 19.5q15 7 31.5 11t34.5 4zM298 320q-21 6 -42.5 -2.5t-45.5 -32.5q-23 -23 -41.5 -50t-32.5 -57q-15 -32 -23.5 -62.5t-10.5 -60.5
q-1 -8 -0.5 -15t2.5 -13q0 -8 2.5 -14.5t7.5 -12.5q3 -6 8 -11t11 -8q6 -5 13 -6.5t16 -1.5q16 0 32.5 8t32.5 26q25 27 43.5 55t30.5 56q10 27 17 57t10 63q0 15 -1 28t-4 25q-5 10 -11 17t-14 12z" />
    <glyph glyph-name="beta" unicode="&#x3b2;" horiz-adv-x="950" 
d="M101 -96q-5 -27 -9.5 -46.5t-9.5 -31.5q-6 -13 -16 -18.5t-23 -2.5q-15 4 -22 15.5t-5 30.5q4 33 11 71.5t17 80.5q9 41 19.5 83t22.5 85q10 42 22 82.5t24 80.5q12 39 22.5 72.5t20.5 63.5q6 15 12 29t14 28q6 12 14.5 23t17.5 20t19.5 15.5t22.5 12.5q11 4 24.5 7
t28.5 3q16 0 32.5 -3.5t31.5 -9.5q15 -8 27.5 -17t24.5 -20q10 -12 19 -26.5t16 -29.5q6 -17 9 -34t3 -35q0 -12 -2 -24.5t-5 -25.5q-5 -14 -10 -26.5t-11 -24.5q-8 -12 -16.5 -22.5t-17.5 -19.5q-11 -9 -22.5 -15t-23.5 -7q5 -3 10 -9t11 -13q4 -9 8.5 -18t8.5 -19
q3 -11 5.5 -22t4.5 -22q1 -12 1 -23.5v-21.5q-2 -17 -5.5 -33.5t-9.5 -34.5t-14.5 -35t-17.5 -32q-11 -16 -23 -29t-25 -23q-15 -11 -31.5 -16.5t-34.5 -5.5q-24 -2 -45 2t-39 13q-19 9 -35.5 27t-30.5 47zM121 1v-1v1zM277 255q-14 3 -25 8t-19 13q-9 7 -13.5 15t-3.5 17
q2 9 6.5 15.5t11.5 9.5q6 1 15.5 1t21.5 -2q3 -1 6.5 -2t6.5 -2q4 -1 7.5 -2t7.5 -1q6 -3 13 -5t15 -3q9 -3 17 -1t16 9q7 6 13.5 13.5t12.5 17.5q5 9 9.5 19t8.5 21q3 10 5 18.5t4 15.5q0 22 -2 41.5t-7 36.5q-6 15 -19 26t-32 17q-21 3 -39 -2t-34 -19q-17 -15 -30.5 -37
t-22.5 -50q-15 -47 -28.5 -93.5t-25.5 -93.5q-14 -48 -22 -97.5t-11 -98.5q3 -9 7 -16.5t10 -14.5q5 -8 11.5 -14.5t14.5 -11.5q7 -6 15.5 -10.5t17.5 -7.5q9 -4 18 -5.5t20 0.5q15 1 27 6.5t23 15.5q9 9 17 20t14 25q6 12 10 26t7 29q2 13 3.5 26t2.5 25q0 6 -1 13.5
t-2 16.5q-1 3 -2 6.5t-2 7.5t-2 7.5t-2 7.5q-3 6 -5.5 12t-4.5 12q-3 4 -6 8.5t-4 7.5h-12.5t-12.5 1h-14t-11 2z" />
    <glyph glyph-name="gamma" unicode="&#x3b3;" horiz-adv-x="950" 
d="M97 304q-15 -31 -28 -43t-25 -5q-12 9 -10 30.5t20 57.5q9 16 20.5 28.5t26.5 20.5q14 6 30.5 9t35.5 2q27 -4 47.5 -16t34.5 -33q13 -21 20 -49t9 -62v-107l2 3.5t7 10.5q1 3 3 6.5t5 7.5q2 5 5 9.5t6 10.5q6 9 12.5 20.5t14.5 24.5q7 12 14.5 24t15.5 25q6 12 13 23
l14 22q6 10 11 18.5t10 15.5q21 30 40.5 38t38.5 -7q15 -14 11.5 -35.5t-25.5 -50.5q-30 -30 -57 -61t-50 -64q-24 -35 -45 -71t-37 -75q-3 -5 -5 -9.5t-4 -8.5q-2 -5 -4 -8.5t-3 -6.5q-4 -8 -7 -15.5t-6 -14.5q-3 -8 -6 -15.5t-6 -14.5q-4 -9 -7.5 -18.5t-6.5 -20.5
q-9 -24 -18.5 -43t-19.5 -32q-11 -14 -23 -17.5t-24 4.5q-17 10 -23 24.5t-3 34.5q0 3 3.5 11t9.5 20q5 10 11.5 22.5t15.5 26.5q7 13 15 26.5t17 27.5q7 12 14.5 22.5t13.5 19.5v6v10t0.5 13.5t1.5 17.5v19.5v23.5t0.5 27t0.5 31q0 28 -4 51.5t-12 41.5q-9 17 -21.5 28.5
t-27.5 17.5q-21 4 -37 -3.5t-25 -26.5z" />
    <glyph glyph-name="delta" unicode="&#x3b4;" horiz-adv-x="950" 
d="M355 198q0 5 -0.5 10.5t-1.5 10.5q0 6 -1 12t-1 12q-3 11 -6.5 21.5t-8.5 20.5q-6 9 -13 17t-16 14q-10 6 -22 9t-26 3q-18 0 -33 -6.5t-27 -18.5q-14 -13 -24.5 -28t-18.5 -32q-9 -18 -15.5 -37t-10.5 -38q-5 -21 -7 -38t-2 -30q0 -12 1 -23t4 -23q2 -12 6 -23.5
t10 -20.5q5 -11 12.5 -19t17.5 -14q9 -7 21 -10t27 -3q16 0 31 6t29 20q12 12 22.5 28t19.5 35q8 18 14 36.5t11 39.5q3 19 5.5 36.5t2.5 32.5zM377 328q7 -8 14 -16.5t13 -17.5q5 -11 10 -21.5t10 -20.5q3 -12 6.5 -23t6.5 -22q0 -6 1 -12t1 -12q1 -5 1.5 -10.5t0.5 -10.5
q0 -21 -4 -42.5t-10 -42.5q-8 -23 -18.5 -43t-23.5 -38q-14 -19 -30.5 -34t-34.5 -27q-20 -12 -41 -18t-44 -6t-43 4.5t-38 13.5q-19 9 -34.5 21t-27.5 27q-14 15 -24 32.5t-16 38.5q-8 19 -11 39.5t-3 41.5t3.5 43.5t11.5 45.5q6 21 16.5 41.5t24.5 38.5q13 17 29.5 31.5
t36.5 26.5q18 11 40 17t46 7q-11 12 -20 26t-18 31q-10 15 -14.5 32.5t-4.5 37.5q0 9 1.5 19t6.5 20q3 9 8 17.5t13 16.5q6 7 14 13t17 11q8 4 17 6.5t20 2.5q18 0 37 -5t39 -14q18 -11 35.5 -23t32.5 -27t27 -31.5t22 -33.5q9 -18 14 -35.5t5 -32.5q0 -9 -3.5 -16t-9.5 -13
q-8 -8 -15.5 -11t-15.5 -3q-12 0 -22.5 9t-19.5 28q-5 7 -10 17t-10 22q-6 11 -12.5 22t-12.5 23q-8 10 -15.5 19t-15.5 18q-9 7 -19.5 11.5t-20.5 6.5q-8 0 -15 -1t-14 -4q-9 -4 -12.5 -12.5t-3.5 -20.5t3 -23.5t11 -23.5q6 -13 14.5 -25t19.5 -24q9 -12 19 -23.5t22 -21.5
q10 -12 19 -21t18 -16z" />
    <glyph glyph-name="epsilon" unicode="&#x3b5;" horiz-adv-x="950" 
d="M342 307q-2 8 -4.5 14.5t-6.5 12.5q-5 4 -11 8t-12 7q-8 2 -15.5 3.5t-15.5 3.5h-9.5h-8.5t-8 0.5t-8 0.5q-20 0 -36 -5.5t-28 -15.5q-14 -11 -20 -25t-6 -32q0 -12 3 -22t10 -17q6 -9 13.5 -15t17.5 -9q9 -5 19 -8t22 -4q10 -2 20.5 -2.5t21.5 -0.5t21.5 -0.5t19.5 -1.5
q9 -2 13.5 -8.5t4.5 -17.5t-6 -16.5t-17 -5.5q-12 -2 -26.5 -2.5t-30.5 1.5q-29 -2 -51.5 -8.5t-37.5 -17.5q-17 -12 -24.5 -28t-7.5 -37q0 -23 8 -40.5t26 -29.5q16 -14 40 -20t55 -6q16 0 30.5 3.5t28.5 12.5q12 7 19.5 20.5t9.5 33.5q0 11 4 21.5t12 21.5q7 9 17.5 13
t24.5 3q9 -3 16.5 -8t13.5 -14q4 -10 5 -20t-2 -20q-10 -27 -27.5 -48.5t-42.5 -36.5q-26 -17 -55 -24.5t-60 -7.5q-18 0 -35.5 1.5t-35.5 6.5q-19 3 -35.5 9t-31.5 15q-15 8 -27.5 19t-21.5 26q-11 13 -15.5 29.5t-4.5 36.5q0 21 6 39t18 34q12 15 28.5 26t38.5 20
q-17 6 -30.5 16.5t-23.5 24.5q-12 13 -17 29t-5 36q0 15 4 29.5t13 26.5q7 11 17.5 20.5t24.5 18.5q12 7 26 12.5t30 10.5q15 3 29.5 5t29.5 2q12 0 26.5 -1t30.5 -2q15 -3 29 -6.5t29 -7.5q13 -6 25.5 -13.5t23.5 -16.5q10 -10 17 -23t10 -28q1 -11 -1 -19.5t-7 -14.5
q-6 -8 -13.5 -12.5t-15.5 -6.5q-13 -3 -22.5 -0.5t-15.5 11.5q-8 7 -12 17t-5 24z" />
    <glyph glyph-name="zeta" unicode="&#x3b6;" horiz-adv-x="950" 
d="M236 621q7 -11 8.5 -19.5t-3.5 -15.5q-6 -8 -15.5 -16t-21.5 -17t-20 -17.5t-13 -15.5q-6 -9 -9 -17t-3 -14q0 -5 1.5 -9.5t5.5 -7.5q3 -5 6.5 -8.5t8.5 -5.5q15 -3 28.5 -0.5t25.5 8.5q11 6 21.5 13.5t21.5 16.5q9 9 18.5 18t19.5 18q9 8 18.5 14t21.5 9q6 3 12.5 5.5
t12.5 4.5q3 0 5.5 0.5t5.5 0.5t5.5 0.5t5.5 0.5q13 0 22.5 -6t15.5 -16q3 -9 2 -17.5t-5 -15.5q-6 -9 -12.5 -17t-13.5 -15q-9 -8 -18 -14.5t-18 -12.5q-11 -7 -19 -12t-14 -8q-15 -9 -30.5 -16t-30.5 -13q-17 -8 -34 -12t-33 -4q-5 -6 -9.5 -12.5t-9.5 -13.5q-4 -6 -9 -13
t-9 -13q-11 -15 -20.5 -30t-17.5 -30q-9 -17 -16.5 -33t-12.5 -31q-6 -17 -9 -33.5t-3 -31.5q0 -24 7.5 -43.5t23.5 -33.5q15 -15 36 -22t48 -7q28 -1 50 -6.5t38 -15.5q15 -11 24.5 -29.5t14.5 -43.5q2 -17 0 -31.5t-8 -26.5q-8 -14 -17 -24.5t-21 -19.5t-25.5 -16
t-28.5 -11q-16 -6 -31 -8t-29 -2h-13t-16 1q-9 0 -18 0.5t-17 3.5q-9 2 -16 5.5t-13 8.5q-7 4 -10 10.5t-3 15.5q0 8 4 15.5t13 14.5q7 6 20.5 8t33.5 1q2 -1 5 -1.5t7 -1.5q3 0 7.5 -1t10.5 -1q9 -3 19.5 -4t21.5 -1q9 0 18.5 1.5t18.5 4.5q7 3 12 9t7 15q2 13 -7 21.5
t-29 11.5q-20 1 -38.5 4.5t-36.5 9.5q-19 4 -35 11t-29 16q-15 9 -26 21.5t-19 27.5q-9 15 -13 34t-4 43q0 19 2.5 38.5t8.5 39.5q5 19 12.5 38t16.5 38q8 18 17.5 36t21.5 36q10 16 20.5 32.5t21.5 33.5q-14 6 -24.5 15t-17.5 21q-9 11 -12.5 26t-3.5 33q0 13 3.5 26
t11.5 27q6 12 16 23.5t24 23.5q30 24 50 29.5t32 -6.5z" />
    <glyph glyph-name="eta" unicode="&#x3b7;" horiz-adv-x="950" 
d="M172 275q-2 10 -5 18.5t-7 14.5q-6 5 -12 8t-12 4q-17 -3 -28.5 -2.5t-17.5 3.5q-8 3 -9.5 9t3.5 17q5 8 12 14.5t16 12.5q8 4 17.5 5.5t21.5 1.5q15 -3 28.5 -7.5t24.5 -11.5q9 -9 18 -20.5t17 -26.5q4 6 10 12t14 13q6 6 13 11.5t16 11.5q7 4 16 8.5t18 8.5
q8 3 16.5 4.5t17.5 1.5q15 0 30 -3t29 -8q13 -6 24.5 -13.5t21.5 -16.5q9 -11 15.5 -22.5t12.5 -24.5q4 -15 5 -30.5t0 -31.5v1q-1 -12 -3 -26.5t-5 -31.5q-4 -18 -8.5 -37t-9.5 -38q-6 -21 -12.5 -41t-12.5 -40q-4 -11 -7.5 -21.5t-7.5 -19.5q-3 -10 -6.5 -19.5t-6.5 -18.5
q-4 -9 -7.5 -18t-7.5 -17q-3 -8 -6 -15.5t-6 -13.5q-7 -15 -12.5 -25.5t-9.5 -16.5q-8 -11 -15 -18t-13 -10q-8 -5 -17 -4.5t-18 5.5q-11 4 -17 10t-7 14q-3 6 -2 15t7 21q3 7 6.5 15t8.5 17q1 3 3 7t4 9q2 4 4 8.5t5 9.5q0 2 1 4l2 4l2 4t3 5q1 3 3.5 7.5t5.5 9.5
q0 2 1 4.5t3 5.5q1 3 2.5 6l3.5 7q1 3 2 6.5t3 7.5q1 4 3 8.5t5 10.5q10 27 20.5 55t19.5 57q9 27 14.5 56t8.5 61q1 15 -2 27.5t-9 24.5q-8 10 -21.5 16t-33.5 6q-11 0 -21.5 -4t-19.5 -11q-11 -8 -20 -17.5t-16 -19.5q-9 -12 -16 -23t-13 -23q-7 -13 -11.5 -24t-7.5 -20
q-6 -20 -12 -39.5t-10 -38.5q-3 -11 -5.5 -21t-5.5 -21q-3 -10 -5.5 -21t-5.5 -22q-16 -59 -36 -83.5t-44 -14.5q-12 5 -18 15.5t-6 25.5q0 7 2.5 17t8.5 24q4 12 11 26t16 29q12 23 22.5 48.5t18.5 53.5q6 27 8.5 54.5t1.5 54.5z" />
    <glyph glyph-name="theta" unicode="&#x3b8;" horiz-adv-x="950" 
d="M344 614q19 -5 35 -12.5t30 -19.5q12 -13 22.5 -28t19.5 -31q7 -18 13 -37t9 -39q3 -21 4.5 -42t1.5 -42q-1 -21 -3 -41.5t-5 -39.5q-4 -21 -8.5 -38.5t-8.5 -32.5q-8 -23 -17 -47t-19 -49q-12 -27 -24.5 -51t-27.5 -45q-15 -23 -33 -41.5t-37 -32.5q-21 -15 -43.5 -22.5
t-47.5 -7.5q-23 0 -41.5 5t-33.5 17q-16 10 -28.5 23.5t-21.5 31.5q-10 17 -17 36.5t-10 42.5q-5 21 -7.5 43.5t-2.5 45.5q-1 22 0 44t4 44q2 21 5 39t8 34q9 34 21 65.5t27 61.5q14 28 30.5 53t36.5 46q15 16 34 30t42 26q21 10 44.5 12.5t48.5 -1.5zM136 251
q-5 -19 -7.5 -37t-3.5 -34q-2 -18 -2.5 -33.5t-0.5 -30.5q0 -11 0.5 -21.5t2.5 -21.5q1 -12 3.5 -23.5t6.5 -21.5q3 -11 7 -20t10 -16q5 -9 11.5 -14t15.5 -6q12 -5 25 -3.5t25 7.5q11 6 21.5 15t21.5 21q9 12 18.5 26t18.5 31q7 15 14.5 31.5t13.5 34.5q6 16 10.5 32
t9.5 32q3 15 5.5 28t4.5 24h-231zM235 504q-13 -20 -25 -42t-22 -47q-12 -27 -21.5 -55t-17.5 -58h231q2 14 4 28.5t4 29.5q0 7 0.5 14t0.5 13q0 7 0.5 14t0.5 14q0 4 -0.5 8.5t-0.5 9.5t-0.5 10.5t-0.5 11.5l-4 22t-5 23q-4 10 -8.5 20t-8.5 19q-6 7 -13 12.5t-14 8.5
q-12 2 -25 -1t-26 -10q-15 -9 -27 -20t-22 -25z" />
    <glyph glyph-name="iota" unicode="&#x3b9;" horiz-adv-x="950" 
d="M237 396q7 -3 13 -7t11 -10q3 -8 4 -15.5t-1 -16.5q-6 -21 -12 -40t-12 -37q-8 -19 -15.5 -37t-14.5 -36q-8 -19 -15 -38t-13 -38q-8 -21 -13.5 -42.5t-8.5 -43.5q-3 -18 4.5 -28t25.5 -13q5 -2 11.5 -2t14.5 2q7 1 13 4t12 9q20 20 34 21.5t22 -16.5q5 -14 -4 -30.5
t-32 -36.5q-12 -10 -23.5 -16t-21.5 -9q-12 -4 -23 -5t-21 1q-15 0 -27.5 5.5t-21.5 15.5q-11 9 -17.5 20t-9.5 25q-3 8 -4 17.5t-1 20.5v18t2 14q4 33 11.5 67t19.5 67l20 66t19 68q1 7 3 14.5t5 15.5q2 7 5.5 14t8.5 13q3 5 8.5 9.5t12.5 7.5q6 2 13.5 2.5t17.5 -0.5z" />
    <glyph glyph-name="kappa" unicode="&#x3ba;" horiz-adv-x="950" 
d="M203 382q18 -3 28 -12.5t10 -24.5q0 -6 -1.5 -12.5t-4.5 -13.5q-4 -9 -8 -18.5t-8 -18.5q-3 -6 -5 -11.5t-4 -10.5q-3 -5 -5 -10.5t-4 -10.5q-5 -12 -8.5 -22.5t-4.5 -19.5h32q12 0 22.5 6t19.5 18q8 11 17 27.5t20 37.5q13 24 28 43.5t32 33.5q15 12 33 17t38 2
q12 -3 22.5 -8.5t20.5 -13.5q9 -9 13.5 -21.5t4.5 -27.5q-2 -12 -6 -20.5t-11 -12.5q-9 -6 -18 -8.5t-18 -2.5q-14 -1 -25.5 6t-21.5 22q-15 -4 -26.5 -14.5t-18.5 -28.5q-6 -15 -13 -28.5t-15 -23.5q-9 -12 -20.5 -23t-24.5 -20h-1q8 -6 14.5 -13.5t12.5 -16.5
q4 -10 6.5 -20.5t2.5 -20.5q0 -25 1 -42.5t4 -27.5q1 -12 5.5 -18.5t12.5 -7.5q6 -2 13 0t13 7q6 4 10.5 9.5t9.5 13.5q12 25 25.5 35t28.5 5q6 -4 10 -9.5t5 -12.5q0 -9 -3 -18.5t-8 -20.5q-6 -12 -12 -22.5t-13 -19.5q-8 -10 -16 -17.5t-17 -13.5q-10 -6 -20.5 -10.5
t-21.5 -5.5q-12 -3 -24 -2t-24 6q-12 3 -20 8.5t-13 13.5q-6 7 -10 15.5t-6 18.5q-3 9 -4 19.5t-1 21.5q-1 10 -1 20v21v8.5v12.5q0 6 -1 12.5t-1 12.5q-2 6 -3.5 11t-3.5 10q-3 4 -7.5 6.5t-9.5 3.5l-37 2q-5 -14 -8.5 -28t-6.5 -27q-2 -8 -3.5 -14.5t-2.5 -13.5
q-2 -7 -3 -13.5t-2 -12.5q-2 -7 -3.5 -13.5t-2.5 -12.5q-2 -6 -3 -11.5t-2 -10.5q-3 -12 -6 -21t-6 -16q-5 -8 -9.5 -12.5t-10.5 -6.5q-7 -3 -14.5 -3t-15.5 5q-12 3 -17 12t-5 24q0 9 1.5 18.5t5.5 18.5q1 3 2.5 7t2.5 9q2 5 4 11t5 13q3 12 7.5 26t10.5 31q2 7 4 15.5
t5 16.5q2 9 5 18l6 18q2 9 4.5 17.5t4.5 17.5q3 9 5.5 18t5.5 18l4 16l4 16q2 9 4 17t5 16q1 7 2.5 14t2.5 13q2 7 3 12.5t3 11.5q4 21 16 30.5t32 6.5z" />
    <glyph glyph-name="lambda" unicode="&#x3bb;" horiz-adv-x="950" 
d="M179 567q0 8 3 15.5t11 15.5q6 6 14.5 9.5t17.5 3.5q10 0 23.5 -6t29.5 -16q17 -13 30 -26.5t22 -27.5q7 -15 13 -31t9 -32q2 -18 3 -35.5t1 -35.5q-2 -19 -2.5 -38.5t-0.5 -38.5q-1 -23 -1 -42.5t1 -35.5q0 -18 1 -33t3 -27q1 -14 3.5 -26t5.5 -22q3 -12 6.5 -22.5
t8.5 -20.5q1 -6 4.5 -12.5t9.5 -15.5q4 -10 8.5 -20t10.5 -20q2 -6 4 -11l4 -10l4 -10t5 -9q3 -10 5 -17.5t2 -11.5q0 -8 -3 -15t-8 -14q-6 -9 -13.5 -12.5t-15.5 -3.5t-15 3.5t-13 12.5q-7 7 -13 16t-10 20q-6 10 -10 21t-7 23q-5 10 -8 19t-4 17q-9 25 -13.5 51.5
t-4.5 55.5q-2 27 -3 57.5t-1 65.5q-10 -16 -20 -31.5t-19 -30.5q-11 -17 -20 -33t-18 -31q-10 -17 -19 -34t-16 -34q-9 -18 -15.5 -36.5t-11.5 -37.5q-7 -24 -16 -42.5t-20 -31.5q-12 -15 -24.5 -20t-25.5 -1q-15 4 -21.5 13.5t-6.5 24.5q0 8 1.5 17t4.5 18q3 8 6.5 17
t8.5 18q4 8 9 16.5t11 17.5q4 7 9 15t11 16q22 33 44.5 67t46.5 69q22 33 46.5 68.5t51.5 72.5q0 1 1.5 14t4.5 37q-3 16 -7.5 31t-10.5 27q-8 12 -20 21.5t-27 17.5q-9 5 -16.5 10t-12.5 10q-6 3 -10 7t-7 8q-3 3 -5 6t-2 6q-2 2 -2 4.5v5.5z" />
    <glyph glyph-name="uni03BC" unicode="&#x3bc;" horiz-adv-x="950" 
d="M124 119q6 28 12.5 56t14.5 56q6 27 15.5 55t22.5 57q6 15 14.5 26t18.5 17q9 5 19 5t22 -6q9 -6 14.5 -15.5t5.5 -21.5q0 -7 -1.5 -14.5t-3.5 -15.5q-3 -9 -7.5 -19t-8.5 -19q-8 -15 -15.5 -30t-14.5 -30q-9 -16 -16.5 -32t-13.5 -31q-8 -17 -14 -33t-11 -32
q-6 -17 -10 -34t-5 -33q0 -3 1 -5t3 -4q1 -2 2.5 -4t3.5 -4q3 -6 6.5 -10.5t8.5 -7.5q3 -4 8.5 -6.5t11.5 -3.5q6 -3 13 -2.5t16 3.5q10 0 19 2.5t18 7.5q7 3 13.5 8t12.5 11q5 5 9.5 11t8.5 13q3 6 6 12.5t6 13.5q11 31 20.5 64t18.5 67q7 33 15.5 66.5t19.5 66.5
q1 5 3.5 10.5t5.5 11.5q2 5 5 10t8 10q3 3 8 6t11 6q5 1 11.5 1.5t14.5 -0.5q7 -3 12 -7t8 -10q2 -7 3 -14t1 -14q-1 -9 -2.5 -16.5t-2.5 -14.5q-3 -9 -5.5 -15.5t-3.5 -11.5q-9 -26 -19 -51t-20 -49q-12 -26 -23 -53t-22 -56q-2 -5 -3.5 -9.5t-1.5 -10.5q-2 -6 -2.5 -12
t0.5 -11q0 -6 2 -10.5t6 -7.5q3 -5 8 -6.5t13 -1.5q4 0 8.5 1t9.5 4q3 2 6.5 5t7.5 7q3 3 6 5.5t8 5.5q3 2 7 3.5t9 1.5q3 0 6 -3t5 -7q0 -6 -0.5 -12.5t-2.5 -13.5q-3 -8 -6 -15.5t-6 -13.5q-5 -8 -10 -14t-11 -10q-7 -6 -14 -9.5t-14 -4.5q-9 -3 -17 -3.5t-16 1.5
q-11 3 -19 8t-14 13q-8 6 -12.5 13.5t-7.5 16.5q-17 -18 -31.5 -29t-26.5 -15q-14 -6 -28 -8.5t-29 -2.5q-14 0 -26 2.5t-22 8.5q-11 5 -20.5 12.5t-18.5 18.5q-3 -8 -4 -15.5t-1 -16.5q-2 -10 -3.5 -22t-2.5 -27q0 -10 -1.5 -18.5t-4.5 -15.5q-3 -8 -7 -14.5t-7 -10.5
q-5 -5 -9.5 -8.5t-8.5 -4.5q-6 -3 -10.5 -3.5t-7.5 1.5q-9 2 -15 6t-9 10q-5 5 -6.5 11.5t-1.5 14.5q0 6 1 13t4 16q1 7 4 16t7 19q6 12 12 24.5t12 24.5q4 11 8.5 23t9.5 24q3 12 7 24.5t7 26.5q3 12 6 26.5t6 30.5z" />
    <glyph glyph-name="nu" unicode="&#x3bd;" horiz-adv-x="950" 
d="M145 381q16 4 29.5 -5t24.5 -31q4 -11 7 -22.5t6 -23.5q1 -13 2.5 -26t1.5 -26q0 -17 -0.5 -33.5t-3.5 -34.5t-7.5 -35.5t-8.5 -33.5q-6 -18 -12.5 -33t-12.5 -28q-8 -14 -15 -24.5t-13 -16.5q18 6 38 17t41 26q20 13 38.5 29.5t36.5 36.5q16 18 30.5 39t26.5 45
q10 22 16 45t7 47q0 22 3 38.5t9 28.5q4 10 10.5 14.5t15.5 4.5q3 -3 7 -6.5t7 -7.5q2 -6 3.5 -14t1.5 -17q0 -4 -0.5 -8t-0.5 -9q0 -4 -0.5 -9t-0.5 -9q-2 -11 -3.5 -22.5t-2.5 -23.5q-11 -53 -30.5 -99.5t-48.5 -86.5q-30 -42 -70.5 -74t-90.5 -56q-23 -9 -42 -15t-35 -9
q-18 -3 -29 -2t-15 7q-7 9 -4.5 24.5t14.5 39.5q6 10 12 22.5t12 27.5q5 13 10 28l10 30q4 15 7.5 30t6.5 30q2 14 3 27.5t1 27.5q0 1 -0.5 3.5t-0.5 4.5v4.5v5.5q-1 4 -2 10t-1 14q-2 6 -3.5 14.5t-2.5 19.5q-1 4 -2 9.5t-2 11.5t-2 12.5t-2 14.5q-2 19 4.5 32.5t21.5 19.5
z" />
    <glyph glyph-name="xi" unicode="&#x3be;" horiz-adv-x="950" 
d="M246 247q-17 1 -32 -0.5t-28 -6.5q-15 -6 -27 -14t-21 -18q-11 -11 -19 -23.5t-13 -26.5q-6 -15 -8.5 -30.5t-0.5 -30.5q5 -38 30.5 -55.5t70.5 -14.5q55 1 86.5 -23.5t37.5 -73.5q0 -14 -2 -26.5t-7 -22.5q-6 -12 -13.5 -22t-16.5 -18q-10 -9 -21 -15.5t-23 -10.5
q-13 -6 -26 -8t-25 -2q-16 0 -26 7t-13 22q-3 7 0.5 14.5t12.5 14.5q8 6 19.5 9t26.5 3q19 -1 29.5 6.5t11.5 23.5q0 6 -3.5 10.5t-9.5 9.5l-16 6t-17 6q-10 2 -19.5 4t-18.5 4q-10 1 -17.5 2.5t-11.5 3.5q-30 10 -50.5 26.5t-30.5 37.5q-12 20 -17 42t-4 46q0 30 7 55.5
t21 46.5q13 20 32 39t44 37q-9 7 -16 16t-13 20q-7 9 -10 20t-3 25q0 24 5.5 43t17.5 34q10 13 22.5 23t26.5 18v11t1 12q0 5 0.5 11t2.5 12q3 10 7.5 20.5t11.5 19.5q6 8 13.5 15.5t16.5 13.5t18.5 10.5t21.5 7.5q10 3 21 4.5t23 1.5q21 0 32.5 -10t12.5 -28q0 -20 -19 -29
t-58 -7q-12 0 -21.5 -2t-15.5 -5q-8 -5 -11 -11t-1 -12q0 -3 3 -5t11 -2q6 -1 14 -1t17 1h17t18 2q4 0 7.5 0.5t6.5 0.5q4 0 6.5 0.5t5.5 0.5q2 0 5.5 -0.5t6.5 -0.5h8.5h9.5q4 -1 8.5 -2t9.5 -2t9.5 -2t9.5 -2q9 -3 16.5 -7.5t13.5 -9.5q5 -6 6.5 -14t0.5 -17
q-4 -17 -17 -24.5t-35 -7.5q-18 0 -35.5 2t-34.5 7q-18 4 -36.5 6t-36.5 2q-9 -1 -17 -2.5t-15 -2.5q-9 -3 -16.5 -6t-13.5 -7q-8 -5 -13 -11t-8 -12q-5 -8 -6.5 -16t0.5 -17q1 -23 12.5 -33.5t32.5 -8.5q15 0 29 0.5t26 1.5h18.5h14.5q3 0 6.5 -0.5t7.5 -0.5h10h11
q5 -1 10.5 -2t10.5 -2t10.5 -2t11.5 -2q10 -4 18.5 -9t16.5 -11q6 -7 8.5 -16t1.5 -19q-5 -21 -21.5 -28.5t-46.5 -1.5q-24 4 -47 8t-45 7z" />
    <glyph glyph-name="omicron" unicode="&#x3bf;" horiz-adv-x="950" 
d="M254 397q22 0 42.5 -4.5t40.5 -13.5q18 -10 34 -23t30 -28q13 -17 23.5 -35.5t19.5 -38.5q7 -21 11 -42t4 -42q0 -23 -4.5 -45.5t-11.5 -44.5q-9 -24 -20 -44t-25 -38q-15 -19 -32 -34t-36 -26q-21 -12 -42.5 -17.5t-45.5 -5.5q-23 0 -43.5 4.5t-38.5 14.5
q-20 9 -36 21.5t-29 28.5q-14 15 -24.5 33.5t-17.5 39.5q-8 19 -11.5 40t-3.5 44t3.5 46t12.5 47q7 22 18 42.5t26 39.5q13 18 30 32.5t38 26.5q19 10 41 16t47 6zM362 123q3 14 5 30.5t4 36.5q0 18 -1.5 36t-5.5 36q-5 16 -13 31t-19 27q-12 11 -28.5 17t-37.5 6
q-20 0 -36 -5.5t-29 -15.5q-14 -12 -25 -25.5t-19 -28.5q-9 -17 -16 -34.5t-10 -35.5q-5 -20 -7 -38.5t-2 -34.5q0 -13 1.5 -26t4.5 -26q3 -15 7.5 -27.5t11.5 -23.5q6 -12 14.5 -22t19.5 -17q9 -8 22 -11.5t28 -3.5q13 0 26 3.5t25 12.5q10 7 20 17t19 22q7 11 14 23.5
t13 26.5q4 13 7.5 25.5t6.5 24.5z" />
    <glyph glyph-name="pi" unicode="&#x3c0;" horiz-adv-x="950" 
d="M59 252q-6 5 -8.5 12.5t0.5 16.5q1 9 5.5 19.5t12.5 23.5q6 11 18 20t29 15q15 6 31.5 9t33.5 3h23.5h27.5q13 -2 27.5 -2.5t31.5 -0.5h41.5t45.5 1q22 0 44 3t43 9q12 3 21.5 2t16.5 -5q6 -6 8.5 -15.5t2.5 -24.5q-3 -21 -11 -33t-21 -13h-5.5h-9.5q-6 -1 -13.5 -1
h-14.5h-17.5h-17.5q-5 -1 -9.5 -1.5t-8.5 -0.5h-7.5h-6.5q-6 -29 -12 -59t-10 -61q-6 -33 -8.5 -64t-2.5 -61v-9.5t2 -9.5q0 -6 2 -11t5 -8q2 -5 5 -8t8 -4q3 -3 8.5 -2t11.5 5q4 3 9.5 4.5t12.5 1.5q10 0 15 -9t4 -26q-2 -8 -5.5 -14t-7.5 -11q-6 -6 -12 -10.5t-12 -7.5
q-8 -4 -15.5 -6.5t-14.5 -2.5q-9 -2 -16 -1t-13 4q-11 3 -18.5 7.5t-12.5 10.5q-6 5 -10.5 11t-6.5 14q-3 7 -4.5 15t-1.5 17q-1 8 -1 17t2 20q2 32 6.5 64t12.5 65q6 31 11 64.5t8 69.5h-20.5h-18.5q-10 -1 -20 -1t-20 2q-4 -17 -8 -33.5t-7 -32.5q-4 -16 -7 -32l-6 -32
q-7 -33 -16 -67t-19 -67q-3 -7 -5.5 -13t-4.5 -12q-3 -6 -5 -11.5t-4 -10.5q-5 -12 -10 -22t-11 -18q-5 -6 -10 -10t-11 -7q-7 -4 -13 -5.5t-12 -0.5q-7 0 -12.5 2.5t-9.5 7.5q-5 4 -7 11t-2 17t3 22t9 24q5 11 11 21t12 19q10 15 18.5 29.5t16.5 29.5q6 13 11.5 27.5
t11.5 29.5q4 13 8.5 28t8.5 32q1 7 2.5 15t3.5 17q1 9 3 18.5t4 19.5h-11h-10l-12 -2t-11 -1q-6 -2 -11 -4t-9 -4q-6 -3 -9.5 -7.5t-6.5 -8.5q-5 -8 -8.5 -12t-6.5 -4q-5 -2 -10 -0.5t-11 4.5z" />
    <glyph glyph-name="rho" unicode="&#x3c1;" horiz-adv-x="950" 
d="M403 252q-3 7 -6.5 14t-6.5 15q-5 6 -10 12.5t-11 12.5q-6 5 -13 9.5t-13 8.5q-8 3 -16 5t-16 2q-18 0 -33 -6t-27 -17q-14 -12 -24.5 -26t-18.5 -30q-9 -17 -15.5 -34.5t-9.5 -35.5q-5 -19 -6.5 -35.5t-1.5 -29.5q0 -12 1 -23.5t4 -23.5q2 -13 6 -24.5t10 -21.5
q5 -12 12.5 -21t17.5 -15q9 -8 21 -11t27 -3q16 0 31 3.5t28 12.5q12 7 22 17.5t19 24.5q8 12 14.5 26.5t11.5 31.5q4 15 7 30.5t6 31.5q1 15 1 29.5t-1 28.5q-2 12 -4.5 22.5t-5.5 19.5zM286 -79q-27 0 -50 6.5t-44 20.5q-21 13 -39 32.5t-31 45.5v-1q-3 -15 -3.5 -30
t2.5 -30q1 -16 2.5 -32t1.5 -31v-13.5v-15.5q0 -9 -1.5 -17.5t-2.5 -15.5q-3 -9 -6.5 -15.5t-7.5 -11.5q-6 -6 -13 -9t-16 -3t-15.5 4.5t-9.5 13.5q-5 7 -6.5 19t-1.5 27q0 34 2.5 68.5t8.5 69.5q4 33 11.5 68.5t16.5 71.5q4 19 10 40t15 43q7 21 18 40t25 37q12 17 28 31.5
t35 26.5q18 10 39 16t47 6q21 0 40.5 -4.5t37.5 -13.5q17 -9 32 -21t29 -27q12 -16 22.5 -33.5t18.5 -36.5q6 -21 10 -41t4 -41t-4 -42t-10 -42q-8 -22 -18.5 -41.5t-23.5 -36.5q-14 -18 -30.5 -33t-35.5 -26q-20 -12 -41.5 -17.5t-45.5 -5.5z" />
    <glyph glyph-name="sigma" unicode="&#x3c3;" horiz-adv-x="950" 
d="M400 326q-9 2 -18.5 4t-18.5 4q-6 0 -11 0.5t-10 0.5t-10 0.5t-9 0.5q25 -13 45.5 -30.5t36.5 -38.5q15 -23 22.5 -50t7.5 -57q0 -32 -7.5 -62t-21.5 -60q-11 -19 -24 -35.5t-28 -30.5q-17 -15 -33.5 -26t-33.5 -18q-10 -4 -19 -6.5t-16 -3.5q-9 -3 -17.5 -3.5
t-16.5 -0.5q-26 0 -48.5 6t-41.5 19q-20 12 -35.5 28t-25.5 37q-12 19 -19 42t-8 50q-3 25 1 52t15 54q6 18 15 35.5t21 35.5q11 16 24.5 31.5t30.5 30.5q15 13 32.5 24.5t37.5 20.5q19 9 40 14t45 8q12 0 26 0.5t32 0.5q16 -2 30.5 -5t27.5 -8q7 -5 12.5 -9.5t10.5 -9.5
q3 -6 4 -12t0 -12q-3 -8 -7 -12.5t-9 -7.5q-6 -4 -13.5 -4t-15.5 3zM168 -19q9 -6 19.5 -8t22.5 0q10 1 20.5 5t19.5 12q11 8 21.5 17.5t21.5 21.5q9 10 18 23.5t18 30.5q7 15 12.5 30t10.5 30q3 14 5 28.5t2 29.5q0 27 -11.5 47t-32.5 32q-14 6 -27 8.5t-25 1.5
q-13 -3 -25 -7.5t-22 -11.5q-12 -8 -21.5 -17.5t-18.5 -20.5q-10 -12 -18.5 -23.5t-14.5 -23.5t-11 -25t-8 -26q-5 -15 -7 -29.5t-1 -27.5q0 -15 3 -29t9 -26q5 -14 15 -24.5t25 -17.5z" />
    <glyph glyph-name="tau" unicode="&#x3c4;" horiz-adv-x="950" 
d="M288 303q-12 -24 -21.5 -49.5t-16.5 -51.5q-9 -27 -16 -53.5t-13 -51.5q-2 -5 -3.5 -10.5t-2.5 -12.5q-3 -8 -4 -16t-1 -15q-1 -9 -0.5 -16t3.5 -13q1 -8 5.5 -12.5t12.5 -5.5q14 -5 28.5 -3.5t29.5 7.5q10 4 19.5 5t18.5 -1q7 -3 10 -8.5t3 -13.5q-1 -9 -4 -15.5
t-8 -12.5q-6 -7 -13 -12.5t-15 -9.5q-9 -5 -18.5 -8t-19.5 -4q-11 -3 -21.5 -3.5t-19.5 0.5q-27 0 -45 9t-27 27q-11 16 -14 37t1 48q2 11 6.5 26.5t11.5 35.5q6 19 13.5 42.5t16.5 50.5q3 11 6.5 21t7.5 19q3 9 5.5 17.5t5.5 16.5q4 14 6 23t2 14h-15.5t-15.5 1
q-5 0 -9.5 -0.5t-8.5 -0.5h-9h-8q-9 -2 -17 -3.5t-15 -4.5q-9 -4 -15 -9t-10 -11q-6 -8 -10.5 -12t-8.5 -5q-6 -2 -11 -1t-10 6q-11 9 -7 28t22 49q7 10 17.5 18t25.5 14q13 4 29.5 6t36.5 2h13.5h15.5q7 -1 15.5 -1h18.5q9 -1 20 -1h24q12 -1 26 -1h31q14 0 26.5 1t24.5 3
q10 0 19.5 2.5t17.5 6.5q11 4 20 4t16 -5q6 -6 8 -16.5t2 -25.5q-3 -22 -10 -33.5t-18 -12.5q-15 -3 -29 -3.5t-28 1.5q-8 0 -15.5 0.5t-14.5 0.5t-14.5 0.5t-14.5 1.5h-33.5h-10.5z" />
    <glyph glyph-name="upsilon" unicode="&#x3c5;" horiz-adv-x="950" 
d="M103 320q0 33 12 50.5t37 17.5q12 -1 21 -5.5t15 -11.5q4 -9 6.5 -19t2.5 -21q0 -12 -1.5 -23.5t-4.5 -23.5q-2 -6 -4 -11.5t-3 -10.5q-2 -5 -3.5 -9.5l-2.5 -7.5v1q-3 -5 -5 -10t-5 -11q-2 -5 -4.5 -11t-4.5 -12q-6 -14 -11.5 -27t-9.5 -26q-6 -15 -10 -28.5t-7 -26.5
q-5 -15 -6.5 -27.5t-1.5 -22.5q0 -8 1 -15t4 -13q1 -8 4.5 -14t8.5 -11q4 -6 9.5 -10t12.5 -7q6 -4 12.5 -5.5t15.5 -1.5q6 0 13 1t16 4q7 1 14 4.5t15 8.5q15 9 29.5 22.5t29.5 32.5q14 18 26.5 37.5t24.5 42.5q10 21 18.5 43t14.5 45q5 22 6 42t-2 38q-2 10 -2.5 19
t-0.5 17q0 21 9 32t27 11q9 -1 17 -5t14 -10q5 -8 9 -17t7 -18q2 -11 3.5 -22t1.5 -21q0 -12 -1 -21.5t-2 -16.5q-5 -22 -12.5 -46.5t-19.5 -51.5q-13 -29 -28 -55.5t-33 -50.5q-19 -26 -40 -47t-44 -37q-24 -18 -49 -26.5t-51 -8.5q-36 0 -62.5 9.5t-42.5 29.5
q-18 18 -26.5 44.5t-6.5 59.5q1 16 4.5 32t8.5 33q3 15 7.5 31.5t9.5 33.5q3 15 7 31.5t7 34.5q3 16 4.5 33t1.5 35z" />
    <glyph glyph-name="phi" unicode="&#x3c6;" horiz-adv-x="950" 
d="M31 137q0 21 4 43.5t13 45.5q8 21 20 41t28 38q15 16 33 29.5t39 24.5q21 9 43.5 13t48.5 2q9 -2 16.5 -4t13.5 -5q4 -4 6.5 -8t2.5 -7q0 -2 -1 -4t-1 -3q6 2 12.5 3.5t13.5 1.5q13 0 26.5 -5.5t25.5 -14.5q11 -11 21 -23.5t19 -27.5q8 -15 14.5 -31t12.5 -32
q4 -18 6.5 -33t2.5 -27q0 -23 -4 -44.5t-11 -42.5q-9 -21 -20 -40t-26 -35q-15 -17 -33.5 -30.5t-39.5 -22.5q-22 -11 -46.5 -16.5t-51.5 -5.5q-1 -2 -1.5 -4.5t-1.5 -4.5q0 -3 -1 -5.5t-1 -5.5q-3 -8 -5 -14t-2 -12q-6 -21 -12.5 -35t-13.5 -20q-9 -8 -19 -9.5t-20 3.5
q-11 3 -16.5 8.5t-5.5 12.5q-2 6 -1 14.5t4 20.5q1 8 4.5 16t8.5 17q3 7 7 16t7 19q-14 6 -25.5 14.5t-21.5 20.5q-12 10 -21.5 22.5t-16.5 27.5q-9 13 -15 28t-10 31q-5 15 -7 29.5t-2 29.5zM228 -32q17 1 32 7.5t29 18.5q12 10 23.5 23.5t20.5 30.5q8 15 14.5 32t11.5 36
q3 18 5.5 35t2.5 34q0 16 -3 32t-7 31q-6 14 -12.5 27.5t-15.5 25.5q-8 2 -14.5 -1.5t-11.5 -12.5q-6 -10 -11.5 -21.5t-9.5 -24.5q-5 -14 -8.5 -27.5t-5.5 -25.5q-2 -7 -3.5 -13l-2.5 -10q-1 -5 -1.5 -8.5t-0.5 -5.5zM217 226q3 13 9 26.5t14 27.5q6 12 15.5 24.5
t21.5 24.5q-12 0 -23.5 -2.5t-22.5 -6.5q-12 -6 -23.5 -12.5t-21.5 -15.5q-11 -10 -20.5 -22t-16.5 -25q-9 -15 -16 -30.5t-11 -33.5q-3 -12 -5.5 -24.5t-2.5 -24.5q-2 -14 -1 -27.5t4 -25.5q1 -14 5 -26t10 -23q5 -12 13 -22.5t19 -19.5q3 14 7 29t8 32q1 7 2.5 15t3.5 16
l4 16t4 17q3 15 6 30.5t6 30.5q3 14 6 27t6 25z" />
    <glyph glyph-name="chi" unicode="&#x3c7;" horiz-adv-x="950" 
d="M229 151q-3 13 -5 26.5t-3 27.5q-2 12 -3.5 25.5t-2.5 28.5q-3 25 -10 40t-17 21q-4 1 -8 1.5t-7 0.5q-5 -2 -8 -4.5t-6 -5.5q-17 -21 -29 -25.5t-21 7.5q-5 6 -6.5 13.5t1.5 16.5q1 9 5.5 17.5t11.5 17.5q6 7 14.5 14.5t19.5 13.5q9 6 20.5 9t23.5 3q17 0 31 -6.5
t26 -19.5q10 -14 15.5 -32t7.5 -39q0 -11 0.5 -21t1.5 -19v-11t1 -11q0 -5 1 -10.5t2 -10.5q4 5 9 10.5t10 10.5l10 12t11 13q9 12 18.5 24t18.5 24q3 3 6.5 8.5t8.5 13.5q3 6 7.5 13t10.5 15q4 6 8.5 11.5t10.5 11.5q4 4 9.5 6.5t11.5 2.5q3 0 7.5 -1.5t9.5 -2.5q3 -3 7 -5
t9 -5l6 -8t6 -7q0 -3 1 -5t1 -4q1 -2 1.5 -4t0.5 -4q0 -10 -5.5 -18.5t-14.5 -15.5q-26 -26 -48.5 -48t-43.5 -40q-21 -20 -40 -41.5t-34 -43.5q0 -3 0.5 -6.5t2.5 -8.5q0 -6 1.5 -12t4.5 -12q1 -7 2.5 -13t3.5 -12q0 -4 0.5 -7t1.5 -5t1.5 -4t1.5 -3q7 -26 15.5 -40.5
t18.5 -18.5q11 -6 20 -3.5t16 12.5q13 21 25 26t22 -7q3 -6 5.5 -12.5t2.5 -13.5q0 -9 -4 -18.5t-11 -20.5q-8 -12 -16 -20t-17 -13q-9 -6 -17.5 -10t-15.5 -4q-6 -2 -11.5 -1t-11.5 4q-7 1 -13 4.5t-12 8.5q-7 4 -13 10t-12 14q-6 6 -11 14t-8 17q-5 9 -8 20t-5 23
q-2 6 -3.5 11.5t-2.5 11.5q-2 5 -3 10.5t-2 11.5q-14 -18 -27.5 -35t-26.5 -33q-14 -18 -29 -35t-30 -32q-18 -18 -34 -19.5t-29 13.5q-6 6 -8.5 13.5t-1.5 15.5q0 7 3.5 14t11.5 15z" />
    <glyph glyph-name="psi" unicode="&#x3c8;" horiz-adv-x="950" 
d="M125 50q0 -11 2 -21.5t7 -19.5q4 -11 11.5 -18.5t19.5 -12.5q0 1 1 2.5t2 4.5l2 6t3 8q1 3 2 7t3 9q1 4 2.5 8.5l3.5 10.5q2 9 5 19.5t6 21.5q3 10 5 19.5t5 18.5q6 24 11.5 49.5t9.5 52.5q3 25 7.5 52t12.5 54q3 12 8 21.5t13 15.5q6 6 15 7.5t20 -0.5q9 -3 16 -9
t11 -14q3 -9 3 -19.5t-3 -20.5q-2 -5 -3 -9.5t-3 -9.5q-1 -4 -2.5 -9t-2.5 -10q-3 -6 -5 -11.5t-4 -10.5t-4 -10.5t-3 -10.5q-8 -18 -13.5 -35t-9.5 -33q-5 -17 -10 -32.5t-10 -29.5q-2 -2 -3.5 -7t-3.5 -13q-3 -9 -5.5 -19t-4.5 -20q-2 -6 -3.5 -11t-2.5 -10q-2 -4 -3 -8.5
t-2 -8.5q-3 -9 -4.5 -14.5t-1.5 -6.5q10 2 21.5 7t23.5 14q10 7 20.5 15.5t19.5 18.5q19 21 30.5 52t16.5 71q1 21 5 40.5t10 38.5q4 18 11.5 34.5t16.5 31.5q1 2 2.5 4.5t3.5 5.5l4 6t5 6q3 6 8 11.5t11 11.5q4 4 10 8.5t14 8.5q6 3 13.5 5t16.5 4q9 0 16 -2t11 -7
q3 -6 3 -11.5t-3 -8.5q-5 -6 -8.5 -9.5t-6.5 -4.5q-4 -3 -8 -5t-8 -3q-18 -10 -28 -41.5t-13 -84.5q-3 -56 -19.5 -101.5t-46.5 -81.5q-9 -9 -18 -17.5t-18 -14.5q-11 -8 -21.5 -14t-20.5 -10q-12 -6 -23 -9.5t-21 -6.5q-12 -4 -22 -6.5t-19 -3.5q-2 -6 -3.5 -14t-2.5 -17
q-3 -11 -5 -20t-4 -16q-4 -14 -10 -24.5t-15 -18.5q-9 -9 -20.5 -11t-23.5 3q-8 1 -14.5 5.5t-10.5 12.5q-6 6 -6.5 14.5t4.5 19.5q1 3 2.5 5.5t4.5 5.5l1 0.5t2 1.5t2.5 1.5t3.5 1.5q1 0 3.5 1.5t5.5 4.5q1 1 3 3.5t5 6.5q1 2 2 4.5t1 5.5q1 2 2 4.5t2 5.5q0 3 1.5 8
t4.5 11q-24 6 -41.5 18.5t-29.5 32.5q-14 18 -20 40t-6 47q0 14 1.5 29.5t5.5 32.5q3 15 8.5 32.5t14.5 36.5q6 15 11 28t9 25q3 10 4.5 20t1.5 19t-3 16.5t-8 12.5q-5 3 -9 7.5t-7 9.5q-4 4 -5.5 8t-1.5 9q0 4 2 7.5t8 6.5q4 1 11.5 1t19.5 -2q13 -5 23 -12t18 -17
q6 -11 9.5 -22t5.5 -21q0 -15 -0.5 -32t-3.5 -35q-4 -20 -9.5 -39.5t-11.5 -40.5q-5 -14 -8 -27l-6 -26q-4 -14 -5.5 -25t-1.5 -20z" />
    <glyph glyph-name="omega" unicode="&#x3c9;" horiz-adv-x="950" 
d="M256 351q0 -6 -2.5 -12.5t-8.5 -12.5q-8 -8 -17 -15.5t-21 -15.5q-11 -9 -20 -20t-15 -23q-8 -13 -14 -26.5t-10 -27.5q-6 -15 -9.5 -29.5t-4.5 -29.5q-3 -16 -3.5 -30.5t0.5 -27.5v-13.5t2 -16.5q0 -9 2.5 -18t5.5 -17q2 -9 5.5 -16t9.5 -12q4 -6 10 -9t14 -2
q5 -2 10 -0.5t11 5.5q4 3 8.5 7.5t9.5 10.5q3 6 6 12.5t6 14.5q2 7 3.5 15t3.5 17q1 21 3.5 40.5t5.5 38.5q2 18 5 34.5t8 32.5q1 6 3.5 13t5.5 16q3 7 6.5 15t9.5 16q4 7 9.5 13t12.5 12q6 4 13.5 6.5t16.5 2.5q7 -2 13 -6t12 -10q4 -8 6.5 -16.5t2.5 -17.5q0 -17 -3 -33.5
t-7 -32.5q-6 -18 -13 -33.5t-14 -29.5q-3 -6 -5 -13t-4 -13q-2 -4 -3.5 -7.5t-2.5 -7.5q-2 -4 -3 -7.5t-2 -6.5q-3 -9 -6 -17t-4 -15q-3 -9 -3.5 -16.5t-0.5 -14.5q0 -9 2 -16t8 -13q4 -8 11.5 -11t17.5 -3t19 3t18 10q7 6 13.5 14.5t12.5 19.5q5 10 9.5 22t9.5 26
q3 12 6 25.5t6 28.5q0 6 1 12.5t2 13.5q0 7 1 13.5t2 13.5v12v12q0 5 0.5 10.5t0.5 11.5q0 11 -1 21.5t-1 21.5q-2 9 -4 17l-4 16q-5 12 -7 24.5t-2 24.5q-2 12 -0.5 19.5t6.5 12.5q19 17 38 -3t37 -77q2 -9 4 -18.5t5 -20.5q1 -12 2.5 -24.5t3.5 -24.5q0 -14 0.5 -27.5
t0.5 -26.5q-2 -15 -3.5 -28t-4.5 -25q-12 -44 -29 -78.5t-38 -58.5q-23 -26 -47.5 -38t-51.5 -12q-17 0 -30.5 5.5t-23.5 15.5q-12 9 -21 20.5t-15 26.5q-8 -11 -17.5 -20t-20.5 -17q-12 -9 -26.5 -13t-31.5 -4q-14 0 -27.5 5t-26.5 17q-15 12 -24.5 27t-15.5 35
q-7 18 -10 39.5t-2 47.5q0 18 2 37t6 39q3 18 8.5 36t13.5 36q6 16 15.5 32.5t21.5 32.5q11 15 25 28t32 25q16 10 29 16t23 6q6 0 10.5 -2t9.5 -5q3 -5 5.5 -9t2.5 -8z" />
    <glyph glyph-name="uni0401" unicode="&#x401;" horiz-adv-x="950" 
d="M220 666h512v-62h-443v-265h425v-63h-425v-294h451v-62h-520v746zM381 823q11 0 20.5 -4.5t17.5 -11.5q7 -9 11 -18.5t4 -20.5q0 -12 -4 -22t-11 -17q-8 -9 -17.5 -12.5t-20.5 -3.5t-20 3.5t-16 12.5q-9 7 -12.5 17t-3.5 22q0 11 3.5 20.5t12.5 18.5q7 7 16 11.5t20 4.5z
M569 823q10 0 19 -4.5t18 -11.5q7 -9 11.5 -18.5t4.5 -20.5q0 -12 -4.5 -22t-11.5 -17q-9 -9 -18 -12.5t-19 -3.5q-11 0 -20 3.5t-16 12.5q-9 7 -13 17t-4 22q0 11 4 20.5t13 18.5q7 7 16 11.5t20 4.5z" />
    <glyph glyph-name="uni0410" unicode="&#x410;" horiz-adv-x="950" 
d="M658 129h-365l-87 -209h-73l311 746h64l311 -746h-73zM320 191h312l-156 377z" />
    <glyph glyph-name="uni0411" unicode="&#x411;" horiz-adv-x="950" 
d="M299 -19h244q36 0 64.5 10.5t51.5 31.5q21 20 32 48.5t11 64.5q0 15 -3 29.5t-9 28.5q-7 12 -15.5 23t-18.5 21q-12 9 -24.5 16t-25.5 13q-15 4 -30 7t-30 4h-247v-297zM723 603h-424v-263h236q25 0 48.5 -4t45.5 -10q21 -8 39 -18t35 -23q15 -15 27.5 -32t21.5 -38
t13.5 -45.5t6.5 -51.5q-3 -23 -8.5 -42.5t-14.5 -37.5q-10 -19 -23 -35t-28 -29q-17 -14 -36 -24t-41 -16q-23 -8 -49 -11.5t-54 -3.5h-289v746h494v-62z" />
    <glyph glyph-name="uni0412" unicode="&#x412;" horiz-adv-x="950" 
d="M229 -80v746h298q20 0 39.5 -3t38.5 -8q18 -6 34.5 -15t31.5 -20q14 -12 26 -26.5t22 -30.5q9 -18 14.5 -38.5t8.5 -42.5q0 -30 -5.5 -55t-14.5 -44q-11 -21 -26.5 -38t-34.5 -32q27 -17 48 -36.5t36 -42.5q14 -24 20.5 -53t6.5 -62q-3 -23 -8.5 -42.5t-14.5 -37.5
q-10 -19 -23 -35t-28 -29q-17 -14 -36 -24t-41 -16q-23 -8 -49 -11.5t-54 -3.5h-289zM299 -18h244q36 0 64.5 10.5t51.5 31.5q21 20 32 48.5t11 64.5q0 15 -3 29.5t-9 28.5q-7 12 -15.5 23t-18.5 21q-12 9 -24.5 16t-25.5 13q-15 4 -30 7t-30 4h-247v-297zM299 341h236
q15 0 28.5 1.5t27.5 6.5q12 3 23.5 8.5t21.5 14.5q9 7 16 17t13 23q5 12 8 26t3 32q0 31 -10 55.5t-28 42.5q-20 16 -45.5 25t-56.5 11h-237v-263z" />
    <glyph glyph-name="uni0413" unicode="&#x413;" horiz-adv-x="950" 
d="M227 686h513v-63h-442v-703h-71v766z" />
    <glyph glyph-name="uni0414" unicode="&#x414;" horiz-adv-x="950" 
d="M222 59q13 28 24 62t20 73q8 39 14 81t11 87q3 48 5 95l4 94q1 45 2 86t1 78h419v-656h72v-252h-70v189h-499v-189h-69v252h66zM652 59v593h-280q0 -12 -0.5 -25.5t-0.5 -28.5q0 -14 -0.5 -30t-0.5 -33q-1 -18 -2 -37t-2 -40q-1 -20 -2 -42t-2 -45q-6 -95 -22 -173
t-43 -139h355z" />
    <glyph glyph-name="uni0415" unicode="&#x415;" horiz-adv-x="950" 
d="M220 665h512v-62h-443v-265h425v-63h-425v-294h451v-62h-520v746z" />
    <glyph glyph-name="uni0416" unicode="&#x416;" horiz-adv-x="950" 
d="M440 686h70v-428l292 428h83l-242 -355l298 -411h-86l-254 347l-91 -133v-214h-70v216l-96 136l-255 -352h-86l300 411l-243 355h82l298 -429v429z" />
    <glyph glyph-name="uni0417" unicode="&#x417;" horiz-adv-x="950" 
d="M288 124q2 -41 15.5 -70t37.5 -46q23 -18 56.5 -27t77.5 -9q17 0 33.5 2.5t33.5 8.5q15 5 29 12.5t26 18.5q12 9 21 21.5t17 27.5q6 14 10 30.5t4 34.5q0 13 -2.5 26t-6.5 25q-6 12 -13 22.5t-16 20.5q-9 9 -19.5 16.5t-21.5 14.5q-12 6 -23.5 9.5t-23.5 5.5q-11 1 -23 2
t-25 2h-30.5h-33.5v70h32.5t29.5 1q12 0 24.5 1.5t24.5 4.5q21 6 38.5 17.5t32.5 28.5q14 15 22 36t10 48q0 15 -2.5 29.5t-8.5 28.5q-7 12 -15.5 23.5t-18.5 20.5q-12 9 -24.5 15.5t-25.5 12.5q-15 4 -30 7t-30 3q-35 0 -62.5 -7.5t-46.5 -21.5q-21 -15 -32 -39t-13 -57
h-69q1 23 6.5 44t14.5 39q8 18 20 33t27 28q14 12 31.5 21t38.5 16q19 6 41.5 9t47.5 3q21 0 42 -4t42 -11q19 -8 37 -18.5t34 -23.5q15 -15 27 -31.5t22 -34.5q9 -20 13 -40.5t4 -42.5q-1 -27 -6.5 -51t-15.5 -44q-12 -21 -29 -40t-40 -35q25 -15 46.5 -34t38.5 -40
q15 -23 23 -50.5t8 -59.5q-1 -27 -6 -50.5t-14 -43.5q-11 -21 -24 -39t-29 -32q-18 -15 -37.5 -26t-41.5 -18q-23 -8 -47.5 -11.5t-49.5 -3.5q-26 0 -50.5 3t-46.5 11q-24 6 -44.5 16t-37.5 25q-18 13 -32 30.5t-23 38.5q-11 20 -16 44t-4 53h71z" />
    <glyph glyph-name="uni0418" unicode="&#x418;" horiz-adv-x="950" 
d="M197 -80v746h69v-631l414 631h73v-746h-69v633l-414 -633h-73z" />
    <glyph glyph-name="uni0419" unicode="&#x419;" horiz-adv-x="950" 
d="M191 -80v758h81v-616l404 616h83v-758h-81v618l-404 -618h-83zM655 825q-5 -17 -11.5 -32.5t-15.5 -28.5q-9 -15 -19.5 -27t-22.5 -21q-12 -11 -25.5 -19t-26.5 -13q-15 -6 -29.5 -9t-29.5 -3q-17 0 -32 3t-28 9q-15 5 -27.5 12.5t-23.5 18.5q-12 9 -22.5 21.5
t-19.5 27.5q-9 13 -16.5 28.5t-11.5 32.5h67q8 -19 20 -35t27 -28q14 -14 30.5 -20t36.5 -6q9 0 18 1.5t18 6.5q8 3 16 8t16 12q7 6 14 12.5t13 15.5q5 7 9.5 15.5t8.5 17.5h67z" />
    <glyph glyph-name="uni041A" unicode="&#x41a;" horiz-adv-x="950" 
d="M258 -81h-70v746h70v-391l381 391h87l-278 -309l355 -437h-89l-318 388l-138 -124v-264z" />
    <glyph glyph-name="uni041B" unicode="&#x41b;" horiz-adv-x="950" 
d="M351 622v-510q0 -21 -1.5 -40t-3.5 -37q-3 -19 -9 -35t-13 -29q-9 -14 -20 -25t-26 -18q-15 -9 -34.5 -14t-43.5 -5v73q12 0 22 2t19 6q7 3 13 7.5t11 11.5q3 6 6 13.5t6 17.5q1 9 2 19.5t2 23.5v602h468v-766h-70v703h-328z" />
    <glyph glyph-name="uni041C" unicode="&#x41c;" horiz-adv-x="950" 
d="M740 -81v590l-229 -590h-71l-228 590v-590h-69v746h81l252 -651l252 651h81v-746h-69z" />
    <glyph glyph-name="uni041D" unicode="&#x41d;" horiz-adv-x="950" 
d="M685 280h-418v-361h-69v746h69v-323h418v323h69v-746h-69v361z" />
    <glyph glyph-name="uni041E" unicode="&#x41e;" horiz-adv-x="950" 
d="M471 687q40 0 75.5 -8.5t65.5 -24.5q30 -17 54.5 -38.5t45.5 -48.5q19 -28 33.5 -59.5t25.5 -66.5q9 -36 14.5 -72.5t5.5 -73.5q0 -39 -5 -75.5t-14 -71.5q-11 -36 -26 -67t-34 -58q-21 -28 -45.5 -50t-54.5 -37q-30 -17 -65.5 -25t-75.5 -8q-42 0 -77 8t-65 25
q-30 15 -55 37t-44 49q-21 27 -35.5 58t-23.5 67q-11 35 -15.5 72t-4.5 76q0 37 4.5 74t15.5 73q9 35 24 66.5t36 59.5q19 27 44.5 48.5t55.5 38.5q30 15 64.5 23.5t75.5 8.5zM471 619q-33 0 -61 -7.5t-50 -20.5q-24 -15 -43 -33.5t-34 -40.5q-15 -24 -26.5 -50t-17.5 -54
q-8 -30 -11.5 -59t-3.5 -59t3.5 -59.5t11.5 -57.5q6 -30 17.5 -56t27.5 -48q15 -24 34 -42.5t43 -31.5q22 -15 49.5 -22t60.5 -7q31 0 59 7t52 22q23 13 42.5 32t34.5 43q15 22 26 48t19 56q6 28 10 57t4 59q0 28 -4 57t-10 59q-8 28 -19 54.5t-26 50.5q-16 22 -35.5 41
t-41.5 34q-24 13 -52 20.5t-59 7.5z" />
    <glyph glyph-name="uni041F" unicode="&#x41f;" horiz-adv-x="950" 
d="M271 622v-703h-70v766h549v-766h-70v703h-409z" />
    <glyph glyph-name="uni0420" unicode="&#x420;" horiz-adv-x="950" 
d="M207 665h302q25 0 49.5 -4.5t47.5 -11.5q22 -9 41.5 -20t37.5 -26q16 -15 29 -33t23 -39q9 -22 14 -46t5 -51t-5.5 -50t-14.5 -43q-11 -21 -24 -38.5t-29 -31.5q-18 -15 -37.5 -26t-41.5 -18q-23 -8 -47 -11.5t-48 -2.5h-231v-294h-71v746zM278 276h232q18 0 34.5 2.5
t33.5 8.5q15 4 29.5 11t26.5 18q11 9 20 21.5t17 27.5q6 14 9.5 31t3.5 38t-3.5 39t-9.5 34q-7 15 -16 28t-20 24q-12 10 -26 18t-29 14q-17 5 -34.5 8t-35.5 4h-232v-327z" />
    <glyph glyph-name="uni0421" unicode="&#x421;" horiz-adv-x="950" 
d="M787 153q-9 -27 -19 -52t-22 -47q-13 -24 -28.5 -44t-33.5 -36q-19 -17 -40.5 -29.5t-45.5 -21.5q-26 -10 -54.5 -14.5t-60.5 -4.5q-41 0 -76 8t-65 25q-30 15 -55 37t-44 50q-21 27 -36 58t-24 67q-11 35 -15.5 71.5t-4.5 75.5q0 37 4.5 74t15.5 73q9 35 23.5 66.5
t35.5 59.5q19 27 44.5 48.5t55.5 38.5q30 15 65 23.5t76 8.5q30 0 58 -5t54 -14q24 -11 45.5 -24.5t41.5 -29.5q18 -18 34.5 -37.5t30.5 -41.5q12 -23 22.5 -47.5t19.5 -49.5h-74q-8 18 -16.5 35.5t-17.5 34.5q-11 16 -23.5 30.5t-25.5 27.5q-15 12 -31.5 21.5t-34.5 17.5
q-19 6 -40 10t-43 4q-33 0 -60.5 -7.5t-49.5 -20.5q-24 -15 -43 -34t-34 -41q-15 -24 -26.5 -50.5t-17.5 -54.5q-8 -30 -11.5 -59t-3.5 -57q0 -30 3 -60t11 -58q6 -30 17.5 -56t26.5 -48q15 -24 34 -42.5t43 -31.5q22 -15 50 -21.5t61 -6.5q22 0 43 3t41 11q18 6 34 16
t31 23q13 12 25 26.5t23 31.5q9 15 17.5 32.5t14.5 37.5h75z" />
    <glyph glyph-name="uni0422" unicode="&#x422;" horiz-adv-x="950" 
d="M440 612h-248v63h566v-63h-248v-693h-70v693z" />
    <glyph glyph-name="uni0423" unicode="&#x423;" horiz-adv-x="950" 
d="M475 221l176 454h74l-257 -658q-9 -23 -19 -40.5t-22 -29.5q-13 -14 -32.5 -21t-44.5 -7h-38v64h43q7 0 14 3t13 10q5 6 9.5 13.5t8.5 16.5l37 99l-215 550h74z" />
    <glyph glyph-name="uni0424" unicode="&#x424;" horiz-adv-x="950" 
d="M505 57q27 3 52 9t49 16q22 9 42 21t38 29q16 15 29 34t23 42q9 22 13.5 48t4.5 56q0 28 -5 54t-14 49q-10 22 -23 41t-29 36q-18 15 -38 27.5t-42 22.5q-24 9 -48.5 15.5t-51.5 9.5v-510zM445 567q-28 -3 -53.5 -9t-47.5 -15q-24 -10 -43.5 -23t-35.5 -28
q-18 -17 -30.5 -36t-21.5 -41q-10 -23 -14.5 -49t-4.5 -54q0 -30 4.5 -56t14.5 -47q9 -23 22 -42t31 -34q16 -17 35.5 -29t43.5 -21q22 -10 47.5 -16.5t52.5 -9.5v510zM445 -9q-35 1 -66.5 8t-60.5 21q-30 12 -55.5 29t-46.5 39q-22 21 -38.5 45.5t-28.5 54.5q-13 28 -19 59
t-6 65q0 33 6 64t19 61q12 28 28.5 53t38.5 47q21 21 46.5 37.5t55.5 30.5q29 12 60.5 19t66.5 9v71h60v-71q33 -2 65 -9t62 -19q28 -14 53.5 -31t48.5 -38q21 -22 38 -47t30 -53q12 -29 18 -60t6 -64t-6 -64.5t-18 -59.5q-13 -30 -30 -55t-38 -46q-22 -22 -47.5 -39
t-54.5 -29q-30 -14 -62 -21t-65 -7v-71h-60v71z" />
    <glyph glyph-name="uni0425" unicode="&#x425;" horiz-adv-x="950" 
d="M474 246l-230 -327h-80l269 385l-251 361h80l211 -305l214 305h80l-253 -361l270 -385h-80z" />
    <glyph glyph-name="uni0426" unicode="&#x426;" horiz-adv-x="950" 
d="M281 -18h391v684h70v-685h72v-176h-70v114h-533v747h70v-684z" />
    <glyph glyph-name="uni0427" unicode="&#x427;" horiz-adv-x="950" 
d="M765 -81h-70v331q-20 -27 -45.5 -46.5t-56.5 -31.5q-32 -14 -65.5 -20t-69.5 -3q-21 0 -43.5 4t-45.5 13q-24 7 -46 18t-41 26q-21 13 -37.5 31t-28.5 39q-14 21 -20.5 45t-6.5 52v308h70v-270q0 -27 4.5 -49t13.5 -40q8 -18 20 -33t27 -26q15 -12 32 -20.5t37 -13.5
q19 -6 39.5 -9t41.5 -3q17 -2 35.5 0.5t38.5 10.5q18 6 36 16t35 24q15 12 28.5 26.5t25.5 32.5q10 16 15.5 33t6.5 35v286h70v-766z" />
    <glyph glyph-name="uni0428" unicode="&#x428;" horiz-adv-x="950" 
d="M739 -18v703h69v-766h-666v766h69v-703h229v703h70v-703h229z" />
    <glyph glyph-name="uni0429" unicode="&#x429;" horiz-adv-x="950" 
d="M143 -81v766h70v-703h229v703h70v-703h229v703h69v-703h73v-187h-70v124h-670z" />
    <glyph glyph-name="uni042A" unicode="&#x42a;" horiz-adv-x="950" 
d="M369 328v-346h223q18 -2 35 1.5t34 11.5q15 6 29.5 16t26.5 23q11 12 20 25.5t17 30.5q6 15 9.5 31.5t3.5 33.5q0 16 -3.5 32t-9.5 33q-8 15 -17 29.5t-21 27.5q-12 12 -26.5 21.5t-29.5 17.5q-17 6 -33.5 9t-34.5 3h-223zM300 622h-199v63h268v-295h223q25 0 49.5 -4
t47.5 -12q22 -9 41.5 -21t37.5 -27q16 -17 29 -35.5t23 -39.5q9 -23 14 -47t5 -49q0 -27 -5 -51t-14 -45q-10 -23 -23 -42t-29 -34q-18 -16 -37.5 -28t-41.5 -20q-23 -9 -47.5 -13t-49.5 -3h-292v703z" />
    <glyph glyph-name="uni042B" unicode="&#x42b;" horiz-adv-x="950" 
d="M193 -18h244q36 0 64.5 10.5t51.5 31.5q21 20 32.5 48.5t11.5 64.5q0 15 -3.5 30t-9.5 29q-7 12 -16 23.5t-19 21.5q-12 9 -24.5 16t-25.5 13q-15 4 -30 6.5t-30 2.5h-246v-297zM193 341h237q21 0 43.5 -3t45.5 -9q22 -8 42 -18.5t38 -23.5q17 -15 30.5 -32.5t24.5 -38.5
q9 -22 12 -46t0 -51q-3 -23 -8.5 -42.5t-14.5 -37.5q-10 -19 -22.5 -35t-27.5 -29q-17 -14 -36 -24t-41 -16q-23 -8 -49 -11.5t-54 -3.5h-290v746h70v-325zM738 666h70v-746h-70v746z" />
    <glyph glyph-name="uni042C" unicode="&#x42c;" horiz-adv-x="950" 
d="M282 -18h244q36 0 64.5 10.5t51.5 31.5q21 20 32 48.5t11 64.5q0 15 -3 29.5t-9 28.5q-7 12 -15.5 23t-18.5 21q-12 9 -24.5 16t-25.5 13q-15 4 -30 7t-30 4h-247v-297zM282 341h236q25 0 48.5 -4t45.5 -10q21 -8 39.5 -18t35.5 -23q15 -15 28 -32t22 -38t13.5 -45.5
t4.5 -51.5q0 -23 -4.5 -42.5t-13.5 -37.5q-9 -19 -22 -35t-29 -29q-17 -14 -37 -24t-43 -16q-24 -8 -50.5 -11.5t-54.5 -3.5h-289v746h70v-325z" />
    <glyph glyph-name="uni042D" unicode="&#x42d;" horiz-adv-x="950" 
d="M336 263v64h389q-2 28 -6.5 55.5t-11.5 54.5q-9 26 -20.5 49.5t-26.5 44.5q-16 19 -35 35.5t-41 29.5q-23 12 -49 18t-55 6q-19 0 -37 -2.5t-35 -6.5q-18 -5 -34 -11.5t-30 -15.5q-15 -10 -28 -21.5t-23 -24.5q-11 -15 -18.5 -31t-11.5 -34h-77q18 53 45 93.5t63 68.5
q34 27 80.5 41t104.5 14q40 0 75.5 -8.5t65.5 -23.5q30 -17 54.5 -39t44.5 -49q19 -28 33.5 -59.5t24.5 -66.5q9 -36 14 -73t5 -75q0 -39 -5 -75.5t-14 -71.5q-10 -36 -24.5 -67t-33.5 -58q-20 -28 -44.5 -50t-53.5 -38q-30 -17 -65.5 -25t-75.5 -8q-58 0 -106 13.5
t-86 40.5q-39 27 -67 66.5t-44 93.5h78q11 -36 32 -63t51 -45q30 -19 65 -28t76 -9q29 0 55 6t49 18q21 12 40 27.5t35 36.5q15 19 26.5 42.5t20.5 50.5q8 25 13 52.5t8 57.5h-390z" />
    <glyph glyph-name="uni042E" unicode="&#x42e;" horiz-adv-x="950" 
d="M562 616q-31 0 -56.5 -7.5t-45.5 -22.5q-21 -15 -38 -34.5t-29 -42.5q-14 -24 -23 -50t-14 -54q-6 -30 -9 -58t-3 -55q0 -29 3 -57t9 -56q5 -30 14 -56t23 -49q12 -24 29 -43t38 -33q20 -15 45.5 -22.5t56.5 -7.5q30 0 55.5 7.5t46.5 23.5q20 15 36.5 34.5t30.5 43.5
q12 23 22 49t16 55q5 28 8 56t3 55t-3 55t-8 58q-6 28 -15.5 54.5t-21.5 50.5q-14 22 -30.5 41.5t-37.5 34.5t-46.5 22.5t-55.5 7.5zM173 323h100q0 33 5 66t15 66q9 32 23 61t32 55q18 25 40.5 45.5t49.5 36.5q26 15 57 23t67 8q38 0 71 -9t61 -25q27 -18 49 -41t40 -50
q17 -29 30 -60.5t22 -65.5q7 -36 11.5 -71t4.5 -70q0 -36 -4.5 -71.5t-11.5 -69.5q-9 -36 -22 -67.5t-30 -58.5q-18 -29 -40 -51.5t-49 -38.5q-28 -18 -61 -26.5t-71 -8.5q-36 0 -67 7.5t-57 23.5q-27 15 -49.5 35.5t-40.5 46.5q-18 25 -32 54t-23 62q-10 31 -15 64t-5 68
h-100v-342h-70v746h70v-342z" />
    <glyph glyph-name="uni042F" unicode="&#x42f;" horiz-adv-x="950" 
d="M331 237q-18 4 -33.5 11.5t-28.5 18.5q-15 9 -27.5 20.5t-21.5 25.5q-11 13 -19 28t-13 33q-6 16 -9 33.5t-3 37.5q0 24 4.5 46.5t14.5 43.5q9 20 21.5 38t29.5 33q15 15 34 26.5t42 20.5q21 7 44.5 10.5t49.5 2.5h308v-746h-69v304h-251q-26 -38 -51 -76t-49 -75
q-25 -39 -50 -77.5t-50 -75.5h-80zM655 286v318h-234q-18 -2 -35 -4.5t-32 -6.5q-17 -5 -30.5 -12t-24.5 -16q-12 -10 -21 -22t-15 -26q-7 -15 -10 -33t-3 -39t3 -38t11 -31q6 -15 15 -27.5t21 -21.5q11 -11 24.5 -18.5t30.5 -11.5q15 -6 31.5 -8.5t34.5 -2.5h234z" />
    <glyph glyph-name="uni0430" unicode="&#x430;" horiz-adv-x="950" 
d="M713 15v-13t2 -13q0 -8 1.5 -15.5t3.5 -13.5q0 -7 1.5 -13t3.5 -11q0 -6 1 -10t3 -7h-70q-3 5 -5 12.5t-4 17.5q-3 9 -5 18.5t-2 20.5q-11 -9 -21.5 -17t-21.5 -15q-12 -9 -25 -15.5l-25 -12.5q-14 -6 -27 -11t-26 -8q-14 -5 -27.5 -7t-26.5 -2q-18 -2 -36 -0.5t-36 6.5
q-18 3 -34.5 9.5t-30.5 15.5q-15 9 -27.5 20t-21.5 26q-11 13 -16.5 29.5t-6.5 36.5q-2 25 2 46.5t14 39.5q9 16 22 30t30 26q16 10 35 19t41 15q21 6 43 10t45 7q3 0 8 0.5t10 1.5q6 0 12.5 1t14.5 2q14 0 28.5 2.5t29.5 7.5q14 3 26.5 8t24.5 13q10 6 16 15.5t6 21.5
q0 14 -4 26.5t-10 24.5q-8 10 -16.5 19.5t-18.5 17.5q-12 7 -24 12.5t-25 10.5q-15 3 -28.5 5.5t-26.5 2.5q-16 0 -31 -2t-29 -5q-15 -5 -28 -11t-23 -13q-12 -9 -20 -19.5t-14 -22.5q-7 -14 -10 -29t-1 -33h-70q-2 24 2 45t14 41q9 18 22 33.5t30 29.5q15 12 34 21.5
t40 17.5q21 6 42 9.5t42 3.5t42 -3t42 -9q19 -7 37 -16.5t35 -21.5q15 -13 27.5 -28t22.5 -33q9 -18 13.5 -39t4.5 -43v-286zM642 208q-14 -6 -30.5 -11t-36.5 -9q-21 -5 -41.5 -8.5t-40.5 -5.5q-8 -1 -15 -2t-15 -2q-7 -1 -15 -2t-15 -2q-17 -3 -32.5 -7t-28.5 -10
q-15 -6 -27 -15t-21 -19q-10 -12 -15 -27.5t-5 -34.5q0 -23 10.5 -40t31.5 -27q19 -12 45 -16.5t58 -2.5q12 0 26.5 3.5t32.5 9.5q16 5 32 12.5t32 17.5q15 9 27.5 20t23.5 24q9 12 14 25.5t5 28.5v100z" />
    <glyph glyph-name="uni0431" unicode="&#x431;" horiz-adv-x="950" 
d="M474 426q-23 0 -42 -5.5t-35 -14.5q-17 -11 -31 -24.5t-24 -29.5q-12 -17 -20.5 -35.5t-13.5 -37.5q-6 -21 -8.5 -41.5t-2.5 -39.5q0 -21 2.5 -41.5t8.5 -39.5q5 -21 13 -39.5t20 -33.5q10 -17 24 -30.5t31 -22.5q16 -11 35.5 -16t42.5 -5q21 0 40.5 5t36.5 16
q16 9 30 22.5t26 30.5q10 16 18.5 34.5t14.5 39.5q5 19 8 39t3 41q0 19 -3 39.5t-8 41.5q-6 19 -14.5 37.5t-18.5 35.5q-12 16 -26 29.5t-30 24.5q-17 9 -36.5 14.5t-40.5 5.5zM335 588q32 27 70 41.5t83 14.5q11 0 23 -1t25 -2q12 -3 24 -3.5t24 1.5q11 0 21.5 3.5
t20.5 9.5q9 6 15.5 16.5t12.5 27.5h69q-5 -21 -12 -37.5t-16 -28.5q-11 -14 -26 -24.5t-33 -18.5t-36.5 -13t-36.5 -6q-20 -3 -39.5 -2.5t-38.5 3.5q-14 1 -27.5 -0.5t-25.5 -5.5q-14 -6 -26.5 -13.5t-22.5 -16.5q-12 -11 -21 -22t-16 -23q-9 -13 -14 -25.5t-8 -24.5
q31 27 68.5 41t81.5 14q30 0 56 -6.5t50 -18.5q22 -13 41.5 -29.5t35.5 -36.5q15 -21 26.5 -45t20.5 -50q7 -27 11.5 -54.5t4.5 -54.5q0 -29 -4.5 -56t-11.5 -53q-9 -27 -20.5 -50.5t-26.5 -43.5q-16 -21 -35.5 -37.5t-41.5 -28.5q-24 -13 -50 -19t-56 -6q-31 0 -58 6
t-49 19q-24 12 -43 28.5t-34 37.5q-16 20 -27.5 43.5t-18.5 50.5q-9 26 -12.5 53t-3.5 56v50.5t2 54.5q0 27 3 53t9 53q4 25 12 49.5t20 48.5q10 22 25.5 42.5t35.5 38.5z" />
    <glyph glyph-name="uni0432" unicode="&#x432;" horiz-adv-x="950" 
d="M264 -80v566h215q15 0 30.5 -2t30.5 -6q14 -5 27.5 -11.5t25.5 -15.5t22 -19.5t19 -22.5q7 -13 12 -26.5t8 -28.5q2 -22 -1 -41.5t-11 -36.5q-9 -18 -22 -34t-30 -29q19 -8 35.5 -21t28.5 -31q12 -19 17 -40t5 -45q-2 -18 -6.5 -34t-11.5 -29q-8 -15 -18 -27.5t-22 -22.5
q-13 -11 -27.5 -18.5t-30.5 -12.5q-18 -6 -36.5 -9t-37.5 -3h-222zM333 244h130q11 -1 22 0.5t23 4.5q10 2 20.5 6t19.5 10q8 5 15 12t13 16q4 8 7 17.5t3 20.5q0 23 -8.5 40.5t-24.5 29.5q-18 10 -40.5 16t-49.5 6h-130v-179zM333 -17h130q30 -2 55 4t46 19q19 12 29.5 31
t12.5 46q0 10 -2.5 20.5t-8.5 20.5q-7 9 -15.5 17t-17.5 16q-11 6 -22.5 11t-23.5 9q-14 3 -26.5 3.5t-24.5 0.5h-132v-198z" />
    <glyph glyph-name="uni0433" unicode="&#x433;" horiz-adv-x="950" 
d="M282 486h386v-63h-317v-503h-69v566z" />
    <glyph glyph-name="uni0434" unicode="&#x434;" horiz-adv-x="950" 
d="M294 137q18 42 29 95t14 118l2 34t1 34q1 17 2 33.5t2 33.5q0 16 0.5 31.5t0.5 30.5q0 14 0.5 28t0.5 27h312v-465h54v-217h-70v154h-333v-154h-70v217h55zM589 137v402h-175q0 -9 -0.5 -18t-0.5 -19t-0.5 -20.5t-0.5 -22.5q-1 -13 -1.5 -26t-1.5 -28q-1 -14 -1.5 -29
t-0.5 -30q-3 -33 -6 -61.5t-7 -53.5q-5 -27 -11.5 -50t-15.5 -44h222z" />
    <glyph glyph-name="uni0435" unicode="&#x435;" horiz-adv-x="950" 
d="M475 504q28 0 55 -6.5t52 -18.5q24 -13 44 -29.5t38 -37.5q16 -21 28.5 -46t21.5 -52q7 -29 10 -58.5t1 -60.5h-428q-2 -20 1 -39.5t11 -38.5q6 -21 15.5 -38.5t22.5 -32.5q12 -16 26 -28.5t31 -21.5q16 -11 33.5 -15.5t37.5 -4.5q33 0 59 8t47 25q19 16 33 36.5t22 46.5
h74q-8 -21 -17 -40.5t-19 -35.5q-11 -18 -23.5 -32t-25.5 -26q-15 -12 -31.5 -21t-34.5 -15q-19 -7 -40 -10t-44 -2q-31 0 -58 6.5t-49 19.5q-24 12 -43.5 29t-34.5 38q-17 20 -29 43.5t-19 50.5q-9 26 -12.5 53.5t-3.5 56.5q0 28 4 56t13 55q7 26 19 50t29 45
q15 20 34.5 36.5t43.5 29.5q22 12 49 18.5t57 6.5zM651 257q-3 18 -7.5 35.5t-10.5 34.5q-8 15 -17.5 29.5t-20.5 27.5q-12 12 -25 22t-28 18q-16 6 -32.5 10t-34.5 4t-34.5 -4t-31.5 -11q-16 -8 -29.5 -18t-24.5 -22q-12 -13 -21.5 -27.5t-15.5 -29.5q-8 -17 -12.5 -34
t-5.5 -35h351z" />
    <glyph glyph-name="uni0436" unicode="&#x436;" horiz-adv-x="950" 
d="M440 -81v191l-66 75l-204 -266h-86l245 316l-215 250h87l239 -272v272h70v-274l240 274h86l-214 -250l245 -316h-87l-204 266l-66 -75v-191h-70z" />
    <glyph glyph-name="uni0437" unicode="&#x437;" horiz-adv-x="950" 
d="M347 107q0 -30 8.5 -54t25.5 -42q15 -19 39.5 -28t57.5 -9q27 0 48.5 7.5t38.5 22.5q16 14 24.5 34t10.5 46q0 12 -2.5 23t-6.5 21q-6 9 -12.5 17t-15.5 15q-9 6 -19.5 11t-22.5 9q-12 3 -25 4.5t-26 1.5h-45l1 70h40q10 0 21 1t22 4q9 1 18 5.5t18 10.5q7 5 13 12.5
t12 17.5q4 9 6.5 20t4.5 25q1 21 -5.5 39t-21.5 32q-16 12 -36 19t-44 7q-27 0 -47 -7.5t-32 -20.5q-14 -15 -21 -35t-7 -45h-67q0 39 12 70.5t36 55.5q23 23 55 35t74 12q16 0 32.5 -3t33.5 -9q15 -6 29 -14.5t26 -18.5q12 -12 21 -24.5t17 -26.5q6 -15 9.5 -31.5
t3.5 -33.5q-2 -24 -6.5 -43.5t-11.5 -33.5q-9 -15 -22 -28t-29 -25q21 -12 37.5 -26t28.5 -30q12 -18 17 -39t5 -46q-1 -21 -5 -39.5t-11 -33.5q-8 -17 -18.5 -31t-22.5 -25q-14 -12 -29 -20t-32 -13q-18 -6 -37 -9t-38 -3q-22 0 -42 3t-38 11q-19 6 -35 16t-29 24
q-14 13 -24.5 29t-17.5 35q-8 18 -11 38t-1 43h70z" />
    <glyph glyph-name="uni0438" unicode="&#x438;" horiz-adv-x="950" 
d="M333 -80h-67v566h69v-437l282 437h67v-566h-69v437z" />
    <glyph glyph-name="uni0439" unicode="&#x439;" horiz-adv-x="950" 
d="M646 635q-6 -17 -12.5 -31.5t-14.5 -27.5q-9 -14 -19 -25.5t-20 -20.5q-12 -11 -24.5 -18.5t-24.5 -11.5q-14 -6 -28 -8.5t-28 -2.5q-15 0 -29 2.5t-26 8.5q-14 4 -26.5 11.5t-22.5 18.5q-12 9 -22 20.5t-18 25.5q-9 13 -16 27.5t-11 31.5h62q8 -18 19.5 -32.5
t26.5 -26.5q13 -13 29 -19t34 -6q17 0 33.5 6t31.5 19q14 12 24.5 26.5t18.5 32.5h63zM333 -81h-67v566h69v-437l282 437h67v-566h-69v437z" />
    <glyph glyph-name="uni043A" unicode="&#x43a;" horiz-adv-x="950" 
d="M335 91v-171h-70v566h70v-303l284 303h86l-243 -261l267 -305h-85l-230 254z" />
    <glyph glyph-name="uni043B" unicode="&#x43b;" horiz-adv-x="950" 
d="M391 423v-360q0 -18 -1.5 -33.5t-4.5 -28.5q-3 -15 -8.5 -26.5t-11.5 -20.5q-8 -10 -17.5 -17.5t-21.5 -11.5q-13 -6 -29 -9t-34 -3v65q16 0 28 5t18 14q5 8 8 21t4 31v437h346v-566h-69v503h-207z" />
    <glyph glyph-name="uni043C" unicode="&#x43c;" horiz-adv-x="950" 
d="M657 486h62v-566h-67v365l-155 -365h-44l-155 365v-365h-67v566h62l182 -447z" />
    <glyph glyph-name="uni043D" unicode="&#x43d;" horiz-adv-x="950" 
d="M610 185h-270v-266h-69v566h69v-237h270v237h69v-566h-69v266z" />
    <glyph glyph-name="uni043E" unicode="&#x43e;" horiz-adv-x="950" 
d="M474 502q30 0 57 -6.5t51 -18.5q22 -14 41.5 -30.5t36.5 -36.5q15 -21 26.5 -45t20.5 -50q7 -27 11.5 -55t4.5 -55q0 -29 -4.5 -56t-11.5 -53q-9 -27 -20.5 -51t-26.5 -44q-17 -21 -36.5 -38t-41.5 -29q-24 -14 -51 -20t-57 -6q-31 0 -58 6t-49 19q-24 12 -43.5 29
t-34.5 38q-17 20 -29 44t-19 51q-9 26 -12.5 53.5t-3.5 56.5q0 28 3.5 56t12.5 55q7 27 19 50.5t29 44.5q15 20 34.5 36.5t43.5 29.5q22 12 49 18.5t58 6.5zM474 436q-23 0 -42 -5.5t-35 -15.5q-18 -11 -32 -24.5t-24 -29.5q-12 -18 -20.5 -36.5t-13.5 -38.5
q-6 -21 -8.5 -41.5t-2.5 -39.5q0 -21 2.5 -41.5t8.5 -40.5q5 -21 13.5 -40t20.5 -35q10 -17 24 -30.5t31 -22.5q16 -11 35.5 -16t42.5 -5q21 0 40.5 5t37.5 16q16 10 30 23.5t26 30.5q10 16 18.5 34.5t14.5 39.5q5 20 8 40.5t3 41.5q0 20 -3 40.5t-8 41.5q-6 20 -14.5 38.5
t-18.5 35.5q-12 16 -26 29.5t-30 24.5q-18 10 -37.5 15.5t-40.5 5.5z" />
    <glyph glyph-name="uni043F" unicode="&#x43f;" horiz-adv-x="950" 
d="M338 423v-503h-69v566h411v-566h-69v503h-273z" />
    <glyph glyph-name="uni0440" unicode="&#x440;" horiz-adv-x="950" 
d="M484 -79q-29 0 -54.5 6t-46.5 18q-23 12 -42.5 28.5t-34.5 38.5v-202h-69v687h69v-73q15 21 34.5 37.5t42.5 29.5q21 12 46.5 18.5t54.5 6.5q30 0 56 -7t49 -19q21 -14 39.5 -30.5t33.5 -37.5q14 -21 25 -45t19 -50q6 -27 10 -54.5t4 -54.5t-4 -54t-11 -53
q-8 -27 -19 -50.5t-25 -44.5q-15 -22 -34 -39.5t-40 -29.5q-23 -14 -48.5 -20t-54.5 -6zM477 450q-22 0 -41 -5.5t-34 -15.5q-17 -12 -30 -26t-23 -30q-12 -18 -20 -36.5t-12 -38.5q-6 -21 -8.5 -41t-2.5 -39q0 -21 2 -41t8 -40q4 -21 12 -39.5t19 -34.5q10 -18 23 -31.5
t30 -23.5q15 -11 34.5 -16t42.5 -5q21 0 40.5 5t36.5 16q15 10 28.5 23.5t24.5 31.5q10 16 17.5 34.5t13.5 39.5q4 20 7 40t3 41q0 19 -3 39.5t-7 41.5q-6 20 -14 38.5t-18 36.5q-11 16 -24.5 29.5t-28.5 25.5q-17 10 -36 15.5t-40 5.5z" />
    <glyph glyph-name="uni0441" unicode="&#x441;" horiz-adv-x="950" 
d="M721 100q-12 -45 -33 -80t-49 -60q-30 -27 -68.5 -39.5t-85.5 -12.5q-31 0 -58 6t-50 19q-24 12 -43.5 29t-34.5 38q-17 20 -29 44t-19 51q-9 26 -12.5 53.5t-3.5 56.5q0 28 3.5 56t12.5 55q7 27 19 50.5t29 44.5q15 20 34.5 36.5t43.5 29.5q23 12 50 18.5t58 6.5
q22 0 43.5 -4.5t42.5 -11.5q19 -9 36.5 -19.5t33.5 -23.5q15 -14 28 -30t24 -34q9 -19 16 -38.5t12 -40.5h-73q-9 28 -23 52.5t-33 44.5q-20 19 -47 29t-60 10q-23 0 -43 -5.5t-36 -14.5q-18 -11 -32 -24t-24 -29q-12 -17 -20.5 -35.5t-13.5 -38.5q-6 -21 -8.5 -42t-2.5 -42
t2.5 -42t8.5 -41q5 -21 13.5 -40t20.5 -35q10 -17 24 -30.5t32 -22.5q16 -11 35.5 -15.5t43.5 -4.5q30 0 55.5 8.5t47.5 26.5q21 17 36 39.5t24 51.5h73z" />
    <glyph glyph-name="uni0442" unicode="&#x442;" horiz-adv-x="950" 
d="M440 423h-183v63h437v-63h-184v-503h-70v503z" />
    <glyph glyph-name="uni0443" unicode="&#x443;" horiz-adv-x="950" 
d="M476 101l178 447h74l-257 -649q-5 -11 -9.5 -20.5t-8.5 -17.5q-6 -9 -11.5 -17t-11.5 -14q-8 -7 -16 -12t-17 -8q-10 -4 -21.5 -6t-23.5 -2h-38v62h44q7 0 13.5 3t11.5 10q4 6 8 13.5t8 16.5l40 101l-215 540h75z" />
    <glyph glyph-name="uni0444" unicode="&#x444;" horiz-adv-x="950" 
d="M289 511q-21 0 -39 -5.5t-32 -15.5q-15 -11 -27 -24.5t-21 -28.5q-10 -17 -17 -34.5t-10 -36.5q-5 -21 -7 -40t-2 -37q0 -20 2 -39t7 -38q3 -20 10 -38t17 -33q9 -17 21 -30t27 -22q14 -11 32 -16t39 -5t38.5 5t32.5 16q13 9 25 22t21 30q8 15 14 33t11 38q3 19 5.5 38
t2.5 39q0 18 -2.5 37t-5.5 40q-5 19 -11 37t-15 35q-9 15 -21 28.5t-25 24.5q-15 9 -32.5 14.5t-37.5 5.5zM661 511q-21 0 -38.5 -5.5t-30.5 -15.5q-15 -11 -26.5 -24.5t-20.5 -28.5q-9 -17 -16 -34.5t-10 -36.5q-5 -21 -6.5 -40t-1.5 -37q0 -20 1.5 -39t6.5 -38
q3 -20 10 -38t16 -33q8 -17 19.5 -30t26.5 -22q13 -11 31 -16t39 -5t39 5t33 16q14 9 26 22t22 30q9 15 16 33t12 38q3 19 5.5 38t2.5 39q0 18 -2.5 37t-6.5 40q-5 19 -11.5 37t-15.5 35q-10 15 -22 28.5t-26 24.5q-15 9 -33 14.5t-39 5.5zM440 782h70v-286q13 16 29 30
t36 26q18 10 40 15.5t46 5.5q27 0 51.5 -6.5t45.5 -18.5q20 -14 37 -30.5t32 -35.5q13 -21 23.5 -44t18.5 -47q6 -26 10 -51.5t4 -50.5q0 -26 -4 -51t-10 -49q-8 -26 -18.5 -49t-23.5 -43q-15 -21 -32 -37.5t-37 -28.5q-21 -14 -45.5 -20t-51.5 -6q-23 0 -44 5t-39 17
q-20 10 -37 24.5t-31 32.5v-276h-70v269q-15 -17 -32.5 -30t-35.5 -22q-20 -11 -41 -15.5t-42 -4.5q-27 0 -50.5 6.5t-43.5 20.5q-21 13 -38.5 30.5t-30.5 38.5q-15 21 -26 43.5t-18 48.5q-8 24 -11.5 48t-3.5 48q0 26 3.5 52t12.5 52q7 25 18 47.5t26 43.5q13 19 30.5 35.5
t38.5 29.5q20 12 43 18t50 6q22 0 42.5 -5.5t40.5 -14.5q18 -11 35.5 -24.5t32.5 -29.5v283z" />
    <glyph glyph-name="uni0445" unicode="&#x445;" horiz-adv-x="950" 
d="M475 148l-170 -228h-84l210 285l-201 271h84l161 -216l161 216h84l-204 -272l214 -284h-86z" />
    <glyph glyph-name="uni0446" unicode="&#x446;" horiz-adv-x="950" 
d="M345 -18h264v504h69v-505h64v-155h-71v93h-397v567h71v-504z" />
    <glyph glyph-name="uni0447" unicode="&#x447;" horiz-adv-x="950" 
d="M694 -80h-71v216q-15 -15 -33.5 -27t-39.5 -21q-23 -10 -48.5 -14.5t-53.5 -2.5q-18 0 -35.5 4t-33.5 12q-18 6 -33 16t-27 23q-14 12 -24.5 27t-17.5 33q-9 16 -12.5 35t-3.5 40v225h71v-207q0 -21 2.5 -38t8.5 -30q5 -14 12.5 -25t18.5 -18q9 -9 20.5 -15t26.5 -9
q13 -5 28.5 -6.5t32.5 -1.5q11 0 23 2.5t25 8.5q12 5 23 12.5t22 16.5q9 8 17.5 18t16.5 22q6 10 9.5 21.5t4.5 23.5v225h71v-566z" />
    <glyph glyph-name="uni0448" unicode="&#x448;" horiz-adv-x="950" 
d="M652 -18v503h70v-566h-494v566h69v-503h142v503h71v-503h142z" />
    <glyph glyph-name="uni0449" unicode="&#x449;" horiz-adv-x="950" 
d="M253 -81v566h69v-503h143v503h70v-503h142v503h70v-503h55v-154h-71v91h-478z" />
    <glyph glyph-name="uni044A" unicode="&#x44a;" horiz-adv-x="950" 
d="M397 -17h143q15 0 29 2t28 5q12 3 23.5 8t22.5 13q9 6 17.5 15.5t14.5 21.5q5 10 8 24t3 32q0 15 -3 29t-9 26q-7 10 -15.5 19t-17.5 17q-11 6 -22.5 11.5t-23.5 9.5q-14 3 -27.5 5t-26.5 3h-144v-241zM326 -80v503h-144v63h215v-199h148q23 0 44.5 -2.5t42.5 -8.5
q19 -8 36 -18t32 -22q13 -14 24 -30t19 -34q7 -19 10 -39.5t2 -42.5q-2 -21 -6.5 -39t-12.5 -33q-9 -17 -21 -30.5t-25 -23.5q-15 -12 -30.5 -20t-32.5 -13q-18 -6 -37 -9t-37 -2h-227z" />
    <glyph glyph-name="uni044B" unicode="&#x44b;" horiz-adv-x="950" 
d="M252 -17h149q16 0 31.5 2t29.5 8q13 4 24.5 10.5t21.5 15.5q9 7 16 16.5t13 21.5q4 10 6.5 22t2.5 25t-3 25.5t-9 24.5q-6 10 -14.5 20t-17.5 19q-11 7 -23 13t-24 11q-14 3 -27 5t-26 2h-150v-241zM252 486v-199h154q23 0 44.5 -2.5t42.5 -8.5q19 -8 36 -18t32 -22
q13 -14 24 -30t19 -34q7 -19 10 -39.5t2 -42.5q-2 -21 -6.5 -38.5t-12.5 -32.5q-9 -17 -20.5 -30.5t-24.5 -23.5q-15 -12 -30.5 -20t-32.5 -13q-18 -6 -37 -9t-37 -3h-232v566h69zM675 486h69v-566h-69v566z" />
    <glyph glyph-name="uni044C" unicode="&#x44c;" horiz-adv-x="950" 
d="M335 -17h149q16 0 31.5 2t29.5 8q12 4 23.5 10.5t21.5 15.5q9 7 15.5 16.5t12.5 21.5q4 10 6.5 22t2.5 25t-3 25.5t-9 24.5q-6 10 -14 19.5t-17 18.5q-11 7 -22.5 13t-23.5 11q-14 3 -27 5.5t-26 2.5h-150v-241zM335 486v-199h154q23 0 44.5 -4t42.5 -10q19 -8 35.5 -18
t31.5 -22q13 -14 24 -29t19 -33q6 -19 9.5 -39.5t3.5 -41.5q-2 -21 -6.5 -39t-12.5 -33q-9 -17 -21 -30.5t-25 -23.5q-15 -12 -30.5 -20t-32.5 -13q-18 -6 -37 -9t-38 -2h-232v566h71z" />
    <glyph glyph-name="uni044D" unicode="&#x44d;" horiz-adv-x="950" 
d="M445 179v62h203q-3 19 -7 38.5t-10 39.5q-6 18 -14.5 35t-18.5 32q-12 13 -25.5 25t-28.5 21q-17 8 -35.5 12.5t-39.5 4.5q-15 0 -29 -3t-26 -8q-14 -6 -26.5 -13.5t-22.5 -16.5q-12 -10 -21.5 -21t-16.5 -23q-9 -13 -15.5 -26.5t-10.5 -26.5h-72q6 22 15 42.5t21 39.5
q11 18 24.5 34t29.5 30q15 12 31.5 22.5t36.5 18.5q18 6 38 10t43 4q30 0 58 -6.5t52 -18.5q23 -14 42.5 -30.5t36.5 -37.5q15 -21 26.5 -45t20.5 -51q7 -28 11.5 -56.5t4.5 -56.5q0 -30 -4.5 -58t-11.5 -55q-9 -28 -20.5 -52t-26.5 -45q-17 -21 -36.5 -38t-42.5 -29
q-24 -13 -52 -19t-58 -6q-45 0 -82.5 13.5t-67.5 40.5q-32 26 -54 62.5t-34 84.5h79q6 -32 19.5 -56t36.5 -40q21 -18 46.5 -26.5t55.5 -8.5q21 0 40 3.5t36 12.5q15 7 28.5 18t25.5 26q10 13 19 29t15 35q6 18 9.5 37t6.5 40h-202z" />
    <glyph glyph-name="uni044E" unicode="&#x44e;" horiz-adv-x="950" 
d="M565 433q-23 0 -42.5 -5.5t-35.5 -15.5q-18 -11 -32 -24.5t-24 -29.5q-12 -17 -20.5 -35.5t-13.5 -38.5q-6 -21 -8.5 -42t-2.5 -40q0 -21 2.5 -42t8.5 -41q5 -21 13.5 -39.5t20.5 -34.5q10 -17 24 -30.5t32 -22.5q16 -11 35.5 -16t42.5 -5q21 0 40.5 5t36.5 16
q16 10 30 23.5t26 30.5q10 16 19 34.5t15 39.5q5 20 8 40.5t3 41.5q0 20 -3 40.5t-8 41.5q-6 20 -15 38.5t-19 35.5q-12 16 -26 29.5t-30 24.5q-17 10 -36.5 15.5t-40.5 5.5zM230 239h87q1 25 7 50t16 49q9 23 21 44t29 39q15 18 34 32t42 25q21 10 46 15.5t53 5.5
q30 0 57 -6.5t51 -18.5q22 -14 41.5 -30.5t36.5 -36.5q15 -21 26.5 -45t20.5 -50q7 -27 11.5 -55t4.5 -55q0 -29 -4.5 -56t-11.5 -53q-9 -27 -20.5 -51t-26.5 -44q-17 -21 -36.5 -38t-41.5 -29q-24 -14 -51 -20t-57 -6q-29 0 -54 5.5t-46 17.5q-23 10 -42.5 25t-34.5 34
q-17 18 -29 40t-21 47q-10 24 -15.5 49.5t-6.5 52.5h-86v-256h-70v566h70v-247z" />
    <glyph glyph-name="uni044F" unicode="&#x44f;" horiz-adv-x="950" 
d="M369 159q-27 9 -47 24t-35 36q-16 19 -23.5 43.5t-7.5 54.5q0 19 3.5 36.5t11.5 33.5q7 15 17 28t24 25q12 10 26.5 18.5t32.5 14.5q16 6 33.5 9t37.5 4h215v-566h-70v228h-149l-145 -228h-78zM587 210v213h-123q-33 0 -58.5 -6.5t-43.5 -18.5q-18 -14 -27 -34.5
t-9 -47.5q0 -16 2.5 -29t8.5 -22q5 -11 12.5 -18.5t17.5 -13.5q9 -6 20 -10.5t24 -6.5q12 -3 25 -4.5t28 -1.5h123z" />
    <glyph glyph-name="uni0451" unicode="&#x451;" horiz-adv-x="950" 
d="M381 645q10 0 19 -4.5t18 -11.5q7 -9 11.5 -19t4.5 -21q0 -12 -4.5 -22t-11.5 -17q-9 -9 -18 -12.5t-19 -3.5q-11 0 -20 3.5t-16 12.5q-9 7 -12.5 17t-3.5 22q0 11 3.5 21t12.5 19q7 7 16 11.5t20 4.5zM569 645q10 0 19 -4.5t18 -11.5q7 -9 11.5 -19t4.5 -21
q0 -12 -4.5 -22t-11.5 -17q-9 -9 -18 -12.5t-19 -3.5q-11 0 -20 3.5t-16 12.5q-9 7 -13 17t-4 22q0 11 4 21t13 19q7 7 16 11.5t20 4.5zM475 512q30 0 58 -7t53 -19q24 -14 44.5 -31.5t38.5 -38.5q16 -23 28.5 -48.5t21.5 -53.5q7 -30 10 -61t2 -62h-428q-2 -19 1 -37.5
t9 -36.5q6 -19 14.5 -35.5t20.5 -30.5q11 -15 25 -27t31 -21q15 -10 33 -14.5t38 -4.5q32 0 58 8t46 26q18 16 31.5 36.5t21.5 45.5h86q-8 -23 -17 -42.5t-19 -37.5q-11 -18 -23.5 -34t-26.5 -28q-15 -13 -32.5 -23t-36.5 -16q-20 -8 -42 -11t-46 -2q-31 0 -58 6.5t-50 20.5
q-24 12 -44.5 29.5t-35.5 39.5q-17 21 -29.5 45t-20.5 51q-9 27 -13 54.5t-4 56.5q0 28 4 56t13 56q8 27 20 51t29 46q15 21 35.5 37.5t44.5 30.5q23 12 50 19t59 7zM645 265q-3 17 -7.5 33.5t-10.5 32.5q-8 15 -17 28.5t-19 25.5q-12 11 -25 20t-27 17q-15 6 -31.5 9.5
t-32.5 3.5q-17 0 -32.5 -4t-29.5 -10q-15 -8 -28.5 -17t-24.5 -20q-12 -12 -21.5 -25.5t-15.5 -28.5q-8 -16 -12.5 -32.5t-4.5 -32.5h339z" />
    <glyph glyph-name="uni2015" unicode="&#x2015;" horiz-adv-x="950" 
d="M939 326v-62h-928v62h928z" />
    <glyph glyph-name="quoteleft" unicode="&#x2018;" horiz-adv-x="240" 
d="M171 722q-11 -8 -18.5 -16t-11.5 -16q-6 -9 -9 -18.5t-4 -18.5q15 3 27 2t22 -7q9 -7 13.5 -17.5t4.5 -25.5q-1 -12 -5 -21t-11 -15q-8 -7 -17.5 -10t-19.5 -3q-12 -2 -22 2.5t-19 15.5q-11 9 -15.5 23t-4.5 34q0 41 22.5 74.5t67.5 59.5v-43z" />
    <glyph glyph-name="quoteright" unicode="&#x2019;" horiz-adv-x="240" 
d="M67 579q9 7 16.5 15t13.5 17q4 8 7.5 17t5.5 20q-15 -5 -27 -3.5t-21 8.5q-10 6 -14.5 17t-4.5 26q0 12 4 21t12 16q7 6 16 9t21 3q10 0 20.5 -4t21.5 -13q9 -11 14 -25.5t5 -32.5q0 -42 -22.5 -75.5t-67.5 -58.5v43z" />
    <glyph glyph-name="quotedblleft" unicode="&#x201c;" horiz-adv-x="330" 
d="M138 722q-11 -8 -18.5 -16t-11.5 -16q-6 -9 -9 -18.5t-4 -18.5q15 3 27 2t22 -7q9 -7 13.5 -17.5t4.5 -25.5q-1 -12 -5 -21t-11 -15q-8 -7 -17.5 -10t-19.5 -3q-12 -2 -22 2.5t-19 15.5q-11 9 -15.5 23t-4.5 34q0 41 22.5 74.5t67.5 59.5v-43zM278 722q-11 -8 -18.5 -16
t-11.5 -16q-6 -9 -9 -18.5t-4 -18.5q15 3 27 2t22 -7q9 -7 13.5 -17.5t4.5 -25.5q-1 -12 -5 -21t-11 -15q-8 -7 -17.5 -10t-19.5 -3q-12 -2 -22 2.5t-19 15.5q-11 9 -15.5 23t-4.5 34q0 41 22.5 74.5t67.5 59.5v-43z" />
    <glyph glyph-name="quotedblright" unicode="&#x201d;" horiz-adv-x="330" 
d="M52 579q9 7 16.5 15t13.5 17q4 8 7.5 17t5.5 20q-15 -5 -27 -3.5t-21 8.5q-10 6 -14.5 17t-4.5 26q0 12 4 21t12 16q7 6 16 9t21 3q10 0 20.5 -4t21.5 -13q9 -11 14 -25.5t5 -32.5q0 -42 -22.5 -75.5t-67.5 -58.5v43zM193 579q9 7 16.5 15t13.5 17q4 8 7.5 17t5.5 20
q-15 -5 -27 -3.5t-21 8.5q-10 6 -14.5 17t-4.5 26q0 12 4 21t12 16q7 6 16 9t21 3q10 0 20.5 -4t21.5 -13q9 -11 14 -25.5t5 -32.5q0 -42 -22.5 -75.5t-67.5 -58.5v43z" />
    <glyph glyph-name="dagger" unicode="&#x2020;" horiz-adv-x="950" 
d="M524 686q0 -18 -2.5 -34.5t-6.5 -32.5q-5 -17 -8 -34t-3 -34q17 1 34 5t35 10q16 4 34 5.5t38 -0.5q21 -5 32.5 -17t11.5 -33q0 -11 -3 -18.5t-9 -13.5q-6 -7 -14.5 -11.5t-17.5 -6.5t-17.5 -2.5t-16.5 1.5q-9 0 -18 1.5t-17 4.5q-9 1 -18 3.5t-17 5.5q-5 0 -9.5 1
t-8.5 2q-5 1 -9.5 2t-8.5 2q0 -5 1 -11.5t4 -13.5q1 -9 3.5 -17.5t5.5 -16.5q3 -9 6.5 -17.5t8.5 -14.5q4 -8 9.5 -12.5t11.5 -6.5q-11 -11 -18.5 -24t-11.5 -29q-6 -17 -10 -34.5t-5 -35.5q-3 -20 -3.5 -39t-0.5 -37q-1 -10 -1.5 -19.5t-0.5 -17.5v-17v-15v-108v-37t1 -32
q0 -17 -1 -29t-1 -20q-5 -29 -12 -42.5t-16 -13.5q-12 0 -19 13.5t-9 42.5q-1 8 -1 20v27v31.5v36.5v111v35v40t-1.5 41t-2.5 41q-3 19 -7 37t-9 34q-6 15 -15 24.5t-19 15.5q12 9 22 21t16 27q6 13 9.5 28.5t6.5 33.5q-5 -1 -9.5 -2t-8.5 -2q-5 -1 -9 -2t-8 -1
q-9 -3 -17.5 -5.5t-16.5 -3.5q-9 -3 -18 -4.5t-18 -1.5q-10 -2 -19.5 -1.5t-18.5 2.5q-21 4 -31.5 16.5t-10.5 33.5t10.5 33.5t32.5 16.5q9 0 17.5 0.5t17.5 0.5q7 -2 15.5 -3.5t17.5 -2.5q7 -3 16 -5t18 -3q9 -3 18.5 -4.5t20.5 -2.5q0 16 -2.5 32t-6.5 32q-6 15 -8.5 32
t-2.5 35v12t2 14q0 6 2 13t5 13q2 6 5.5 11t9.5 10q4 3 10.5 5.5t15.5 2.5q7 0 13 -2t12 -5q4 -4 8 -8.5t7 -9.5q2 -6 3.5 -12.5t3.5 -12.5q0 -4 0.5 -7.5t0.5 -7.5q0 -3 0.5 -6t0.5 -6z" />
    <glyph glyph-name="daggerdbl" unicode="&#x2021;" horiz-adv-x="950" 
d="M445 501q-8 -2 -16 -3.5t-17 -2.5q-11 -3 -19.5 -5.5t-14.5 -3.5q-18 -6 -35.5 -7.5t-35.5 2.5q-21 4 -31.5 16.5t-10.5 33.5q0 20 10.5 32t32.5 16q18 2 35 0.5t34 -5.5q6 -3 14.5 -5t19.5 -3q9 -3 17.5 -5t16.5 -2q-2 7 -3.5 17.5t-2.5 22.5q-2 6 -3 11l-2 10
q-1 4 -2 8.5t-1 8.5q-3 9 -4.5 18t-1.5 20q-2 9 -1.5 18.5t3.5 20.5q4 24 16 36.5t32 12.5q19 0 30.5 -12t16.5 -36q1 -21 0 -40.5t-5 -37.5q-3 -10 -5 -19.5t-2 -18.5q-1 -6 -2 -11t-1 -10q-1 -5 -1.5 -10t-0.5 -9q6 0 14.5 2t19.5 5q4 0 8.5 1t8.5 2l8 2l8 2q8 3 16.5 4.5
t17.5 2.5q8 0 17 -0.5t18 -0.5q21 -4 32.5 -16t11.5 -32t-11 -32t-32 -18q-19 -3 -36.5 -2.5t-32.5 6.5l-8 2t-9 2q-4 1 -9 2.5t-9 3.5q-11 2 -19 3.5t-14 2.5v-76q6 0 14.5 2t19.5 5q9 1 17 3t16 5q15 4 32.5 5.5t36.5 -0.5q21 -4 32.5 -16t11.5 -32t-11 -32t-32 -18
q-18 -3 -35 -2.5t-34 6.5l-8 2t-9 2q-4 1 -9 2.5t-9 3.5q-11 2 -19 3.5t-14 2.5q-2 -9 -1.5 -16.5t3.5 -14.5q1 -8 4 -15t7 -13q3 -8 6.5 -14t8.5 -11q3 -6 7 -10t8 -7q-9 -12 -15 -23.5t-9 -23.5q-5 -14 -8.5 -27t-4.5 -26q-3 -14 -4.5 -28t-1.5 -28q-2 -15 -2 -29.5v-27.5
v-165q-3 -29 -10 -42.5t-18 -13.5q-6 0 -10.5 3.5t-7.5 11.5q-5 6 -7.5 16.5t-2.5 25.5v7v5q-1 0 -1 1v3v2.5v5.5v7v14v119v25.5v28.5q-1 13 -2.5 27t-2.5 29q-3 13 -6 26.5t-7 27.5q-5 12 -11.5 24t-14.5 24q9 7 16.5 17.5t13.5 24.5q4 12 7.5 27t5.5 33q-8 -2 -16 -3.5
t-17 -2.5q-11 -3 -19.5 -5.5t-14.5 -3.5q-9 -3 -17.5 -5t-16.5 -2q-9 -2 -18.5 -1.5t-18.5 3.5q-21 4 -31.5 16.5t-10.5 33.5q0 20 10.5 32t32.5 16q18 2 35 0.5t34 -5.5q7 -3 16 -5.5t19 -3.5q9 -3 17 -4.5t16 -1.5v76z" />
    <glyph glyph-name="twodotenleader" unicode="&#x2025;" horiz-adv-x="950" 
d="M769 351v-112h-110v112h110zM291 351v-112h-110v112h110z" />
    <glyph glyph-name="ellipsis" unicode="&#x2026;" horiz-adv-x="950" 
d="M824 351v-112h-108v112h108zM530 351v-112h-109v112h109zM234 351v-112h-108v112h108z" />
    <glyph glyph-name="perthousand" unicode="&#x2030;" horiz-adv-x="950" 
d="M599 673h72l-537 -758h-70zM296 669q22 0 40 -8t33 -23q13 -16 19.5 -38t6.5 -49q0 -18 -4 -36.5t-10 -36.5q-8 -20 -18 -38t-22 -33q-13 -17 -28 -30.5t-31 -23.5q-18 -12 -37 -17t-38 -5q-24 0 -42.5 7.5t-30.5 24.5q-14 15 -20 36.5t-6 48.5q0 17 3.5 35.5t12.5 38.5
q7 19 17 37t24 35q12 15 26.5 28.5t32.5 25.5q16 10 34 15.5t38 5.5zM333 550v7.5v10.5q-1 4 -2.5 9t-2.5 10q-3 4 -5.5 8t-5.5 7q-5 3 -9.5 4.5t-9.5 1.5q-12 0 -24 -4.5t-22 -11.5q-12 -9 -21.5 -19t-17.5 -22q-9 -13 -16.5 -26t-12.5 -26q-6 -14 -10 -26t-4 -22
q-1 -5 -1 -10t1 -9q0 -6 1 -10.5t4 -8.5q1 -5 4 -8.5t7 -6.5q3 -3 8 -4.5t11 -1.5q12 0 23.5 4t23.5 13q11 7 21.5 17.5t19.5 23.5q9 12 16 24.5t13 27.5q5 13 8 25t3 23zM497 260q22 0 40 -8t33 -23q13 -16 19.5 -38t6.5 -49q0 -18 -4 -36.5t-10 -36.5q-8 -20 -18 -38
t-22 -33q-13 -17 -28 -30.5t-31 -23.5q-18 -12 -37 -17t-38 -5q-24 0 -42.5 7.5t-30.5 24.5q-14 15 -20 36.5t-6 48.5q0 17 3.5 35.5t12.5 38.5q7 19 17 37t24 35q12 15 26.5 28.5t32.5 25.5q16 10 34 15.5t38 5.5zM534 141v7.5v10.5q-1 4 -2.5 9t-2.5 10q-3 4 -5.5 8
t-5.5 7q-5 3 -9.5 4.5t-9.5 1.5q-12 0 -24 -4.5t-22 -11.5q-12 -9 -21.5 -19t-17.5 -22q-9 -13 -16.5 -26t-12.5 -26q-6 -14 -10 -26t-4 -22q-1 -5 -1 -10t1 -9q0 -6 1 -10.5t4 -8.5q1 -5 4 -8.5t7 -6.5q3 -3 8 -4.5t11 -1.5q12 0 23.5 4t23.5 13q11 7 21.5 17.5t19.5 23.5
q9 12 16 24.5t13 27.5q5 13 8 25t3 23zM787 260q22 0 40 -8t33 -23q13 -16 19.5 -38t6.5 -49q0 -18 -4 -36.5t-10 -36.5q-8 -20 -18 -38t-22 -33q-13 -17 -28 -30.5t-31 -23.5q-18 -12 -37 -17t-38 -5q-24 0 -42.5 7.5t-30.5 24.5q-14 15 -20 36.5t-6 48.5q0 17 3.5 35.5
t12.5 38.5q7 19 17 37t24 35q12 15 26.5 28.5t32.5 25.5q16 10 34 15.5t38 5.5zM824 141v7.5v10.5q-1 4 -2.5 9t-2.5 10q-3 4 -5.5 8t-5.5 7q-5 3 -9.5 4.5t-9.5 1.5q-12 0 -24 -4.5t-22 -11.5q-12 -9 -21.5 -19t-17.5 -22q-9 -13 -16.5 -26t-12.5 -26q-6 -14 -10 -26
t-4 -22q-1 -5 -1 -10t1 -9q0 -6 1 -10.5t4 -8.5q1 -5 4 -8.5t7 -6.5q3 -3 8 -4.5t11 -1.5q12 0 23.5 4t23.5 13q11 7 21.5 17.5t19.5 23.5q9 12 16 24.5t13 27.5q5 13 8 25t3 23z" />
    <glyph glyph-name="minute" unicode="&#x2032;" horiz-adv-x="950" 
d="M238 778l-178 -279l-27 11l92 268h113z" />
    <glyph glyph-name="second" unicode="&#x2033;" horiz-adv-x="950" 
d="M238 778l-178 -279l-27 11l92 268h113zM368 778l-178 -279l-27 11l92 268h113z" />
    <glyph glyph-name="uni203B" unicode="&#x203b;" horiz-adv-x="950" 
d="M690 355q12 0 22.5 -4.5t19.5 -12.5q8 -9 12.5 -20t4.5 -23q0 -14 -4.5 -24.5t-11.5 -18.5q-9 -9 -20 -13t-23 -4t-22 4.5t-18 13.5q-9 8 -13 18.5t-4 22.5q0 11 3.5 21.5t12.5 20.5q7 9 17.5 14t23.5 5zM260 355q11 0 21 -4.5t19 -12.5q8 -9 12.5 -20t4.5 -23
q0 -14 -4.5 -24.5t-11.5 -18.5q-9 -9 -19 -13t-22 -4t-22.5 4.5t-18.5 13.5q-9 8 -13.5 18.5t-4.5 22.5q0 11 4 21.5t13 20.5q7 9 17.5 14t24.5 5zM475 582q5 0 10.5 -1.5t11.5 -3.5q4 -3 8.5 -6.5t9.5 -6.5q1 -3 3 -5.5t3 -4.5q2 -2 3.5 -4.5t3.5 -4.5q2 -6 3.5 -11.5
t1.5 -11.5q0 -14 -4.5 -24.5t-11.5 -18.5q-9 -9 -19.5 -13.5t-22.5 -4.5t-21.5 4.5t-18.5 13.5q-9 8 -13.5 18.5t-4.5 24.5q0 11 3.5 21.5t12.5 20.5q7 9 17.5 13.5t24.5 4.5zM475 128q10 0 20.5 -4.5t19.5 -12.5q9 -9 13.5 -19.5t4.5 -22.5q0 -14 -4.5 -24.5t-11.5 -18.5
q-9 -9 -19.5 -13.5t-22.5 -4.5t-21.5 4t-18.5 13q-9 8 -13.5 18.5t-4.5 24.5q0 11 3.5 21.5t12.5 20.5q7 9 17.5 13.5t24.5 4.5zM762 549l-240 -253q30 -33 59.5 -65t59.5 -63q29 -32 59 -64t62 -63l-47 -48l-240 252l-240 -251l-47 48l240 253l-240 254l47 48l240 -252
l241 253z" />
    <glyph glyph-name="uni2074" unicode="&#x2074;" horiz-adv-x="950" 
d="M120 514v56l142 198h56v-196h44v-58h-44v-53h-61v53h-137zM257 658l-63 -86h63v86z" />
    <glyph glyph-name="uni207F" unicode="&#x207f;" horiz-adv-x="969" 
d="M113 766h54v-20q8 8 18.5 14t22.5 10q11 3 23.5 4t27.5 1q9 -2 18 -4.5t18 -6.5q8 -6 15.5 -12t14.5 -12q6 -8 10.5 -16t8.5 -17q3 -10 5 -20t3 -19v-206h-55v186q0 7 -1 14.5t-1 15.5q-2 6 -4.5 11.5t-5.5 11.5l-8.5 8.5t-9.5 7.5q-6 2 -14 3.5t-17 1.5q-7 0 -13 -1.5
t-12 -4.5q-6 -4 -11.5 -8.5t-9.5 -8.5q-6 -6 -9.5 -12.5t-5.5 -12.5q-3 -8 -4.5 -15.5t-1.5 -14.5v-182h-56v304z" />
    <glyph glyph-name="uni2081" unicode="&#x2081;" horiz-adv-x="950" 
d="M204 -148v202h-62v55q14 0 26 2t21 7q9 3 14.5 13.5t8.5 27.5h52v-307h-60z" />
    <glyph glyph-name="uni2082" unicode="&#x2082;" horiz-adv-x="950" 
d="M279 -31q-12 -8 -20.5 -14t-14.5 -10q-8 -6 -13.5 -9.5t-8.5 -6.5q-3 -2 -5 -3.5t-4 -2.5q-1 -2 -2.5 -3t-2.5 -1l-3 -3l-2 -2l-2 -2l-1 -1h143v-59h-223q0 15 3 28.5t9 25.5q4 11 11.5 21.5t16.5 20.5q8 9 18 18t22 18q10 8 22 17l24 18q6 4 12 9.5t11 12.5
q3 6 5.5 12.5t2.5 14.5q0 19 -10.5 29.5t-30.5 10.5q-12 0 -20.5 -4.5t-12.5 -13.5q-6 -9 -8.5 -19.5t-2.5 -20.5h-64q0 11 2 22t7 22q3 10 8 19t13 18q6 7 14 13.5t19 12.5q9 4 20.5 6.5t25.5 2.5q13 0 24.5 -2.5t22.5 -5.5q9 -5 17 -10t15 -11q6 -8 11 -15.5t8 -16.5
t4.5 -18.5t1.5 -18.5q0 -10 -1.5 -18.5t-4.5 -15.5q-3 -9 -7 -15.5t-8 -12.5q-5 -6 -10 -11.5t-10 -9.5q-3 -3 -6 -5l-6 -4q-2 -2 -4.5 -4t-4.5 -3z" />
    <glyph glyph-name="uni2083" unicode="&#x2083;" horiz-adv-x="950" 
d="M187 -35q0 -11 3 -20t9 -18q6 -10 15 -14.5t23 -4.5q10 0 19 3t15 9q6 5 9 12.5t3 16.5q0 6 -2.5 11.5t-5.5 10.5q-5 4 -10 6.5t-11 4.5q-6 0 -11 1t-11 2h-14.5h-14.5l2 58h12t14 1h11.5t8.5 2q5 2 9.5 5.5t8.5 8.5q3 4 4.5 9t1.5 11t-3 12t-7 11q-6 4 -13.5 6.5
t-16.5 2.5q-12 0 -20 -4.5t-12 -11.5q-6 -9 -8.5 -17t-2.5 -17h-61q0 25 8 45t24 35q15 13 33 20.5t40 7.5q10 0 20 -2t20 -5q9 -5 16.5 -9.5t15.5 -10.5q6 -6 12 -13.5t11 -14.5q3 -9 5.5 -17.5t2.5 -17.5q0 -12 -2.5 -22t-5.5 -17q-5 -9 -10 -15t-10 -10q8 -7 14.5 -14.5
t12.5 -15.5q4 -9 7 -19t3 -20q0 -21 -7.5 -39t-22.5 -31q-15 -15 -35.5 -21.5t-45.5 -6.5q-12 0 -23.5 2t-21.5 8q-11 4 -20 10t-16 15q-8 7 -14 16.5t-10 20.5q-5 10 -7 21t-2 23h64z" />
    <glyph glyph-name="uni2084" unicode="&#x2084;" horiz-adv-x="950" 
d="M121 -95v56l142 198h56v-196h44v-58h-44v-53h-61v53h-137zM258 49l-63 -86h63v86z" />
    <glyph glyph-name="Euro" unicode="&#x20ac;" horiz-adv-x="950" 
d="M383 462h-112v90l212 75h28q6 0 12.5 -1t12.5 -1q5 -2 10 -3.5t10 -3.5l6.5 -6.5t6.5 -7.5q1 -6 2 -12.5t1 -13.5v-479q0 -14 6 -21t20 -8q17 -3 30.5 -6.5t22.5 -6.5q8 -5 12.5 -14t4.5 -24v-57h-382v57q0 14 4.5 23.5t14.5 14.5q9 4 21.5 7t29.5 6q6 0 10.5 2.5
t9.5 6.5q3 3 5 8t2 12v363zM755 763q41 0 72.5 -10.5t52.5 -29.5q20 -21 30.5 -50t10.5 -65v-608q0 -24 -3.5 -45t-9.5 -37q-8 -18 -17 -31t-21 -22q-24 -20 -49 -29t-52 -9h-589q-17 0 -31.5 2t-27.5 8q-15 4 -27 11t-21 18q-11 10 -19 23.5t-13 30.5q-6 16 -9 36t-3 44
v608q0 36 10 65t31 50q19 19 50.5 29.5t74.5 10.5h560zM771 -116q21 0 38 6.5t31 21.5q12 13 18.5 32.5t6.5 43.5v617q0 21 -6 39t-16 33q-12 14 -30.5 21.5t-44.5 7.5h-586q-27 0 -46 -7.5t-29 -21.5q-12 -15 -17 -33t-5 -39v-617q0 -12 1.5 -23.5t5.5 -21.5q3 -12 8 -21.5
t13 -15.5q6 -6 13.5 -9.5t16.5 -6.5q8 -3 17 -4.5t19 -1.5h592z" />
    <glyph glyph-name="uni2103" unicode="&#x2103;" horiz-adv-x="950" 
d="M849 137q-6 -27 -15.5 -52t-21.5 -47q-14 -23 -29 -42.5t-33 -34.5q-19 -17 -40 -29t-43 -21q-24 -9 -48.5 -13.5t-51.5 -4.5q-38 0 -70 7.5t-59 22.5q-28 14 -51 33.5t-41 44.5q-20 24 -33.5 52.5t-22.5 61.5q-10 31 -14.5 64.5t-4.5 68.5q0 34 4.5 67.5t14.5 66.5
q9 31 22.5 59.5t33.5 53.5q18 24 41 44t51 35q27 14 59 21.5t70 7.5q27 0 53 -4.5t50 -12.5q22 -9 43 -20.5t39 -26.5q17 -16 32 -34t28 -38q12 -21 21 -44t16 -47h-73q-14 35 -33.5 64t-45.5 52q-27 21 -60.5 32.5t-73.5 11.5q-30 0 -54.5 -6t-44.5 -18
q-21 -13 -38.5 -29.5t-30.5 -35.5q-14 -21 -23.5 -44t-15.5 -48q-7 -27 -10 -53.5t-3 -53.5q0 -28 3 -54.5t10 -51.5q6 -27 15.5 -50t23.5 -42q13 -21 30.5 -37t38.5 -28q20 -13 44.5 -19t54.5 -6q19 0 38 3t37 11q17 6 32.5 16t30.5 22q13 12 25 25.5t22 30.5
q9 15 15.5 32.5t11.5 36.5h74zM208 716q11 0 22 -3t23 -7q10 -6 19 -12.5t18 -13.5q7 -9 13.5 -19t12.5 -20q4 -12 6.5 -23t2.5 -23t-2.5 -23.5t-6.5 -21.5q-5 -12 -11.5 -21.5t-13.5 -17.5q-9 -9 -18 -16t-19 -11q-11 -6 -22.5 -8.5t-23.5 -2.5t-23.5 2t-21.5 8
q-12 4 -21 11t-16 16q-9 7 -15 16.5t-10 21.5q-5 10 -7 22t-2 25q0 12 2 23t7 23q3 10 9 19.5t15 18.5q7 8 16 14.5t20 12.5q10 4 21.5 7t25.5 3zM208 652q-12 0 -21.5 -4t-16.5 -11q-8 -9 -11.5 -19.5t-3.5 -22.5q0 -13 3.5 -23.5t11.5 -17.5q7 -9 16.5 -12.5t21.5 -3.5
t21.5 3.5t17.5 12.5q7 7 11 17.5t4 23.5q0 12 -4 22.5t-11 19.5q-8 7 -17.5 11t-21.5 4z" />
    <glyph glyph-name="uni2109" unicode="&#x2109;" horiz-adv-x="950" 
d="M348 594h454v-63h-384v-245h341v-59h-341v-306h-70v673zM208 716q11 0 22 -3t23 -7q10 -6 19 -12.5t18 -13.5q7 -9 13.5 -19t12.5 -20q4 -12 6.5 -23t2.5 -23t-2.5 -23.5t-6.5 -21.5q-5 -12 -11.5 -21.5t-13.5 -17.5q-9 -9 -18 -16t-19 -11q-11 -6 -22.5 -8.5t-23.5 -2.5
t-23.5 2t-21.5 8q-12 4 -21 11t-16 16q-9 7 -15 16.5t-10 21.5q-5 10 -7 22t-2 25q0 12 2 23t7 23q3 10 9 19.5t15 18.5q7 8 16 14.5t20 12.5q10 4 21.5 7t25.5 3zM208 652q-12 0 -21.5 -4t-16.5 -11q-8 -9 -11.5 -19.5t-3.5 -22.5q0 -13 3.5 -23.5t11.5 -17.5
q7 -9 16.5 -12.5t21.5 -3.5t21.5 3.5t17.5 12.5q7 7 11 17.5t4 23.5q0 12 -4 22.5t-11 19.5q-8 7 -17.5 11t-21.5 4z" />
    <glyph glyph-name="uni2113" unicode="&#x2113;" horiz-adv-x="950" 
d="M283 643q-10 0 -18.5 -4.5t-15.5 -13.5q-8 -9 -14.5 -21t-11.5 -25q-6 -15 -10.5 -31t-7.5 -33q-5 -18 -8 -35.5t-4 -33.5q-3 -18 -4.5 -34t-1.5 -30q-2 -15 -2 -27v-21q0 -42 2.5 -78.5t8.5 -66.5q4 -32 10.5 -59.5t15.5 -51.5q15 15 28 34t25 42q10 21 19.5 44.5
t17.5 49.5q6 24 11.5 49t9.5 51q3 25 4.5 49t1.5 47v9.5v15.5q-1 9 -2 18.5t-1 21.5q-2 10 -3.5 22t-2.5 24q-3 11 -5 21.5t-5 21.5q-3 9 -7 17.5t-8 15.5q-6 6 -11 9t-11 3zM289 716q13 0 24.5 -4.5t21.5 -12.5q9 -9 17 -20t15 -24q6 -14 10.5 -29t9.5 -31q1 -9 2.5 -17.5
t2.5 -16.5q2 -8 3 -16.5t3 -15.5q0 -9 0.5 -17t1.5 -15q0 -8 0.5 -15.5t1.5 -13.5v-14.5v-12.5q0 -5 0.5 -10t0.5 -8q0 -24 -2.5 -50.5t-6.5 -54.5q-5 -29 -11.5 -57t-15.5 -55q-9 -29 -21 -55.5t-25 -50.5q-15 -26 -32 -47t-36 -37q8 -14 16 -23t16 -15q7 -6 14 -9t15 -3
q9 0 16.5 2.5t15.5 8.5q6 5 13 12t13 16q5 8 9.5 17t9.5 20q3 9 7 18t7 18q3 -5 7.5 -10t9.5 -9q1 -3 3.5 -5t4.5 -4t4.5 -4t5.5 -4q4 -5 8.5 -9.5t9.5 -7.5q-23 -53 -54.5 -83t-71.5 -39q-39 -9 -73.5 11.5t-64.5 70.5q-7 -2 -14 -3.5t-13 -2.5q-7 -1 -13 -2l-12 -2
q-14 -3 -28.5 -5t-29.5 -2q-3 6 -4.5 11.5t-1.5 9.5q-2 3 -2.5 5.5t-0.5 5.5q-2 2 -2.5 5t-0.5 7q-2 3 -3.5 8.5t-2.5 13.5q9 0 20.5 0.5t26.5 2.5q14 0 26.5 2.5t24.5 7.5q-12 31 -20.5 63t-13.5 65q-6 32 -8.5 65.5t-2.5 69.5q0 15 0.5 34t2.5 40q1 21 3.5 42.5t7.5 44.5
q3 21 8 43t12 44q6 21 13.5 40.5t17.5 37.5q9 16 20 30t25 26q12 10 27 16t33 8z" />
    <glyph glyph-name="uni2116" unicode="&#x2116;" horiz-adv-x="950" 
d="M367 -51l-270 571v-571h-58v693h63l270 -571v571h58v-693h-63zM653 427q24 0 45 -5.5t39 -15.5q17 -12 32 -26t27 -30q12 -18 21 -38t15 -41q5 -23 8 -45t3 -43q0 -22 -3 -43.5t-8 -42.5q-6 -23 -15 -42.5t-21 -35.5q-12 -18 -27 -32.5t-32 -24.5q-18 -12 -39 -17t-45 -5
t-45 5t-39 17q-18 10 -33 24t-26 32q-12 17 -21 36.5t-14 41.5q-6 21 -9 42.5t-3 44.5q0 22 3 44t9 45q5 21 14 40.5t21 37.5q11 16 26 30t33 26q17 10 38 15.5t46 5.5zM653 368q-18 0 -32.5 -4.5t-26.5 -12.5q-13 -9 -23.5 -20.5t-17.5 -24.5q-9 -14 -14.5 -29t-8.5 -30
q-5 -17 -6.5 -33t-1.5 -31q0 -16 1.5 -32t6.5 -31q3 -17 8.5 -32t14.5 -28q7 -14 17.5 -25t23.5 -19q12 -9 26.5 -13t32.5 -4q16 0 31 4.5t28 13.5q12 8 22 19t19 25q7 13 12.5 28t10.5 32q3 15 5 31t2 31t-2 31t-5 33q-4 16 -10 31t-13 29q-9 13 -18.5 24t-21.5 20
q-13 8 -28 12.5t-32 4.5zM864 49q10 0 20.5 -4.5t19.5 -13.5q8 -10 12.5 -20.5t4.5 -20.5q0 -12 -4.5 -22t-12.5 -18q-9 -9 -19.5 -13t-20.5 -4q-12 0 -21.5 4t-17.5 13q-9 8 -13.5 18t-4.5 22q0 10 4.5 20.5t13.5 20.5q8 9 17.5 13.5t21.5 4.5z" />
    <glyph glyph-name="uni2121" unicode="&#x2121;" horiz-adv-x="950" 
d="M238 579h-204v59h469v-59h-202v-630h-63v630zM561 428q25 0 48.5 -5.5t44.5 -15.5q19 -12 36 -26t32 -32q13 -19 23.5 -40t18.5 -45q6 -25 8.5 -50.5t1.5 -52.5h-350q0 -15 2.5 -29.5t8.5 -27.5q4 -15 11.5 -28t17.5 -24q9 -12 20 -21.5t24 -15.5q12 -8 25 -11t28 -3
q25 0 45.5 6.5t36.5 20.5q15 13 25.5 29.5t16.5 37.5h79q-7 -20 -14.5 -36.5t-15.5 -31.5q-9 -16 -19.5 -29t-22.5 -23q-12 -11 -26.5 -19t-29.5 -13q-17 -6 -35.5 -9t-39.5 -3q-26 0 -48.5 5.5t-41.5 16.5q-21 10 -37.5 24t-29.5 32q-14 16 -24.5 36t-16.5 43
q-8 21 -11.5 44.5t-3.5 47.5q0 23 3.5 46t11.5 46q6 21 16.5 41t25.5 38q13 17 30 31t37 25q19 10 41 15.5t48 5.5zM695 229q-2 12 -5 25t-9 25q-6 11 -13.5 21.5t-16.5 19.5q-10 9 -20.5 16t-21.5 13q-12 4 -24 7t-24 3q-14 0 -26 -3t-23 -7q-12 -6 -22 -13t-19 -15
q-9 -9 -16.5 -19.5t-12.5 -21.5q-6 -12 -9.5 -25t-4.5 -26h267zM820 639h65v-689h-65v689z" />
    <glyph glyph-name="trademark" unicode="&#x2122;" horiz-adv-x="950" 
d="M494 665h80v-368h-68v127l-35 -127h-63l-35 127v-127h-68v309h-68v-304h-77v304h-74v59h300l53 -193z" />
    <glyph glyph-name="Omega" unicode="&#x2126;" horiz-adv-x="950" 
d="M402 65q0 10 2 18t7 13q3 4 8 6.5t11 3.5q21 5 39.5 14t33.5 22q14 12 26 26t22 32q9 16 15 35t11 40q3 20 5.5 41t2.5 44q0 24 -4 48t-10 48q-8 22 -18 43t-22 39q-14 18 -30.5 32t-35.5 26q-20 10 -42.5 16t-47.5 6t-47 -6t-40 -17q-20 -12 -36.5 -26.5t-28.5 -32.5
q-14 -19 -24.5 -40t-16.5 -43q-8 -24 -11 -47.5t-3 -46.5q0 -24 1.5 -45.5t6.5 -41.5q3 -21 10 -40t17 -35q9 -17 21 -31t28 -25q15 -12 34.5 -21t43.5 -14q1 -1 3.5 -2t5.5 -1q2 -2 4.5 -3.5t5.5 -2.5q0 -2 1 -3.5t2 -2.5q1 -2 2 -3.5t2 -2.5q1 -5 1.5 -9.5t0.5 -10.5v-94
q0 -10 -2 -18.5t-5 -15.5q-5 -8 -13.5 -11.5t-20.5 -3.5h-140v62h120v63q-25 7 -46 18.5t-39 28.5q-19 15 -34 33.5t-27 39.5q-13 20 -22 42.5t-15 48.5q-6 24 -9 49t-3 51q0 29 4.5 58t15.5 59q9 28 23 54t32 50q18 22 39 40t47 33q24 13 52 20.5t60 7.5q31 0 60 -7t55 -20
q25 -14 47 -32t40 -39q18 -23 31.5 -49t23.5 -54q9 -30 14 -59.5t5 -59.5q0 -24 -3 -48t-9 -48q-7 -25 -16 -47.5t-21 -43.5q-13 -21 -28 -40t-32 -35q-18 -17 -38 -29.5t-42 -19.5v-65h119v-62h-137q-14 0 -22.5 3t-11.5 11q-5 6 -6.5 14t-1.5 19v96z" />
    <glyph glyph-name="uni212B" unicode="&#x212b;" horiz-adv-x="950" 
d="M475 708q-11 0 -20 -4t-15 -11q-8 -8 -11.5 -17.5t-3.5 -21.5t3.5 -22t11.5 -17q6 -8 15 -11.5t20 -3.5t20 3.5t17 11.5q6 7 10 17t4 22t-4 21.5t-10 17.5q-8 7 -17 11t-20 4zM475 776q12 0 23 -3t23 -7q10 -6 19 -12.5t18 -14.5q7 -9 13 -19t11 -20q4 -12 6.5 -23
t2.5 -23t-2.5 -24t-6.5 -22q-5 -12 -11 -21.5t-13 -17.5q-9 -9 -18 -16t-19 -11q-11 -6 -22.5 -8t-23.5 -2q-13 0 -24.5 2t-21.5 8q-11 4 -20 11t-16 16q-9 8 -15 17.5t-10 21.5q-5 10 -7 22t-2 24t2 23t7 23q4 10 10 20t15 19q7 8 16 14.5t21 12.5q10 4 21.5 7t23.5 3z
M618 80h-283l-67 -166h-72l253 589h55l252 -589h-71zM361 144h229l-114 256z" />
    <glyph glyph-name="onethird" unicode="&#x2153;" horiz-adv-x="950" 
d="M138 326h674v-63h-674v63zM453 350v274h-88v63q9 0 18.5 1t18.5 3q8 0 15.5 2.5t15.5 6.5q6 3 11.5 8t10.5 13q4 6 6.5 15t3.5 21h58v-407h-70zM388 -47q-1 -23 4 -40t17 -28q10 -12 26.5 -18t39.5 -6q19 0 34.5 5t27.5 16q10 10 16 23.5t6 31.5q0 11 -4.5 21t-11.5 19
q-9 7 -19 12.5t-21 8.5q-6 1 -12.5 2t-13.5 1q-5 0 -10 -0.5t-11 -0.5h-12.5h-13.5v60h17.5t20.5 1q10 0 17.5 1.5t13.5 4.5q10 4 18.5 10.5t15.5 15.5q6 7 9 16t3 20q0 12 -4.5 23t-13.5 20q-10 7 -23.5 11.5t-30.5 4.5q-11 0 -20 -2t-15 -5q-8 -4 -14 -8.5t-10 -9.5
q-5 -6 -8 -12.5t-4 -12.5q-3 -8 -3.5 -15.5t-0.5 -14.5h-3h-2h-4.5h-5.5q-5 -1 -10 -1h-11h-16.5h-18.5q-2 17 0.5 32.5t8.5 29.5q5 13 13 24.5t19 20.5q10 9 22 15.5t27 12.5q13 4 28 6.5t30 2.5q13 0 26 -2.5t27 -5.5q12 -5 24 -11.5t23 -13.5q10 -9 18.5 -18.5
t15.5 -20.5q6 -12 9 -25t3 -27q0 -15 -3 -28.5t-9 -23.5q-6 -12 -15 -22t-21 -19q12 -9 23.5 -19t20.5 -22q8 -13 12.5 -27.5t4.5 -29.5q0 -31 -11 -56t-32 -43q-22 -20 -50.5 -29.5t-64.5 -9.5q-17 0 -32.5 2.5t-30.5 8.5q-15 5 -28.5 12.5t-23.5 18.5q-12 9 -20.5 21.5
t-14.5 27.5q-6 14 -9 30.5t-1 34.5z" />
    <glyph glyph-name="twothirds" unicode="&#x2154;" horiz-adv-x="950" 
d="M138 326h674v-63h-674v63zM534 519q-5 -3 -9.5 -5.5t-8.5 -5.5t-8.5 -5.5t-8.5 -4.5l-10 -6t-9 -6q-5 -3 -9.5 -5.5t-8.5 -5.5q-9 -7 -17.5 -14t-15.5 -14q-8 -8 -14.5 -16t-10.5 -17h218v-64h-304q0 13 2.5 26.5t7.5 27.5q3 12 8.5 25t13.5 25q6 12 14.5 22.5t19.5 21.5
q9 9 20 17.5t23 15.5q18 12 33.5 22.5t28.5 19.5q12 9 21 17t17 16q6 6 11 13t8 14q2 6 3.5 12.5t1.5 13.5q0 15 -5 28t-14 23q-10 9 -23.5 13.5t-30.5 4.5q-24 0 -39.5 -6t-22.5 -18q-9 -13 -14 -29.5t-5 -37.5h-69q0 16 3 32t9 31q4 13 11.5 25.5t17.5 23.5
q9 10 20.5 18.5t26.5 14.5q13 5 29 8t34 3t33.5 -3t29.5 -8q13 -6 24.5 -13t20.5 -16q9 -10 15.5 -20.5t11.5 -22.5q3 -13 5.5 -26.5t2.5 -26.5q0 -24 -6 -44t-18 -35q-13 -17 -29 -32t-35 -27zM388 -47q-1 -23 4 -40t17 -28q10 -12 26.5 -18t39.5 -6q19 0 34.5 5t27.5 16
q10 10 16 23.5t6 31.5q0 11 -4.5 21t-11.5 19q-9 7 -19 12.5t-21 8.5q-6 1 -12.5 2t-13.5 1q-5 0 -10 -0.5t-11 -0.5h-12.5h-13.5v60h17.5t20.5 1q10 0 17.5 1.5t13.5 4.5q10 4 18.5 10.5t15.5 15.5q6 7 9 16t3 20q0 12 -4.5 23t-13.5 20q-10 7 -23.5 11.5t-30.5 4.5
q-11 0 -20 -2t-15 -5q-8 -4 -14 -8.5t-10 -9.5q-5 -6 -8 -12.5t-4 -12.5q-3 -8 -3.5 -15.5t-0.5 -14.5h-3h-2h-4.5h-5.5q-5 -1 -10 -1h-11h-16.5h-18.5q-2 17 0.5 32.5t8.5 29.5q5 13 13 24.5t19 20.5q10 9 22 15.5t27 12.5q13 4 28 6.5t30 2.5q13 0 26 -2.5t27 -5.5
q12 -5 24 -11.5t23 -13.5q10 -9 18.5 -18.5t15.5 -20.5q6 -12 9 -25t3 -27q0 -15 -3 -28.5t-9 -23.5q-6 -12 -15 -22t-21 -19q12 -9 23.5 -19t20.5 -22q8 -13 12.5 -27.5t4.5 -29.5q0 -31 -11 -56t-32 -43q-22 -20 -50.5 -29.5t-64.5 -9.5q-17 0 -32.5 2.5t-30.5 8.5
q-15 5 -28.5 12.5t-23.5 18.5q-12 9 -20.5 21.5t-14.5 27.5q-6 14 -9 30.5t-1 34.5z" />
    <glyph glyph-name="oneeighth" unicode="&#x215b;" horiz-adv-x="950" 
d="M138 326h674v-63h-674v63zM629 119q0 -27 -11.5 -49t-32.5 -39q13 -10 23.5 -21t19.5 -23q7 -13 11.5 -28t4.5 -33q0 -17 -3 -31.5t-9 -26.5q-7 -14 -16 -24.5t-19 -19.5q-12 -9 -25.5 -15.5t-28.5 -10.5q-16 -4 -32.5 -6.5t-34.5 -2.5t-34 2.5t-31 6.5q-16 4 -29.5 11.5
t-23.5 16.5q-12 9 -21 19.5t-15 24.5q-7 12 -10 26t-3 30q0 33 15 59t45 44q-12 9 -20.5 19t-13.5 22q-6 11 -9 23t-3 26q0 30 10.5 53t31.5 40q21 15 48.5 23.5t62.5 8.5q33 0 60.5 -8.5t49.5 -23.5q21 -17 32 -40t11 -53zM476 0q-23 0 -40.5 -5.5t-29.5 -15.5
q-13 -11 -19 -24.5t-6 -28.5t6 -28t19 -23q12 -11 29.5 -16t40.5 -5q22 0 40 5t31 16q12 10 18 23t6 28t-6 28.5t-18 24.5q-13 10 -31 15.5t-40 5.5zM476 180q-21 0 -36 -4.5t-24 -12.5q-10 -9 -14.5 -20t-4.5 -23t4.5 -22.5t14.5 -18.5q9 -9 24 -13.5t36 -4.5q19 0 34 4.5
t26 13.5q9 8 14.5 18.5t5.5 22.5t-5.5 23t-14.5 20q-11 8 -26 12.5t-34 4.5zM453 350v274h-88v63q12 0 23.5 1t22.5 4q9 1 17 3.5t14 7.5q4 2 8 7t8 13q3 6 5 14.5t2 19.5h58v-407h-70z" />
    <glyph glyph-name="threeeighths" unicode="&#x215c;" horiz-adv-x="950" 
d="M138 326h674v-62h-674v62zM629 119q0 -27 -11.5 -49t-32.5 -39q13 -10 23.5 -21t19.5 -23q7 -13 11.5 -28t4.5 -33q0 -17 -3 -31.5t-9 -26.5q-7 -14 -16 -24.5t-19 -19.5q-12 -9 -25.5 -15.5t-28.5 -10.5q-16 -4 -32.5 -6.5t-34.5 -2.5t-34 2.5t-31 6.5q-16 4 -29.5 11.5
t-23.5 16.5q-12 9 -21 19.5t-15 24.5q-7 12 -10 26t-3 30q0 33 15 59t45 44q-12 9 -20.5 19t-13.5 22q-6 11 -9 23t-3 26q0 30 10.5 53t31.5 40q21 15 48.5 23.5t62.5 8.5q33 0 60.5 -8.5t49.5 -23.5q21 -17 32 -40t11 -53zM476 0q-23 0 -40.5 -5.5t-29.5 -15.5
q-13 -11 -19 -24.5t-6 -28.5t6 -28t19 -23q12 -11 29.5 -16t40.5 -5q22 0 40 5t31 16q12 10 18 23t6 28t-6 28.5t-18 24.5q-13 10 -31 15.5t-40 5.5zM476 180q-21 0 -36 -4.5t-24 -12.5q-10 -9 -14.5 -20t-4.5 -23t4.5 -22.5t14.5 -18.5q9 -9 24 -13.5t36 -4.5q19 0 34 4.5
t26 13.5q9 8 14.5 18.5t5.5 22.5t-5.5 23t-14.5 20q-11 8 -26 12.5t-34 4.5zM388 501q-1 -23 4 -40t17 -28q10 -12 26.5 -18t39.5 -6q19 0 34.5 5t27.5 16q10 10 16 23.5t6 31.5q0 11 -4.5 21t-11.5 19q-9 7 -19 12.5t-21 8.5q-6 1 -12.5 2t-13.5 1q-5 0 -10 -0.5t-11 -0.5
h-12.5h-13.5v60h17.5t20.5 1q10 0 17.5 1.5t13.5 4.5q10 4 18.5 10.5t15.5 15.5q6 7 9 16t3 20q0 12 -4.5 23t-13.5 20q-10 7 -23.5 11.5t-30.5 4.5q-11 0 -20 -2t-15 -5q-8 -4 -14 -8.5t-10 -9.5q-5 -6 -8 -12.5t-4 -12.5q-3 -8 -3.5 -15.5t-0.5 -14.5h-3h-2h-4.5h-5.5
q-5 -1 -10 -1h-11h-16.5h-18.5q-2 17 0.5 32.5t8.5 29.5q5 13 13 24.5t19 20.5q10 9 22 15.5t27 12.5q13 4 28 6.5t30 2.5q13 0 26 -2.5t27 -5.5q12 -5 24 -11.5t23 -13.5q10 -9 18.5 -18.5t15.5 -20.5q6 -12 9 -25t3 -27q0 -15 -3 -28.5t-9 -23.5q-6 -12 -15 -22t-21 -19
q12 -9 23.5 -19t20.5 -22q8 -13 12.5 -27.5t4.5 -29.5q0 -31 -11 -56t-32 -43q-22 -20 -50.5 -29.5t-64.5 -9.5q-17 0 -32.5 2.5t-30.5 8.5q-15 5 -28.5 12.5t-23.5 18.5q-12 9 -20.5 21.5t-14.5 27.5q-6 14 -9 30.5t-1 34.5z" />
    <glyph glyph-name="fiveeighths" unicode="&#x215d;" horiz-adv-x="950" 
d="M138 326h674v-63h-674v63zM318 544q0 3 0.5 7t1.5 10t2.5 13.5t3.5 16.5q1 8 2 16.5t3 17.5q1 9 2.5 18.5t3.5 19.5q3 18 6 36.5t6 36.5q2 16 4 28.5t4 20.5h245v-63h-188q-1 -4 -1.5 -7.5t-1.5 -6.5q0 -3 -0.5 -5.5t-0.5 -4.5q-1 -3 -1.5 -6t-1.5 -6q0 -2 -0.5 -4.5
t-0.5 -4.5q-1 -3 -1.5 -5.5t-1.5 -5.5q0 -2 -0.5 -4.5t-0.5 -4.5q-2 -6 -3 -12t-1 -12q10 5 21.5 9t23.5 7q11 1 21.5 1.5t19.5 0.5q13 -2 26.5 -5t26.5 -9q12 -6 22.5 -14t19.5 -17q9 -11 16 -22.5t13 -23.5q4 -14 7 -29t3 -30q0 -17 -3 -32.5t-9 -28.5q-6 -15 -14.5 -27.5
t-18.5 -21.5q-11 -11 -23.5 -19t-25.5 -13q-15 -6 -29.5 -9t-29.5 -3q-33 0 -60 9t-47 27q-21 17 -34 41.5t-17 56.5h78q1 -15 7 -28.5t18 -23.5q10 -12 24.5 -17t32.5 -5t32.5 6t26.5 19q10 12 16 27.5t6 36.5q0 19 -5.5 35.5t-14.5 30.5q-11 12 -26 19t-33 7
q-14 0 -25.5 -3t-20.5 -9q-11 -6 -19 -13.5t-14 -16.5zM629 119q0 -27 -11.5 -49t-32.5 -39q13 -10 23.5 -21t19.5 -23q7 -13 11.5 -28t4.5 -33q0 -17 -3 -31.5t-9 -26.5q-7 -14 -16 -24.5t-19 -19.5q-12 -9 -25.5 -15.5t-28.5 -10.5q-16 -4 -32.5 -6.5t-34.5 -2.5t-34 2.5
t-31 6.5q-16 4 -29.5 11.5t-23.5 16.5q-12 9 -21 19.5t-15 24.5q-7 12 -10 26t-3 30q0 33 15 59t45 44q-12 9 -20.5 19t-13.5 22q-6 11 -9 23t-3 26q0 30 10.5 53t31.5 40q21 15 48.5 23.5t62.5 8.5q33 0 60.5 -8.5t49.5 -23.5q21 -17 32 -40t11 -53zM476 0
q-23 0 -40.5 -5.5t-29.5 -15.5q-13 -11 -19 -24.5t-6 -28.5t6 -28t19 -23q12 -11 29.5 -16t40.5 -5q22 0 40 5t31 16q12 10 18 23t6 28t-6 28.5t-18 24.5q-13 10 -31 15.5t-40 5.5zM476 180q-21 0 -36 -4.5t-24 -12.5q-10 -9 -14.5 -20t-4.5 -23t4.5 -22.5t14.5 -18.5
q9 -9 24 -13.5t36 -4.5q19 0 34 4.5t26 13.5q9 8 14.5 18.5t5.5 22.5t-5.5 23t-14.5 20q-11 8 -26 12.5t-34 4.5z" />
    <glyph glyph-name="seveneighths" unicode="&#x215e;" horiz-adv-x="950" 
d="M138 326h674v-63h-674v63zM324 767h305v-54q-17 -21 -31.5 -41t-27.5 -40q-14 -21 -26 -42.5t-21 -42.5q-11 -23 -19 -46t-14 -47q-7 -25 -10.5 -51t-3.5 -53h-72q0 19 3 41t10 47q6 24 14.5 48t19.5 49q9 24 20.5 47.5t25.5 46.5q12 21 24.5 40t26.5 35h-224v63z
M629 119q0 -27 -11.5 -49t-32.5 -39q13 -10 23.5 -21t19.5 -23q7 -13 11.5 -28t4.5 -33q0 -17 -3 -31.5t-9 -26.5q-7 -14 -16 -24.5t-19 -19.5q-12 -9 -25.5 -15.5t-28.5 -10.5q-16 -4 -32.5 -6.5t-34.5 -2.5t-34 2.5t-31 6.5q-16 4 -29.5 11.5t-23.5 16.5q-12 9 -21 19.5
t-15 24.5q-7 12 -10 26t-3 30q0 33 15 59t45 44q-12 9 -20.5 19t-13.5 22q-6 11 -9 23t-3 26q0 30 10.5 53t31.5 40q21 15 48.5 23.5t62.5 8.5q33 0 60.5 -8.5t49.5 -23.5q21 -17 32 -40t11 -53zM476 0q-23 0 -40.5 -5.5t-29.5 -15.5q-13 -11 -19 -24.5t-6 -28.5t6 -28
t19 -23q12 -11 29.5 -16t40.5 -5q22 0 40 5t31 16q12 10 18 23t6 28t-6 28.5t-18 24.5q-13 10 -31 15.5t-40 5.5zM476 180q-21 0 -36 -4.5t-24 -12.5q-10 -9 -14.5 -20t-4.5 -23t4.5 -22.5t14.5 -18.5q9 -9 24 -13.5t36 -4.5q19 0 34 4.5t26 13.5q9 8 14.5 18.5t5.5 22.5
t-5.5 23t-14.5 20q-11 8 -26 12.5t-34 4.5z" />
    <glyph glyph-name="uni2160" unicode="&#x2160;" horiz-adv-x="950" 
d="M440 668h70v-746h-70v746z" />
    <glyph glyph-name="uni2161" unicode="&#x2161;" horiz-adv-x="950" 
d="M323 668h69v-746h-69v746zM558 668h69v-746h-69v746z" />
    <glyph glyph-name="uni2162" unicode="&#x2162;" horiz-adv-x="950" 
d="M277 668h71v-746h-71v746zM602 668h71v-746h-71v746zM441 668h70v-746h-70v746z" />
    <glyph glyph-name="uni2163" unicode="&#x2163;" horiz-adv-x="950" 
d="M188 668h70v-746h-70v746zM575 -78h-64l-229 746h73l188 -634l187 634h74z" />
    <glyph glyph-name="uni2164" unicode="&#x2164;" horiz-adv-x="950" 
d="M511 -78h-64l-284 746h74l242 -647l242 647h72z" />
    <glyph glyph-name="uni2165" unicode="&#x2165;" horiz-adv-x="950" 
d="M753 668v-746h-71v746h71zM366 -78l-229 746h74l187 -634l188 634h73l-229 -746h-64z" />
    <glyph glyph-name="uni2166" unicode="&#x2166;" horiz-adv-x="950" 
d="M663 668v-746h-71v746h71zM297 -78l-199 746h73l160 -630l160 630h73l-200 -746h-67zM798 668v-746h-70v746h70z" />
    <glyph glyph-name="uni2167" unicode="&#x2167;" horiz-adv-x="950" 
d="M848 668v-746h-70v746h70zM595 668v-746h-70v746h70zM252 -78l-191 746h72l152 -629l151 629h72l-191 -746h-65zM722 668v-746h-70v746h70z" />
    <glyph glyph-name="uni2168" unicode="&#x2168;" horiz-adv-x="950" 
d="M577 306l249 -384h-77l-211 325l-211 -325h-78l250 384l-234 362h77l196 -303l196 303h77zM161 668h70v-746h-70v746z" />
    <glyph glyph-name="uni2169" unicode="&#x2169;" horiz-adv-x="950" 
d="M513 306l250 -384h-78l-211 325l-211 -325h-78l249 384l-234 362h78l196 -303l197 303h77z" />
    <glyph glyph-name="uni2170" unicode="&#x2170;" horiz-adv-x="950" 
d="M509 -78h-70v556h70v-556zM512 592h-79v81h79v-81z" />
    <glyph glyph-name="uni2171" unicode="&#x2171;" horiz-adv-x="950" 
d="M392 -78h-69v556h69v-556zM396 592h-77v80h77v-80zM628 -78h-69v556h69v-556zM632 592h-77v80h77v-80z" />
    <glyph glyph-name="uni2172" unicode="&#x2172;" horiz-adv-x="950" 
d="M348 -78h-71v556h71v-556zM352 592h-78v80h78v-80zM674 -78h-71v556h71v-556zM677 592h-78v80h78v-80zM511 -78h-70v556h70v-556zM515 592h-78v80h78v-80z" />
    <glyph glyph-name="uni2173" unicode="&#x2173;" horiz-adv-x="950" 
d="M268 -78h-70v556h70v-556zM272 592h-79v81h79v-81zM588 -78h-63l-230 556h76l185 -445l186 445h77z" />
    <glyph glyph-name="uni2174" unicode="&#x2174;" horiz-adv-x="950" 
d="M506 -83h-62l-230 556h76l185 -445l185 445h76z" />
    <glyph glyph-name="uni2175" unicode="&#x2175;" horiz-adv-x="950" 
d="M427 -78h-62l-230 556h76l185 -445l185 445h77zM764 -78h-71v556h71v-556zM767 592h-79v81h79v-81z" />
    <glyph glyph-name="uni2176" unicode="&#x2176;" horiz-adv-x="950" 
d="M364 -78h-62l-204 556h76l159 -443l158 443h77zM664 -78h-71v556h71v-556zM668 592h-77v80h77v-80zM799 -78h-71v556h71v-556zM801 592h-76v80h76v-80z" />
    <glyph glyph-name="uni2177" unicode="&#x2177;" horiz-adv-x="950" 
d="M310 -78h-62l-194 556h76l149 -444l149 444h76zM595 -78h-71v556h71v-556zM598 592h-77v80h77v-80zM721 -78h-70v556h70v-556zM725 592h-77v80h77v-80zM848 -78h-70v556h70v-556zM852 592h-77v80h77v-80z" />
    <glyph glyph-name="uni2178" unicode="&#x2178;" horiz-adv-x="950" 
d="M286 -78h-71v556h71v-556zM289 592h-78v81h78v-81zM548 150l-170 -228h-84l211 285l-201 271h84l161 -216l159 216h85l-201 -272l211 -284h-85z" />
    <glyph glyph-name="uni2179" unicode="&#x2179;" horiz-adv-x="950" 
d="M475 145l-170 -228h-84l210 285l-201 271h84l161 -216l161 216h84l-204 -272l214 -284h-86z" />
    <glyph glyph-name="arrowleft" unicode="&#x2190;" horiz-adv-x="950" 
d="M919 264h-658q6 -6 12 -11.5t12 -9.5q5 -6 11 -11l12 -10q2 -3 4 -4.5t4 -1.5q0 -1 0.5 -2t1.5 -1l1.5 -1.5t1.5 -0.5l-13 -22l-306 106l304 104l13 -22l-57 -51h657v-62z" />
    <glyph glyph-name="arrowup" unicode="&#x2191;" horiz-adv-x="950" 
d="M444 -171v691l-48 -63l-24 12l102 328l103 -327l-22 -14l-51 63v-690h-60z" />
    <glyph glyph-name="arrowright" unicode="&#x2192;" horiz-adv-x="950" 
d="M30 326h656l-59 52l13 22l308 -105l-307 -106l-13 22l60 53h-658v62z" />
    <glyph glyph-name="arrowdown" unicode="&#x2193;" horiz-adv-x="950" 
d="M555 137l23 -14l-104 -324l-102 324l24 12l48 -63v691h60v-692z" />
    <glyph glyph-name="arrowboth" unicode="&#x2194;" horiz-adv-x="950" 
d="M319 205l-13 -24l-306 113l308 115l13 -24l-66 -59h442l-67 59l13 24l305 -114l-303 -114l-13 24l62 59h-439z" />
    <glyph glyph-name="arrowupdn" unicode="&#x2195;" horiz-adv-x="950" 
d="M390 466l-22 13l107 320l107 -320l-22 -13l-55 64v-471l55 66l22 -13l-107 -321l-107 320l23 13l54 -65v472z" />
    <glyph glyph-name="uni2196" unicode="&#x2196;" horiz-adv-x="950" 
d="M872 -169l-693 729v-121l-26 -5l-132 338l317 -142l-5 -27h-108l689 -725z" />
    <glyph glyph-name="uni2197" unicode="&#x2197;" horiz-adv-x="950" 
d="M28 -133l692 730h-118l-4 27l324 140l-136 -333l-27 4v113l-688 -726z" />
    <glyph glyph-name="uni2198" unicode="&#x2198;" horiz-adv-x="950" 
d="M74 764l693 -729v120l26 5l133 -339l-318 144l5 27h108l-689 725z" />
    <glyph glyph-name="uni2199" unicode="&#x2199;" horiz-adv-x="950" 
d="M913 713l-692 -730h118l4 -27l-323 -139l135 332l27 -4v-112l688 725z" />
    <glyph glyph-name="arrowdblright" unicode="&#x21d2;" horiz-adv-x="950" 
d="M688 402l-114 85l39 50l335 -243l-337 -244l-37 53l116 85h-678v62h764l61 44l-64 46h-761v62h676z" />
    <glyph glyph-name="arrowdblboth" unicode="&#x21d4;" horiz-adv-x="950" 
d="M688 402l-115 85l40 51l335 -243l-337 -244l-37 53l116 84h-430l118 -84l-39 -51l-336 242l340 246l37 -53l-117 -86h425zM775 250l62 45l-63 45h-598l-62 -44l63 -46h598z" />
    <glyph glyph-name="universal" unicode="&#x2200;" horiz-adv-x="950" 
d="M312 460h363l89 209h73l-311 -746h-64l-311 746h73zM649 398h-312l156 -378z" />
    <glyph glyph-name="partialdiff" unicode="&#x2202;" horiz-adv-x="950" 
d="M429 117q25 9 46 25.5t37 39.5q15 22 27 47.5t21 54.5q-15 -1 -30.5 -3.5t-31.5 -5.5q-17 -5 -35 -13.5t-36 -20.5q-9 -8 -16.5 -15.5t-13.5 -14.5q-6 -9 -10.5 -18t-5.5 -18q-2 -6 -2.5 -12t1.5 -12q0 -7 2 -12.5t5 -9.5q3 -6 7 -9.5t10 -4.5q4 -3 10.5 -2.5t14.5 4.5z
M458 437q-12 -3 -22 -6.5t-17 -7.5q-9 -6 -16 -11t-11 -10q-9 -11 -15 -17.5t-9 -9.5q-5 -3 -10.5 -2t-11.5 7q-3 7 -2.5 14t4.5 13q1 2 2.5 4.5t3.5 4.5q1 3 3 5.5t4 5.5q6 6 13.5 13t15.5 14q7 6 15.5 11.5t17.5 11.5q8 4 17 8t20 7q9 1 19 1.5t22 -0.5q22 -2 41 -8
t34 -16q14 -12 25 -25.5t19 -29.5q7 -18 11 -36.5t6 -38.5q0 -21 -2.5 -42t-7.5 -42q-6 -18 -14 -35.5t-18 -33.5q-11 -18 -23.5 -33t-26.5 -28q-15 -15 -31 -26t-34 -19q-18 -9 -37.5 -13t-38.5 -4q-41 0 -65 20t-30 62q-3 13 -2 27.5t7 29.5q4 13 12 26.5t19 25.5
q9 11 21.5 21t27.5 19q14 8 29.5 14t32.5 10q15 3 30 5.5t31 4.5h14h13t11 0.5t10 0.5q0 9 -1 18.5t-2 18.5q-3 8 -6 17t-6 20q-8 12 -17 19.5t-21 12.5q-13 3 -26.5 3.5t-27.5 -1.5z" />
    <glyph glyph-name="existential" unicode="&#x2203;" horiz-adv-x="950" 
d="M730 668v-746h-520v62h451v294h-425v63h425v265h-443v62h512z" />
    <glyph glyph-name="gradient" unicode="&#x2207;" horiz-adv-x="950" 
d="M475 -45l-363 649h726zM219 542l257 -455l249 455h-506z" />
    <glyph glyph-name="element" unicode="&#x2208;" horiz-adv-x="950" 
d="M194 264q1 -21 6 -40.5t14 -35.5q7 -18 18 -32t26 -25q13 -12 29.5 -21.5t35.5 -15.5q18 -8 38.5 -11.5t43.5 -3.5h398v-62h-387q-30 0 -58.5 4.5t-53.5 14.5q-27 9 -50 23t-41 32q-20 18 -35.5 39.5t-25.5 48.5q-12 25 -17.5 54t-5.5 62q0 31 5 59.5t16 54.5
q10 24 24.5 46t34.5 40q18 18 41 31.5t50 24.5q26 9 55 14.5t61 7.5h387v-62h-398q-23 0 -43 -3t-38 -9q-19 -7 -35.5 -16t-29.5 -21q-15 -12 -26 -27t-19 -31q-9 -18 -14 -37.5t-6 -40.5h608v-62h-608z" />
    <glyph glyph-name="suchthat" unicode="&#x220b;" horiz-adv-x="950" 
d="M150 264v62h608q-2 21 -7 40.5t-13 37.5q-9 16 -20.5 31t-24.5 27q-15 12 -31 21t-34 16q-20 6 -40 9t-41 3h-398v62h387q31 -2 60 -7.5t56 -14.5q26 -11 48.5 -24.5t42.5 -31.5q18 -18 33 -40t26 -46q10 -26 15.5 -54.5t5.5 -59.5q0 -33 -6 -62t-16 -54
q-12 -27 -27.5 -48.5t-33.5 -39.5q-20 -18 -43 -32t-48 -23q-27 -10 -55 -14.5t-58 -4.5h-387v62h398q22 0 42.5 3.5t39.5 11.5q18 6 34 15.5t31 21.5q13 11 24.5 25t20.5 32q7 16 12 35.5t7 40.5h-608z" />
    <glyph glyph-name="product" unicode="&#x220f;" horiz-adv-x="950" 
d="M794 630v-62h-162v-608h-61v608h-192v-608h-61v608h-162v62h638z" />
    <glyph glyph-name="summation" unicode="&#x2211;" horiz-adv-x="950" 
d="M745 630v-240h-62v178h-405l251 -273l-252 -273h413v179h63v-241h-534q-8 0 -14 1.5t-10 5.5q-6 3 -9 8t-4 14q0 6 3 13t9 16q4 7 8 13t9 11l231 253l-239 263v72h542z" />
    <glyph glyph-name="radical" unicode="&#x221a;" horiz-adv-x="950" 
d="M92 163l99 74l74 -146l81 490h492v-64h-440l-96 -561q-3 -7 -6.5 -10t-9.5 -3q-6 -1 -12 1t-10 8l-97 191l-46 -36z" />
    </font>
</defs>
</svg>
